<?xml version="1.0" encoding="UTF-8" standalone="no"?>
<!-- Created with Inkscape (http://www.inkscape.org/) -->

<svg
   xmlns:dc="http://purl.org/dc/elements/1.1/"
   xmlns:cc="http://creativecommons.org/ns#"
   xmlns:rdf="http://www.w3.org/1999/02/22-rdf-syntax-ns#"
   xmlns:svg="http://www.w3.org/2000/svg"
   xmlns="http://www.w3.org/2000/svg"
   xmlns:inkscape="http://www.inkscape.org/namespaces/inkscape"
   version="1.1"
   width="241.25"
   height="355"
   id="svg2"
   xml:space="preserve"><metadata
     id="metadata8"><rdf:RDF><cc:Work
         rdf:about=""><dc:format>image/svg+xml</dc:format><dc:type
           rdf:resource="http://purl.org/dc/dcmitype/StillImage" /></cc:Work></rdf:RDF></metadata><defs
     id="defs6" /><g
     transform="matrix(1.25,0,0,-1.25,0,355)"
     id="g10"><g
       transform="scale(0.1,0.1)"
       id="g12"><path
         d="m 1232.01,2840 -59.98,-2.5 C 812.676,2822.01 516.793,2712.05 284.387,2508.63 193.422,2428.66 121.949,2341.7 69.9727,2248.24 23.4922,2163.77 0,2089.3 0,2023.83 c 0,-45.49 1.5,-88.97 4.5,-131.45 l 697.219,0 c 22.492,10.5 50.98,15.49 85.465,15.49 35.988,0 66.476,-4.99 91.464,-15.49 l 333.872,0 c 11.99,3.5 24.98,5.5 39.48,5.5 13.49,0 25.49,-2 36.98,-5.5 l 572.77,0 c 10.5,32.49 20,65.97 29.49,99.96 30.49,110.95 45.49,183.43 45.49,217.91 0,419.84 -234.91,629.75 -704.72,629.75"
         inkscape:connector-curvature="0"
         id="path14"
         style="fill:#000000;fill-opacity:1;fill-rule:nonzero;stroke:none" /><path
         d="m 1356.46,1831.9 c 5,-5.49 9.49,-11.99 12.99,-18.99 5.5,-11.5 9.5,-23.99 11.5,-37.98 0.5,-12 1,-18 1,-18.5 0,-5.49 -0.5,-10.49 -1,-15.99 0.5,-6.5 1,-12.49 1,-17.49 0,-83.47 -34.99,-124.95 -104.96,-124.95 -49.98,0 -88.97,30.98 -117.45,92.46 -14,30.99 -22.99,61.97 -27.49,93.46 0,25.99 8.49,49.98 25.49,71.47 14.49,18.5 32.48,30.49 54.98,36.99 l -333.872,0 c 30.989,-12.5 53.481,-32.99 67.973,-61.48 8.496,-16.49 13.496,-34.48 14.992,-54.97 0.5,-17.5 0.5,-26.49 0.5,-27.99 0,-37.49 -8.996,-69.98 -27.488,-97.46 C 906.137,1608.99 860.656,1588 797.18,1588 c -63.973,0 -108.957,30.99 -134.946,92.46 -12.996,30.99 -19.492,61.98 -19.992,93.47 0,35.98 5,62.47 14.496,78.96 9.996,17.5 24.989,30.49 44.981,39.49 l -697.219,0 c 11.4922,-173.93 47.9805,-323.87 108.453,-449.32 88.465,-181.93 221.914,-309.88 400.34,-383.85 -3.496,-37.98 -7.496,-75.968 -11.992,-114.452 l 17.992,0 c 4.496,36.984 6.996,72.972 7.996,108.452 84.465,-33.48 179.43,-54.972 284.387,-64.468 -9.496,-11.496 -20.492,-26.492 -32.988,-43.984 l 17.492,0 c 8.5,11.496 19.992,25.492 34.488,42.484 22.492,-1.5 45.98,-3 69.473,-3.5 9.996,-13.492 19.492,-26.488 28.988,-38.984 l 50.98,0 c -10.496,13.496 -21.492,26.488 -32.488,38.484 59.479,0.5 117.449,6.996 172.929,20.488 -3,-14.488 -8.5,-33.98 -16.99,-58.972 l 28.99,0 c 5.49,23.992 8.99,45.48 9.49,64.972 22,6 43.49,13 64.98,21.49 10.99,-15.49 19.99,-28.99 27.49,-40.482 -7,-10.496 -21.99,-25.988 -44.99,-45.98 l 54.98,0 c 2.5,3.5 5,7.496 7.5,10.996 10,13.496 14.99,23.992 14.99,32.488 0,8.496 -11.49,26.488 -34.98,52.978 9.49,4 18.49,7.99 27.49,12.49 5.99,-20.49 12.99,-56.472 21.49,-108.952 l 35.48,0 c -9.49,42.484 -21.49,82.472 -34.98,119.952 12.99,7 25.99,14.49 38.98,21.99 19.49,-40.98 38.49,-88.462 56.98,-141.942 l 21.99,0 c -20.49,56.472 -43.48,105.952 -68.47,148.442 154.44,96.46 288.38,256.4 401.34,480.31 49.98,99.46 92.96,205.42 129.44,318.87 l -572.77,0 c 28.49,-8.5 50.98,-28.99 67.48,-60.48"
         inkscape:connector-curvature="0"
         id="path16"
         style="fill:#000000;fill-opacity:1;fill-rule:nonzero;stroke:none" /><path
         d="m 1422.43,874.785 c -7.5,24.492 -14.99,47.981 -22.99,69.973 l -21.99,0 c 7.5,-22.492 15.49,-46.481 22.99,-71.969 14.49,-50.48 34.99,-122.453 61.47,-216.914 -5.99,-0.5 -11.99,-1 -17.49,-1.5 -2.5,2.5 -4.99,3.996 -7.49,3.996 -18.5,0 -34.99,-3.496 -49.98,-9.992 -16.5,-2 -28.49,-4 -36.99,-6.5 -4,79.969 -7.5,134.445 -11,163.933 -5,48.981 -12.49,95.465 -22.49,138.946 l -35.48,0 c 3.49,-19.492 6.49,-40.985 9.99,-64.473 7.5,-51.48 13.5,-94.465 17.5,-129.449 l -1.5,0 c 0,-5.996 -16,-26.988 -47.98,-63.473 -30.49,-35.488 -44.48,-58.976 -41.99,-71.472 l 15,-5 c 41.48,50.98 67.97,85.468 79.97,103.461 1.49,-19.493 2.49,-35.489 2.49,-47.481 0,-15.996 -3.49,-31.488 -9.99,-45.984 -7.5,-13.992 -12.5,-23.989 -15,-29.989 -6.99,-18.492 6.5,-42.98 39.99,-72.468 -29.49,-0.5 -58.98,-4.5 -88.47,-11.996 -38.48,-11.496 -70.47,-20.493 -95.46,-26.989 -8,-2 -16.49,-4 -24.99,-6 -11.5,134.45 -22.49,239.907 -33.98,315.375 1.5,1 1.99,2.5 2.49,4 0.5,2.496 1,6.996 0.5,12.992 -1,1 -5.49,6.5 -12.99,16.497 3.5,3.496 7.5,7.496 11.5,12.492 21.48,9.496 43.48,20.992 65.97,35.488 25.99,15.992 50.48,27.988 72.97,35.484 3.5,13.497 9.49,26.489 17.49,38.985 l -54.98,0 c -14.49,-12.496 -32.98,-27.488 -54.47,-43.981 -8,-6.5 -15.5,-11.996 -22,-17.496 2.5,6.5 4.5,12.996 7,19.992 5,14.497 9,28.489 12.5,41.485 l -28.99,0 c -2.5,-8.496 -6,-17.492 -9.5,-26.988 -11.99,-32.989 -22.49,-58.977 -31.99,-77.469 -17.99,22.988 -44.48,56.976 -79.965,101.957 -0.5,1 -1.496,2 -1.996,2.5 l -50.98,0 c 31.488,-41.485 57.476,-73.469 77.971,-96.461 -72.975,3.5 -121.955,8.496 -147.444,14.992 l 7.496,5 c 5.5,2.5 17.493,12.496 34.989,29.988 -6.5,10.496 -47.485,18.493 -122.453,24.989 3.5,5 8.996,11.996 16.492,21.492 l -17.492,0 c -8.497,-10.996 -16.993,-22.992 -26.489,-36.485 2,-3 19.492,-6.496 51.981,-10.496 16.492,-1.5 32.484,-3 47.98,-4.5 -5.5,-8.996 -14.996,-16.492 -27.988,-22.488 -9.496,-4.5 -14.496,-10.496 -14.496,-17.492 0,-10.496 1,-15.996 2.5,-16.996 l 2.5,2 c 49.976,-3.5 105.457,-13.496 166.429,-29.489 57.485,-15.492 87.465,-22.992 90.965,-22.992 1,0 2,0 3,0 -0.5,-2.996 -0.5,-6.496 -0.5,-9.996 0,-48.98 10.5,-150.437 31.99,-304.875 l 278.89,0 c 1,2.996 1.5,5.996 1.5,8.996 -1.5,25.489 -18.5,38.485 -49.99,38.485 6.5,3.496 12,9.496 17.5,17.492 -1.5,29.988 -2.5,57.476 -3.5,82.969 l 44.48,-81.469 c 18.49,-33.488 35.49,-52.981 51.48,-58.977 13.99,12.496 22.49,27.489 25.99,44.981 1,5.5 1.5,19.492 1.5,40.984 -6,27.488 -11.5,48.981 -16.99,64.477 16.99,1.996 25.99,4.996 26.99,9.496 -14,51.476 -34.49,130.445 -61.98,236.402 z m -15.49,-271.39 -2.5,2.5 c 29.99,5.496 44.98,-7.497 44.98,-39.985 0,-9.996 -1.5,-17.492 -5,-22.492 l -9.99,0 c 2,18.492 -7,38.484 -27.49,59.977 z m -56.48,23.492 c 0,1.5 0,2.996 0,4.496 2,-1 3.5,-2 4,-2.5 -1.5,-0.496 -3,-1.496 -4,-1.996"
         inkscape:connector-curvature="0"
         id="path18"
         style="fill:#000000;fill-opacity:1;fill-rule:nonzero;stroke:none" /><path
         d="m 519.293,944.758 -17.992,0 C 481.809,787.32 447.82,629.883 399.84,473.445 c 0.5,-0.5 1,-0.996 2.5,-2.496 l 214.414,0 c 21.992,16.992 32.984,30.489 32.984,39.985 -34.984,112.453 -52.476,179.925 -52.476,202.418 0,20.492 8.496,40.484 24.988,59.976 16.496,18.992 24.992,39.984 24.992,63.473 0,15.496 -0.5,25.492 -2,29.988 -3.5,13.496 -12.996,24.492 -27.988,33.988 l -2.5,-11.496 c 0,-36.984 -7.996,-66.972 -23.492,-90.465 -15.992,-22.992 -23.989,-50.48 -23.989,-81.964 13.493,-73.473 19.993,-118.454 19.993,-134.95 0,-7.996 3.496,-17.492 9.996,-27.988 6.496,-10.496 9.996,-19.492 9.996,-27.988 0,-10.996 -17.492,-22.492 -52.981,-33.985 -40.484,-12.996 -80.965,-15.996 -121.949,-8.5 -1.5,8.5 -2.5,20.993 -2.5,37.489 0,24.988 4.996,57.476 14.992,97.461 14.496,50.476 25.492,90.461 33.989,119.949 19.492,70.972 32.988,139.945 40.484,206.418"
         inkscape:connector-curvature="0"
         id="path20"
         style="fill:#000000;fill-opacity:1;fill-rule:nonzero;stroke:none" /><path
         d="m 780.688,260.031 c -1,11.996 -2.5,22.992 -4.5,32.989 31.988,-3 110.457,-4.5 235.902,-4.5 42.49,0 80.97,5.5 114.96,16.496 1.5,-5.5 4,-11.996 7.5,-19.493 6.49,-13.496 9.99,-24.492 9.99,-32.988 0,-44.98 -1.5,-102.457 -5,-172.4295 15,-3.5 28.99,-5 42.49,-5 19.99,0 44.98,5 74.97,14.9961 -58.48,24.4884 -89.97,64.9724 -94.96,121.4494 -0.5,34.488 -1,60.976 -1.5,79.469 -0.5,9.496 -1,17.992 -1.5,26.488 12.49,6.5 24.49,13.496 35.48,20.992 33.49,23.492 52.98,47.48 58.48,72.473 78.47,18.492 122.95,38.484 132.45,59.976 l -278.89,0 c -0.5,0 -0.5,0 0,-0.5 -94.47,-19.492 -213.415,-29.488 -357.861,-29.488 -81.465,18.492 -123.949,27.488 -126.449,27.488 -4.496,0 -7.996,-0.5 -10.496,-1 1.5,1.5 3.5,2.5 5,3.5 l -214.414,0 c 1.5,-1.5 3.996,-4 6.996,-7.5 3,-2.996 7.996,-5.496 15.492,-6.996 5.5,-1 14.996,-2 27.492,-3 -1,-24.488 -5,-59.973 -12.496,-105.957 0,-20.988 40.985,-31.484 122.449,-31.484 10.497,0 15.497,0.996 15.497,2.496 l -3,2.5 0,59.976 c -4.997,4.996 -10.997,9.996 -17.493,14.993 l 22.493,-4.997 c 3.496,-2 6.996,-4 9.996,-5.5 l 0,-9.496 c 5.996,-9.496 27.988,-18.992 65.472,-28.988 7.996,-16.492 24.989,-29.488 50.981,-38.984 8.996,-57.977 18.492,-106.457 27.988,-145.442 -1.5,-0.5 -4,-1 -6.996,-2.496 18.492,-67.4763 19.988,-105.4607 3.996,-113.9568 -4.496,-2.5 -10.996,-3.9961 -20.492,-5.4961 -7.496,-2.5 -10.996,-8.9961 -10.996,-19.4922 0,-16.49609 2.5,-24.49218 7.5,-23.49218 l 84.965,0 c 50.98,16.99218 86.464,27.48828 105.957,31.48828 3.5,0.5 6.496,2.5 8.996,5.9961 C 884.645,52.6172 846.66,81.6055 792.184,121.09 l 0,1.496 c -3.5,10.496 -5.5,29.988 -6.996,58.976 -2,44.485 -3.5,70.473 -4.5,78.469 z m -128.95,121.453 c -0.5,0 -1.5,0 -2,0.5 -4.496,7.496 -8.996,14.493 -12.492,20.493 4.496,-1.5 9.496,-3 14.492,-4.5 3.5,-1 6.5,-2 9.996,-3 -4.996,-3.497 -8.496,-7.997 -9.996,-13.493 z m -78.968,47.981 c 7.5,-3.5 11.996,-7.496 14.496,-10.996 -1.5,0 -10.996,5 -27.489,14.996 1.5,1.496 5.496,0 12.993,-4 z m 29.488,21.992 c -1.996,1.996 -3.996,3.996 -5.496,5.496 2.5,1.5 4.496,3 6.996,4.5 -1,-2 -1.5,-5.5 -1.5,-9.996 z m -74.969,-0.5 c -0.5,-0.5 -0.5,-0.5 -0.5,-1 0,0.5 0,0.5 -0.5,1 0.5,0.5 0.5,0.5 1,0 z m 16.492,-93.965 c 1.5,-3.496 3.5,-6.996 6,-10.992 l -9.996,-1 c 1.5,2.496 2.496,5.496 2.996,8.496 0.5,1 0.5,2 1,3.496 z m -67.972,95.465 c -1.5,-2.5 -2.997,-5 -3.497,-8 -1.5,-5.496 -2.5,-21.988 -2.5,-49.48 0,-15.993 0.5,-28.989 2,-39.485 -6.5,5.5 -9.496,10.996 -9.496,16.996 5.496,33.985 7.496,60.477 6.496,79.969 2,0 4.5,0 6.997,0 z m 313.875,-404.8398 -19.993,-2.5 -2.5,2.5 0,19.9922 c 1.5,-2.5 3.5,-4.9961 5,-7.4961 2.5,1.5 4.497,2.9961 6.497,3.9961 3,-4.4961 6.5,-9.9961 10.996,-16.4922"
         inkscape:connector-curvature="0"
         id="path22"
         style="fill:#000000;fill-opacity:1;fill-rule:nonzero;stroke:none" /><path
         d="m 1012.09,625.887 c -24.985,0 -37.481,-13.496 -37.481,-39.985 0,-23.492 12.496,-34.988 37.481,-34.988 9.5,0 18,3.5 25.5,9.996 7.99,7.5 11.99,15.996 11.99,25.992 0,25.989 -12.49,38.985 -37.49,38.985"
         inkscape:connector-curvature="0"
         id="path24"
         style="fill:#000000;fill-opacity:1;fill-rule:nonzero;stroke:none" /><path
         d="m 992.102,753.336 c -23.489,0 -34.985,-11.496 -34.985,-34.988 1.5,-9.996 2.5,-17.493 2.5,-22.489 4.996,-2.5 8.996,-5.5 12.492,-8.996 3.5,-2.5 9.996,-3.5 19.993,-3.5 12.498,0 21.988,4.496 27.488,12.996 3,4.996 7,12.493 12.5,21.989 -19.5,23.492 -32.488,34.988 -39.988,34.988"
         inkscape:connector-curvature="0"
         id="path26"
         style="fill:#000000;fill-opacity:1;fill-rule:nonzero;stroke:none" /><path
         d="m 652.238,673.367 c -3.496,-1.5 -4.996,-4 -4.996,-7.496 59.977,-35.488 104.957,-61.976 134.946,-78.469 52.976,-30.488 101.457,-47.48 144.941,-51.48 -41.484,18.992 -91.965,43.984 -151.438,75.469 -55.48,29.488 -96.464,50.48 -123.453,61.976"
         inkscape:connector-curvature="0"
         id="path28"
         style="fill:#000000;fill-opacity:1;fill-rule:nonzero;stroke:none" /></g></g></svg>