<?xml version="1.0" encoding="UTF-8" standalone="no"?>
<!-- Created with Inkscape (http://www.inkscape.org/) -->

<svg
   xmlns:dc="http://purl.org/dc/elements/1.1/"
   xmlns:cc="http://creativecommons.org/ns#"
   xmlns:rdf="http://www.w3.org/1999/02/22-rdf-syntax-ns#"
   xmlns:svg="http://www.w3.org/2000/svg"
   xmlns="http://www.w3.org/2000/svg"
   xmlns:inkscape="http://www.inkscape.org/namespaces/inkscape"
   version="1.1"
   width="305"
   height="306.25"
   id="svg2"
   xml:space="preserve"><metadata
     id="metadata8"><rdf:RDF><cc:Work
         rdf:about=""><dc:format>image/svg+xml</dc:format><dc:type
           rdf:resource="http://purl.org/dc/dcmitype/StillImage" /></cc:Work></rdf:RDF></metadata><defs
     id="defs6" /><g
     transform="matrix(1.25,0,0,-1.25,0,306.25)"
     id="g10"><g
       transform="scale(0.1,0.1)"
       id="g12"><path
         d="m 1459.42,2450 c -283.39,0 -515.799,-66.47 -697.725,-199.92 -79.968,-58.48 -141.941,-125.95 -185.425,-201.42 -42.485,-73.97 -63.973,-149.44 -63.973,-225.91 0,-195.42 27.488,-357.86 81.965,-487.8 81.468,-193.43 214.914,-316.88 401.34,-370.856 -18.493,-10.496 -43.981,-25.989 -76.969,-46.481 0.5,8.496 1,15.492 1,21.492 0,16.493 -1,20.493 -2.5,11.497 -29.488,-51.481 -57.977,-126.95 -86.465,-226.911 -23.992,-84.964 -35.984,-138.445 -35.984,-160.437 0,-9.496 0.996,-15.492 2.496,-17.992 1.5,-2 2.5,-3.5 2.5,-4.496 14.496,0 28.488,0 41.484,0 -18.992,-8.996 -30.988,-21.493 -35.984,-37.989 -1.5,-5.496 -2.5,-22.988 -3,-53.476 -3.5,-14.496 -5,-27.989 -5,-39.985 0,-32.488 10.996,-51.48 33.488,-56.976 6.496,-2.5 13.992,-4 22.492,-4 10.496,0 18.992,1 26.488,3.5 l 7.497,4 c -0.5,8.496 2,40.48 8.496,96.961 0.5,0.996 0.5,1.996 1,2.496 5,9.496 8.996,17.496 11.996,23.992 14.492,-42.984 22.992,-68.473 25.988,-75.969 l 17.492,9.996 2.5,10.996 c 0,7.497 -5.996,26.489 -17.492,55.977 -10.496,26.988 -19.992,47.481 -28.488,61.473 16.992,0.5 30.988,1.5 42.484,2.5 l 23.488,4 c -0.5,3 -9.496,60.476 -27.488,172.429 l -7.496,0 c -3.5,-38.484 -5,-65.972 -5,-82.464 6.5,-34.989 9.996,-59.977 9.996,-74.973 l -122.449,-2.496 c 14.992,25.488 34.984,86.965 59.976,184.426 19.493,75.468 31.485,130.945 35.985,166.933 12.496,3.496 30.488,12.492 54.476,25.988 14.996,8.497 26.993,15.993 35.991,22.493 30.49,-8 62.47,-14.496 95.96,-18.993 24.49,-29.488 54.98,-71.972 92.46,-128.449 -11.49,-6.5 -28.99,-15.996 -52.98,-27.492 -13.49,-6.496 -17.49,-9.496 -11.99,-9.992 37.98,-10.496 64.47,-30.988 79.47,-60.977 8.49,-17.492 14.49,-27.988 17.49,-32.488 5,-6.496 11.49,-12.496 19.49,-16.992 -1,-3.5 -1.5,-6.496 -1.5,-8.496 0,-9.996 1.5,-14.996 4,-15.496 5,1.5 9.5,1 13.49,-0.5 6,4.5 12.5,10.496 19.99,16.996 32.49,29.488 78.97,78.469 140.45,145.941 83.96,92.461 126.95,149.938 129.45,172.43 146.44,44.98 260.89,124.95 344.36,239.4 48.48,65.98 83.97,140.95 106.46,224.91 15.99,59.48 23.99,115.96 23.99,168.44 0,16.49 4,108.95 12.49,277.39 0,112.45 -27.48,215.91 -82.97,311.37 -97.96,168.44 -264.39,252.4 -499.29,252.4 z m 67.97,-637.25 c 23.49,56.48 59.47,84.97 106.96,84.97 52.97,0 88.96,-27.99 107.45,-84.47 8.5,-25.98 12.5,-58.47 12.5,-97.96 0,-40.98 -3.5,-70.97 -10,-89.96 -18.49,-51.48 -58.48,-77.47 -119.95,-77.47 -50.48,0 -85.47,25.99 -104.96,77.47 -10,26.49 -14.99,54.98 -14.99,85.97 0,31.48 7.49,65.47 22.99,101.45 z m -367.85,74.98 c 49.48,0 83.46,-26 101.96,-77.47 8.49,-24.49 12.99,-53.48 12.99,-86.47 0,-41.98 -6,-77.97 -17.49,-108.46 -22.49,-58.47 -62.98,-87.46 -122.45,-87.46 -44.99,0 -78.47,23.49 -100.46,69.97 -11,23.49 -17.5,48.48 -19.5,74.97 0,39.99 8,79.97 24.5,119.95 25.98,63.48 65.97,94.97 120.45,94.97 z M 896.141,541.766 l -1.5,-1 c -0.5,0.5 -0.5,0.5 -1,1 0.5,0 1.5,0 2.5,0 z M 1500.4,961.594 c -9.5,-12.492 -24.49,-28.989 -44.48,-48.981 -26.49,-26.488 -46.98,-43.48 -61.48,-51.976 1,-1 6,-1.5 15.5,-2 6.49,-0.5 9.49,-5.996 9.49,-15.492 0,-32.989 -34.98,-68.973 -104.96,-107.457 l 0,2.496 c 10.5,21.492 24.99,55.98 42.99,103.961 19.49,53.476 29.49,86.464 29.49,99.46 39.48,4.497 77.46,11.493 113.45,19.989 z M 1260,897.121 c -1.5,12.996 -2.5,24.992 -4,35.984 35.98,0.5 70.97,2.5 104.46,5.5 -14,-29.488 -32.99,-72.472 -56.98,-128.949 -15.5,-36.984 -27.99,-67.472 -36.99,-90.965 2,21.993 3,40.985 3,56.981 0,18.492 -3,58.973 -9.49,121.449 z m -91.47,1.5 c -14.99,15.492 -27.99,28.488 -39.48,39.984 32.49,-3.5 65.97,-5.5 100.46,-5.5 l 0,-104.957 c -11,15.997 -31.49,39.485 -60.98,70.473 z m 58.98,-108.957 c 0.5,0.5 1.5,0.5 2,1 l 0,-2.5 c 2.5,-5.496 6.99,-27.488 13.49,-65.973 -12.99,16.493 -28.48,33.489 -45.98,50.981 5,3.996 15,9.496 30.49,16.492"
         inkscape:connector-curvature="0"
         id="path14"
         style="fill:#000000;fill-opacity:1;fill-rule:nonzero;stroke:none" /><path
         d="m 1646.84,1003.08 c -5,0 -8.5,-1 -10,-2.5 61.48,-120.451 141.45,-228.908 239.91,-324.869 -3,-1.5 -17,-10.996 -41.48,-27.988 -18.5,-11.496 -33.49,-18.993 -44.98,-22.493 -0.5,0.5 -1.5,1 -2,1.5 -0.5,0.5 -0.5,-0.5 -1,-2.5 -3.5,-0.5 -7,-1 -9.5,-1 -11.5,0 -36.49,19.993 -73.97,60.477 -21.49,23.492 -38.49,40.984 -49.98,52.481 -5.5,10.992 -14.5,29.488 -26.49,55.976 -22.99,37.484 -48.98,55.977 -77.97,55.977 -12.49,0 -22.49,-2.5 -29.99,-7.496 21.99,-26.989 59.48,-58.977 112.96,-96.461 1,-1.5 2,-3 3.49,-4.5 -25.48,-12.496 -38.98,-33.485 -40.98,-61.973 0.5,-6.5 1,-12.496 1.5,-17.996 -25.49,-19.492 -65.47,-52.477 -119.45,-98.957 26.49,-2.5 56.98,13.492 91.46,46.98 11,10.496 20.99,20.992 29.49,31.485 1,-17.493 1.5,-31.985 1.5,-43.481 l 10,2.5 c 0,8.496 0.5,16.992 1.5,25.988 14.49,-48.48 27.48,-89.464 39.98,-123.449 l 34.98,0 c -4.49,9.496 -9.49,19.992 -13.99,30.489 -13.99,31.984 -31.99,76.968 -53.48,135.445 3,4.496 6,9.496 8.5,13.992 -2,-1 -4.5,-2.5 -8,-4.496 4.5,19.492 10,40.484 17.49,62.473 69.98,-91.961 115.46,-137.946 136.45,-137.946 2,0 6.5,1.5 14,4.5 0,-6.496 0.5,-12.996 1,-18.992 -2.5,-3 -3.5,-5.5 -3.5,-7.996 0,-10.496 1,-15.996 2.5,-16.996 l 2.5,2 0.5,0 c 3.99,-27.488 11.49,-48.481 22.48,-62.473 l 4.5,0 c 3.5,3.496 6,4.996 7.5,4.996 0,23.993 0.5,43.485 1.5,57.977 6,0 11.5,-0.5 16.99,-1 4.5,-11.492 9.5,-24.988 15.5,-40.981 2.49,-7.5 5.49,-14.496 7.99,-20.992 l 48.98,0 c 5.5,6.996 11,14.992 17,23.989 15.49,22.992 26.98,43.484 34.48,60.976 -3.5,2.5 -10.49,7.496 -21.99,14.992 -2.5,4.5 -6.5,9.996 -10.99,15.496 -14.5,17.993 -30.99,26.989 -49.48,26.989 -3.5,-1.5 -6.5,-3 -9,-4.496 -4,1.496 -8,2.496 -11.5,2.996 26.99,13.996 40.49,22.992 40.49,26.492 0,0.996 -33.49,41.98 -100.96,122.449 -74.47,90.965 -126.45,161.934 -156.44,212.416 z m 165.43,-386.846 c 8,3.996 17.5,8.496 27.99,13.493 1.5,-1.497 3.5,-3.497 5.5,-4.997 -9.49,-4.5 -17.49,-8.996 -24.99,-13.496 -2.5,2 -5.5,3.5 -8.5,5 z m 86.47,-73.972 c 3.5,-1.496 6.5,-2.996 9.5,-3.996 -3.5,-5.5 -7.5,-9.996 -11,-14.496 l 1.5,18.492"
         inkscape:connector-curvature="0"
         id="path16"
         style="fill:#000000;fill-opacity:1;fill-rule:nonzero;stroke:none" /><path
         d="m 997.102,603.238 -9.997,0 c -5,-34.984 -8.996,-68.972 -11.496,-102.457 l 19.993,0 c 0.5,9.496 1,21.489 2,35.985 1.5,29.488 1.5,51.48 -0.5,66.472"
         inkscape:connector-curvature="0"
         id="path18"
         style="fill:#000000;fill-opacity:1;fill-rule:nonzero;stroke:none" /><path
         d="m 1253.5,500.781 c -0.5,-1.5 -0.5,-2.5 -0.5,-4 -1.5,-18.492 -2.5,-45.48 -3,-80.969 l -135.45,0 c -13.49,-4.996 -52.48,-8.996 -117.448,-12.492 0,18.492 -1,43.481 -2.5,75.969 0,4.496 0.5,11.496 1,21.492 l -19.993,0 c -2.5,-31.488 -3.5,-61.976 -3.5,-92.465 -1.996,-8.996 -2.996,-14.992 -3.496,-18.492 -1,-5.496 1.5,-8.996 7.996,-11.496 10.496,-3.496 42.481,-5.996 95.961,-6.996 -0.5,-1 -0.5,-2 -0.5,-3 0,-19.492 0,-29.988 0.5,-31.488 3,-14.492 12,-26.489 26.99,-36.485 21.49,-13.992 56.48,-24.488 104.96,-31.488 -0.5,-0.5 -0.5,-1.496 -0.5,-1.996 2.5,0 5.5,0 8,-0.5 -8.5,-49.98 -11,-110.957 -7.5,-182.9297 -46.98,8.5 -75.47,11.9961 -84.97,9.9961 -3.5,-9.9961 -5,-17.4922 -5,-22.4883 0,-14.9961 14,-30.9883 41.99,-47.4804 27.99,-16.49614 53.98,-24.99223 77.97,-24.99223 10.99,0 20.99,42.48433 29.98,127.94953 6.5,65.472 10,109.957 10,134.445 0,0.5 0,0.5 0,1 33.99,-2.5 72.47,-3.496 114.96,-3.496 17.99,0 34.98,0 51.47,0.496 2,-4.496 4.5,-8.996 7,-13.492 8.5,2 16.99,3.996 26.49,5.996 24.99,5.5 46.98,10.496 65.47,13.996 l -0.5,0 c 2,0.5 4,0.5 6,1 6.5,1 12.5,1.996 18,2.496 7.49,-13.492 16.99,-29.984 28.48,-48.98 31.49,-51.477 47.48,-77.469 47.48,-77.969 0,-7.996 -16.49,-23.488 -49.98,-45.9806 23.5,-9.9961 43.49,-14.9922 59.98,-14.9922 21.99,0 39.48,9.9961 52.48,30.4888 10,15.492 14.99,29.988 14.99,44.48 0,5.996 -23.99,40.984 -72.47,104.957 -7.5,10.496 -14.49,19.492 -20.99,27.988 3.5,2.5 6.5,5.5 9,8.5 3.49,1.996 6.49,3.996 9.49,5.996 23.49,15.493 34.99,32.489 34.99,49.981 0,6.996 -1.5,12.496 -4,16.492 39.99,9.496 66.47,18.992 78.97,28.488 -23.49,24.492 -45.48,58.477 -65.98,102.461 l -34.98,0 c 13,-35.488 24.99,-62.976 35.98,-82.469 -58.47,-11.996 -122.44,-18.992 -192.42,-20.992 -57.97,-2 -121.45,-11.992 -190.42,-29.988 -2.5,0.5 -4.5,1 -7,1 0,3.5 0,7 0,10.496 23.49,4 34.99,9.496 34.99,16.992 0,16.496 -1.5,23.492 -5,19.992 l -29.99,0 c -0.5,30.489 -1,58.477 -1.5,84.969 l -41.98,0 z m -123.95,-184.926 0,2.497 c -1.5,3.5 -2.5,6 -2.5,7.5 14.99,0 24.99,-2.5 29.99,-7.5 l -27.49,-2.497"
         inkscape:connector-curvature="0"
         id="path20"
         style="fill:#000000;fill-opacity:1;fill-rule:nonzero;stroke:none" /><path
         d="m 1253.5,500.781 41.98,0 c -2.5,64.473 -6,116.953 -11,156.938 C 1268.49,609.238 1258,556.758 1253.5,500.781"
         inkscape:connector-curvature="0"
         id="path22"
         style="fill:#000000;fill-opacity:1;fill-rule:nonzero;stroke:none" /><path
         d="m 1884.25,468.293 c 9.49,6.996 19.49,17.992 30.98,32.488 l -48.98,0 c 7,-16.496 13,-27.492 18,-32.488"
         inkscape:connector-curvature="0"
         id="path24"
         style="fill:#000000;fill-opacity:1;fill-rule:nonzero;stroke:none" /><path
         d="m 1816.77,500.781 -4.5,0 c 0.5,-1 1.5,-2 2,-2.5 1,1 2,2 2.5,2.5"
         inkscape:connector-curvature="0"
         id="path26"
         style="fill:#000000;fill-opacity:1;fill-rule:nonzero;stroke:none" /><path
         d="m 37.4844,2340.04 -7.4961,0 0,-2.49 c 38.9844,-58.98 69.9726,-103.46 92.9607,-133.95 40.485,-53.48 86.469,-92.96 136.946,-118.46 -26.489,33.49 -69.969,85.47 -131.446,154.94 -58.4763,66.48 -88.9646,99.96 -90.9646,99.96"
         inkscape:connector-curvature="0"
         id="path28"
         style="fill:#000000;fill-opacity:1;fill-rule:nonzero;stroke:none" /><path
         d="m 154.938,1952.7 c -30.489,-8.5 -60.9771,-12.5 -91.4653,-12 -17.4922,0.5 -38.4844,-7.99 -63.4727,-25.49 37.9844,4.5 77.4688,11 118.953,19.5 l 50.981,10.49 c -1.5,3.5 -6.5,6 -14.996,7.5"
         inkscape:connector-curvature="0"
         id="path30"
         style="fill:#000000;fill-opacity:1;fill-rule:nonzero;stroke:none" /><path
         d="m 1007.1,610.734 c -1.5,0 -4,-0.996 -7.498,-2.496 24.488,-49.48 71.468,-83.468 139.938,-102.461 -57.47,28.489 -101.45,63.477 -132.44,104.957"
         inkscape:connector-curvature="0"
         id="path32"
         style="fill:#000000;fill-opacity:1;fill-rule:nonzero;stroke:none" /><path
         d="m 1212.52,626.23 c -2.5,2 -5.5,3.497 -8,4.497 -3.5,-1 -8.5,-1.997 -15,-2.497 -4.99,-2 -7.49,-8.496 -7.49,-18.992 0,-10.496 2,-16.996 5.49,-19.492 6.5,-1 12,-2.5 17,-4 l 14.99,4.996 c 1.5,3.5 4,9.996 7.5,19.992 -2,3 -4,5.5 -6,8 6.5,2.496 11,5.496 13.5,9.496 -7.5,5.497 -14.5,4.497 -21.99,-2"
         inkscape:connector-curvature="0"
         id="path34"
         style="fill:#000000;fill-opacity:1;fill-rule:nonzero;stroke:none" /><path
         d="m 1197.02,540.766 c -0.5,0 -3.5,0 -8.5,0.5 -4.49,-1.5 -6.49,-7.5 -6.49,-17.996 0,-10.497 1,-15.993 2.5,-16.993 l 2.49,2 22.5,9.996 c -0.5,1.5 -1,3 -1.5,4.497 0.5,0 1,0 1.5,0 7.49,0 12.49,2 14.99,5.5 -9.99,4.996 -17.49,6.996 -22.49,5.996 -1.5,2.5 -3.5,5 -5,6.5"
         inkscape:connector-curvature="0"
         id="path36"
         style="fill:#000000;fill-opacity:1;fill-rule:nonzero;stroke:none" /><path
         d="m 2305.08,2110.14 -7.5,0 0,-2.5 c 7.5,-15.5 31.99,-29.99 73.47,-42.49 39.49,-11.99 64.97,-15.49 76.47,-9.99 -3.5,1.5 -27.99,12.49 -72.47,33.98 -29.49,14 -52.48,21 -69.97,21"
         inkscape:connector-curvature="0"
         id="path38"
         style="fill:#000000;fill-opacity:1;fill-rule:nonzero;stroke:none" /><path
         d="m 2262.59,2277.57 20,-10 c 26.98,6 50.48,23.49 70.47,51.98 27.49,39.99 41.48,59.98 41.98,60.48 -5,-2.5 -20.49,-17.99 -46.48,-45.48 -29.99,-28.99 -58.48,-47.98 -85.97,-56.98"
         inkscape:connector-curvature="0"
         id="path40"
         style="fill:#000000;fill-opacity:1;fill-rule:nonzero;stroke:none" /></g></g></svg>