<?xml version="1.0" encoding="UTF-8" standalone="no"?>
<!-- Created with Inkscape (http://www.inkscape.org/) -->

<svg
   xmlns:dc="http://purl.org/dc/elements/1.1/"
   xmlns:cc="http://creativecommons.org/ns#"
   xmlns:rdf="http://www.w3.org/1999/02/22-rdf-syntax-ns#"
   xmlns:svg="http://www.w3.org/2000/svg"
   xmlns="http://www.w3.org/2000/svg"
   xmlns:inkscape="http://www.inkscape.org/namespaces/inkscape"
   version="1.1"
   width="201.25"
   height="308.75"
   id="svg2"
   xml:space="preserve"><metadata
     id="metadata8"><rdf:RDF><cc:Work
         rdf:about=""><dc:format>image/svg+xml</dc:format><dc:type
           rdf:resource="http://purl.org/dc/dcmitype/StillImage" /></cc:Work></rdf:RDF></metadata><defs
     id="defs6" /><g
     transform="matrix(1.25,0,0,-1.25,0,308.75)"
     id="g10"><g
       transform="scale(0.1,0.1)"
       id="g12"><path
         d="m 1591.8,1877.74 c -22.49,90.96 -53.48,174.43 -92.46,249.9 C 1382.38,2356.05 1218.45,2470 1007.03,2470 620.188,2470 340.301,2351.05 167.867,2112.64 107.895,2030.18 63.9102,1937.21 36.4219,1833.75 17.9297,1766.28 8.43359,1703.31 7.43359,1645.83 l 650.73841,0 c -13.492,23.49 -23.988,54.48 -30.988,92.96 0,27.99 7,51.98 20.492,71.48 17.992,26.48 45.984,39.98 84.469,39.98 48.48,0 81.964,-23.49 100.457,-69.97 9.496,-23.49 14.496,-49.98 14.496,-78.97 0,-20.49 -3.5,-38.99 -10.496,-55.48 l 293.378,0 c -8.49,9.49 -16.49,20.99 -22.99,34.49 -11.49,23.49 -18.49,48.48 -19.99,74.97 0,29.48 6,56.97 17.99,82.96 18.99,41.48 49.48,61.98 91.97,61.98 50.48,0 85.46,-25.49 104.95,-76.97 6.5,-16.49 10.5,-34.99 13,-54.98 1.5,-9.99 2,-19.49 2,-27.99 0,-41.48 -7.5,-72.97 -22.49,-94.46 l 319.87,0 c 1.5,28.49 2.5,57.98 2.5,87.96 0,29.49 -8.5,77.47 -24.99,143.95"
         inkscape:connector-curvature="0"
         id="path14"
         style="fill:#000000;fill-opacity:1;fill-rule:nonzero;stroke:none" /><path
         d="m 1216.95,1610.34 c -35.99,0 -64.97,12 -86.97,35.49 l -293.378,0 c -1.5,-2.5 -2.5,-5.5 -4,-8 -16.493,-31.49 -44.981,-47.48 -85.465,-47.48 -37.485,0 -67.473,18.49 -88.965,55.48 l -650.73841,0 c 0,-3 0,-6 0,-9.5 0,-98.95 6.49611,-166.43 18.99221,-202.42 11.4961,-33.48 56.9765,-114.45 135.9452,-243.4 36.484,-59.47 120.453,-115.45 252.399,-168.93 -11.997,-30.486 -39.985,-96.963 -83.465,-199.42 l 29.988,0 c 21.988,52.477 48.48,115.953 79.965,189.42 16.496,-6.49 34.488,-12.99 52.98,-19.49 49.481,-17.492 96.461,-31.985 141.942,-43.981 -2.496,-16.992 -8.496,-34.488 -18.992,-52.98 -13.493,-23.988 -19.993,-36.484 -19.993,-36.984 0,-16.493 1.5,-21.493 5,-14.993 80.469,-9.496 124.95,-14.496 132.446,-14.996 l 0,-2.5 c -0.5,-0.996 -0.5,-1.996 -1,-3.496 l 46.984,0 c 2.996,3.496 5.996,7.496 8.996,10.996 -13.996,13.992 -26.492,21.989 -36.984,23.989 -6.5,1 -15.996,-0.5 -28.492,-4.497 -27.489,-9.496 -57.477,-5 -89.461,12.993 14.492,32.488 21.988,58.476 22.488,76.968 25.492,-6.496 50.48,-11.992 74.973,-16.992 11.492,-14.492 24.988,-30.988 39.984,-49.48 15.492,-19.492 30.984,-37.485 45.48,-53.977 l 32.985,0 c -11.492,12.496 -23.489,24.988 -36.485,38.485 -21.492,22.492 -40.484,42.484 -57.476,60.476 59.476,-10.496 114.453,-15.496 165.433,-15.496 4.5,0 8.496,0 12.496,0 -1.5,-5.496 -3.5,-11.496 -5,-17.492 -7.496,-24.488 -13.492,-46.481 -17.992,-65.973 l 37.985,0 c 0.5,2.5 1.5,4.496 2,6.496 12.996,36.985 20.992,62.977 23.992,78.469 16.492,1 32.483,2.5 47.983,4 -4.5,-11.996 -6.5,-21.992 -6.5,-29.488 0,-9.996 1,-15.496 3,-15.996 4.5,-1 6.49,-1.996 6.99,-2.496 -19.99,-2.5 -29.985,-8.5 -29.985,-17.497 9.995,-4.996 17.495,-9.996 22.495,-14.992 -4.5,-2.5 -8.5,-5.5 -13,-8.496 l 44.49,0 15.99,13.492 c 0,8.5 -4,15.996 -12.49,22.493 -8.5,6.496 -12.5,13.996 -12.5,22.492 0,7.496 3,18.992 8.5,33.984 10.49,1.5 21.49,3.5 31.98,5 -3.5,-12.996 -5.5,-28.988 -5.5,-47.98 1.5,-14.996 2.5,-29.989 4,-44.985 -2,-1 -3.5,-1.996 -4,-3.496 0,-0.5 0,-0.5 0,-1 l 27,0 c -3,25.488 -6,51.481 -9.5,78.469 0,6.996 0.5,13.992 1,21.492 5.5,1.496 11.49,2.496 17.49,3.996 -2.5,-6.496 -3.5,-14.992 -3.5,-24.488 -2,-10.996 -1,-20.992 3,-30.488 7.5,-18.493 26.49,-27.989 56.98,-27.989 34.48,0 64.47,15.993 90.96,47.481 13.5,15.992 24.49,33.484 33.99,52.476 2.5,-12.492 11.49,-42.48 26.99,-90.461 3.5,-10.496 6.5,-20.992 8.99,-30.488 l 16.5,0 -2.5,7.496 c 7.49,-3 16.99,-5.496 28.49,-7.496 l 115.45,0 c 2.5,2.5 5,4.996 8.5,8.496 9.99,10.496 14.99,17.992 14.99,22.492 0,8.497 3,16.493 9,23.989 5.49,7.996 8.49,15.996 8.49,24.492 0,10.496 -0.5,15.492 -1,15.992 -1.5,-0.5 -4,0.5 -6.49,3 l -89.97,-5 2.5,5 c 0,1 3.5,4.496 10,9.996 6.5,5.996 10,13.992 10,23.488 0,16.497 -1.5,20.493 -5,11.497 -63.48,-40.485 -102.96,-70.473 -118.96,-88.965 -8.99,30.988 -13.49,50.48 -13.49,58.976 0,8.496 3.5,11.996 10,10.496 6.49,-1.5 9.99,2 9.99,10.496 0,10.497 -2.5,15.493 -7,15.493 -10.49,-1.996 -21.49,-2.496 -32.98,-1.496 -6.5,-2 -23.99,-20.493 -51.98,-55.981 -25.49,-32.484 -47.48,-48.98 -65.48,-48.98 -41.48,0 -62.47,8.496 -62.97,24.992 0,1.5 1,9.496 3,22.988 1,5.5 1,9.996 0.5,13.996 188.42,45.981 324.87,163.433 409.33,352.863 48.48,107.45 76.47,228.9 84.97,365.35 l -319.87,0 c -16.49,-23.49 -42.49,-35.49 -77.47,-35.49"
         inkscape:connector-curvature="0"
         id="path16"
         style="fill:#000000;fill-opacity:1;fill-rule:nonzero;stroke:none" /><path
         d="m 467.25,713.203 0,-0.5 c -9.496,7.496 -26.988,15.992 -52.48,24.988 -29.489,10.497 -49.981,15.497 -62.473,15.497 -10.496,0 -16.996,-1.5 -18.496,-4.5 -0.996,-1.997 -1.496,-5.497 -1.496,-10.497 4.996,0 23.988,-5.996 56.476,-17.492 32.485,-11.496 55.477,-17.492 68.473,-17.492 4.496,0 7.996,0 10.496,0.5 0,-1 0,-2 0,-3 -7.5,-1 -16.496,-2 -25.992,-2.496 -28.488,-2.5 -53.477,-14.996 -74.469,-37.488 l 4.996,-7.496 c 8,0 13.996,2 17.996,5.996 3.996,5.5 7.996,9.5 12.492,12.496 11.497,7.996 34.489,11.996 68.973,12.496 0,-0.5 0,-0.5 0.5,-1 l 9.996,0 0.5,1 c 10.496,0 21.992,-0.5 34.488,-1 5.997,-25.988 10.997,-78.969 14.493,-158.938 -1.5,0.5 -3,1 -4.496,1.5 -1.5,-1 -3,-3 -3.5,-5.996 -33.489,8.496 -73.969,20.992 -120.954,37.485 -81.964,28.488 -122.949,51.48 -122.949,68.472 0,2 26.988,67.473 81.469,196.422 l -29.988,0 c -1.5,-3.5 -3,-6.5 -4.5,-9.996 -47.981,-111.457 -71.969,-173.43 -71.969,-186.426 0,-18.492 28.488,-43.484 85.465,-74.968 63.472,-34.989 125.449,-52.481 186.926,-52.481 5.996,0 11.492,0.5 15.992,1 9.996,-6.496 12.996,-15.496 8.996,-25.988 0,-16.496 -3.5,-31.489 -9.996,-44.985 l 14.996,-2.5 c 8.496,8.5 13.492,14.996 14.992,19.993 0,21.992 -0.5,37.488 -1.5,45.984 -0.5,5.496 -2.5,10.496 -6.996,14.992 1.5,1.5 2.5,2.5 3.5,4 -3.5,0.5 -6.5,1 -9.5,1.5 -2.496,1.496 -4.496,2.996 -6.996,4.496 -3.996,17.492 -5.496,49.481 -3.996,95.961 1,41.485 -8.996,73.473 -29.489,95.461 -4.5,-1.496 -15.496,-3.496 -31.988,-5.496 l 14.492,100.461 c -9.996,-5.5 -17.992,-19.992 -24.488,-42.484 -5.5,-18.493 -7.996,-33.985 -7.996,-47.481"
         inkscape:connector-curvature="0"
         id="path18"
         style="fill:#000000;fill-opacity:1;fill-rule:nonzero;stroke:none" /><path
         d="m 780.625,822.16 -46.984,0 c -8.496,-25.492 -9.996,-55.976 -3.996,-91.465 62.472,6.5 108.457,3.5 138.945,-9.496 5.496,-2.5 12.992,-6.496 21.488,-10.996 -3.496,-39.484 -5.496,-78.969 -5.496,-117.953 0,-33.484 6.496,-93.461 19.492,-180.426 6.496,-41.484 10.996,-77.969 14.496,-108.457 -13.996,2 -59.976,8.996 -138.445,20.492 -74.473,11.496 -161.937,16.993 -262.895,16.993 -10.496,0 -16.996,-0.5 -19.492,-1 4.996,40.484 2.496,91.964 -8,153.441 l -7.496,0 c 0,-14.496 -7.496,-44.984 -22.488,-92.465 -14.996,-47.48 -22.492,-77.469 -22.492,-89.965 0,-16.492 2.5,-23.488 7.496,-19.992 l 52.48,0 c 35.485,6.5 68.473,11.496 99.457,14.496 l -1.996,-15.496 c 8.496,-14.492 25.989,-27.988 52.977,-41.48 1.5,-1 3.5,-2 5,-2.5 -0.5,-3 -0.5,-6.496 -0.5,-9.996 0,-14.997 5.496,-42.485 16.492,-82.969 10.496,-39.985 15.992,-67.4729 15.992,-81.9651 0,-2.5 0,-7 -0.496,-12.4961 -11.996,-0.5 -19.492,-1 -21.992,-2.5 l -2.5,-15.9921 c 0,-16.4922 1.5,-21.9922 5,-16.4922 5.496,-0.5 10.492,-1 15.492,-1.5 -1,-6.9961 -2,-14.99612 -3,-23.49222 4,8.4961 7.496,15.99612 10.996,22.99222 66.473,-5.5 104.457,-8.9961 113.953,-10.4961 -27.988,21.4922 -42.48,31.9883 -43.48,32.4883 -14.496,8.4961 -32.488,12.9921 -53.981,14.4921 5,12.4961 7.5,20.9922 7.5,24.4922 0,52.477 -8,101.957 -23.492,149.438 47.481,-15.493 106.957,-23.489 178.43,-23.489 17.492,0.5 33.484,1.5 48.98,3.496 9.496,-62.472 14.992,-112.9528 15.992,-152.4372 -3.5,-0.5 -8.496,-1 -14.992,-1 l -2.5,-15.9921 c 0,-16.4961 2.5,-24.4922 7.496,-23.9922 l 44.985,0 c 13.992,-0.5 32.484,9.4961 54.979,29.9883 -10,6.496 -15,11.496 -15,14.996 l -58.975,0 c 3.5,7.9961 6.5,17.4922 9,28.9883 3.496,15.4919 4.996,25.4879 4.996,30.9849 -2.5,19.992 -5.996,39.984 -9.996,59.976 -2.5,13.496 -4.996,24.992 -7.496,33.988 35.484,8.496 63.971,22.989 84.961,43.481 -2.5,8.496 -5.99,15.996 -9.99,21.492 13.49,9.496 28.49,19.992 45.48,31.488 39.98,26.989 69.97,47.481 89.46,60.977 8.5,-20.992 16.5,-31.488 24.99,-31.488 8.5,0 16,1.5 22.49,4.996 -29.98,55.48 -59.97,192.925 -89.46,412.336 15.49,-19.993 26.99,-29.989 34.49,-29.989 4,0 7.49,0 10.49,0.5 38.99,-15.492 68.98,-22.992 89.47,-22.992 33.98,0 62.97,4 87.46,12.496 23.49,7.996 34.99,16.992 34.99,27.489 l -22.49,73.972 -16.5,0 c 6,-22.992 9,-42.484 9,-58.976 0,-6 -21.99,-8.996 -66.47,-9.496 -47.48,-0.5 -83.97,-6 -110.46,-15.997 0,0.5 0,0.5 -0.5,0.5 l -56.48,72.473 c -0.5,4 -1,7.996 -1.49,11.496 l -27,0 c 0.5,-4.5 2.5,-10.996 6.5,-18.992 6.5,-65.973 14,-131.449 22.99,-196.922 15,-107.457 29.99,-182.426 44.99,-223.91 -21.5,-9.496 -52.98,-24.492 -94.47,-45.981 -29.49,-14.996 -52.97,-26.992 -70.467,-35.988 -1.5,0.5 -3,0.5 -4.5,0.5 -11.496,-1.5 -21.992,-2.996 -30.988,-4.496 -12.993,135.945 -28.989,271.891 -47.481,407.336 10.496,-3.5 21.492,-5.496 33.488,-5.496 9.997,0 14.993,1.496 14.493,4.496 -2,4.5 -2.5,7.996 -2,10.496 -3.996,4.5 -8.496,9.996 -12.993,15.492 56.477,46.485 94.958,77.469 114.458,93.465 l -44.49,0 c -20.487,-13.496 -39.479,-29.488 -55.975,-47.98 -9.996,-11.996 -18.993,-22.492 -26.489,-31.489 -2,2 -4,4 -5.496,5.997 8.496,15.496 18.992,39.984 30.985,73.472 l -37.985,0 c -5.496,-20.992 -8.996,-38.484 -11.496,-52.98 -14.492,15.496 -30.984,33.488 -49.48,52.98 l -32.985,0 c 26.989,-29.988 51.981,-54.48 74.469,-73.972 l -12.492,-2.497 c -13.496,8.997 -56.981,16.493 -129.949,22.489 0,12.496 6.496,25.992 18.992,40.484 3.996,4.5 7.996,8.996 11.996,13.496"
         inkscape:connector-curvature="0"
         id="path20"
         style="fill:#000000;fill-opacity:1;fill-rule:nonzero;stroke:none" /><path
         d="m 1476.84,815.66 c 2.5,0 6,2 11.5,6.5 l -115.45,0 c 25.49,-4.5 59.97,-6.5 103.95,-6.5"
         inkscape:connector-curvature="0"
         id="path22"
         style="fill:#000000;fill-opacity:1;fill-rule:nonzero;stroke:none" /><path
         d="m 1039.02,469.801 c -7,-14.496 -12.5,-24.992 -16.99,-31.489 l 14.99,-2.5 c 15.5,18.993 25.99,37.985 32.49,57.477 -12.5,-3.496 -22.49,-11.492 -30.49,-23.488"
         inkscape:connector-curvature="0"
         id="path24"
         style="fill:#000000;fill-opacity:1;fill-rule:nonzero;stroke:none" /><path
         d="m 822.105,623.238 c -9.996,-1.5 -16.492,-2.5 -19.992,-2.5 0,-9.996 2.5,-17.492 7.5,-22.488 2.496,0.5 8.496,-1 17.992,-3.5 3,-0.5 4.497,4 4.497,13.496 0,16.492 -3.497,21.492 -9.997,14.992"
         inkscape:connector-curvature="0"
         id="path26"
         style="fill:#000000;fill-opacity:1;fill-rule:nonzero;stroke:none" /><path
         d="m 807.113,490.793 c -1.5,-6.5 -2.5,-14.996 -2.5,-24.992 l 12.496,-4.996 c 6.496,3.496 13.496,9.996 19.993,19.992 l -19.993,12.492 c 0,-1.496 -3.5,-2.496 -9.996,-2.496"
         inkscape:connector-curvature="0"
         id="path28"
         style="fill:#000000;fill-opacity:1;fill-rule:nonzero;stroke:none" /></g></g></svg>