<?xml version="1.0" encoding="UTF-8" standalone="no"?>
<!-- Created with Inkscape (http://www.inkscape.org/) -->

<svg
   xmlns:dc="http://purl.org/dc/elements/1.1/"
   xmlns:cc="http://creativecommons.org/ns#"
   xmlns:rdf="http://www.w3.org/1999/02/22-rdf-syntax-ns#"
   xmlns:svg="http://www.w3.org/2000/svg"
   xmlns="http://www.w3.org/2000/svg"
   xmlns:inkscape="http://www.inkscape.org/namespaces/inkscape"
   version="1.1"
   width="745"
   height="105"
   id="svg2"
   xml:space="preserve"><metadata
     id="metadata8"><rdf:RDF><cc:Work
         rdf:about=""><dc:format>image/svg+xml</dc:format><dc:type
           rdf:resource="http://purl.org/dc/dcmitype/StillImage" /></cc:Work></rdf:RDF></metadata><defs
     id="defs6" /><g
     transform="matrix(1.25,0,0,-1.25,0,105)"
     id="g10"><g
       transform="scale(0.1,0.1)"
       id="g12"><path
         d="m 2723.91,400.176 c -22.49,0 -40.48,-16.492 -54.48,-49.981 -10.49,-24.488 -15.49,-45.98 -15.49,-63.472 0,-11.996 1,-19.993 3.5,-23.993 1.5,-3.5 6.99,-8.496 16.49,-14.992 10,7.496 16.99,17.992 20.99,32.485 0.5,0.5 3,13.996 8,39.484 6.99,33.488 25.49,54.481 55.97,62.977 -5.49,11.496 -17.49,17.492 -34.98,17.492"
         inkscape:connector-curvature="0"
         id="path14"
         style="fill:#000000;fill-opacity:1;fill-rule:nonzero;stroke:none" /><path
         d="m 2606.46,417.668 -7.5,0 c 0,-9.996 -1.5,-27.488 -5,-52.477 0,-8.496 3.5,-13.496 10,-14.996 6.5,-1.5 9.99,-6.496 9.99,-14.992 0,-31.488 -2.5,-59.976 -7.49,-84.969 -17.5,11.496 -32.49,30.489 -43.98,57.977 -10,22.492 -15.5,41.984 -16,59.477 l -7.5,-2.497 c 0,-5 -1,-15.996 -2.5,-33.488 0,-11.996 6.5,-31.988 20,-59.976 18.49,-37.485 40.48,-56.477 65.97,-56.477 16.5,0 21.49,2.5 14,7.496 l 0,89.965 c -1.5,10.496 -11.5,45.48 -29.99,104.957"
         inkscape:connector-curvature="0"
         id="path16"
         style="fill:#000000;fill-opacity:1;fill-rule:nonzero;stroke:none" /><path
         d="m 2309.07,445.156 -14.99,0 c -0.5,-1.496 -1.5,-21.488 -3,-58.976 -1,-22.489 -8.99,-38.485 -24.49,-48.481 -8.49,24.992 -14.99,42.485 -19.99,52.481 l -9.99,-2.5 c -3.5,-9.996 -5,-20.992 -5,-33.485 8.5,-34.488 22.49,-51.48 42.48,-51.48 6.5,0 17.99,13.996 34.98,42.484 1.5,-14.996 6,-40.984 12.5,-78.469 0,-0.5 0,-12.496 -0.5,-36.984 -1.5,-28.992 -5.5,-55.48 -12,-79.469 -19.99,-76.4723 -59.97,-114.9567 -119.95,-114.9567 -22.99,0 -37.98,22.4922 -44.98,67.9727 -3.5,51.48 -6,82.969 -7.5,94.465 l -7.49,0 c 0,-19.992 -1.5,-48.481 -5,-85.965 0,-1.5 4.5,-20.9922 12.99,-58.4766 14.5,-36.9883 36.49,-55.48046 66.98,-55.48046 79.97,0 128.45,78.96876 144.94,237.40606 -24.99,134.946 -38.49,204.918 -39.99,209.914"
         inkscape:connector-curvature="0"
         id="path18"
         style="fill:#000000;fill-opacity:1;fill-rule:nonzero;stroke:none" /><path
         d="m 2404.04,400.176 c -14.5,0 -25.99,-6.496 -34.49,-19.992 -7,-10.996 -10.5,-21.993 -10.5,-33.485 0,-6 0.5,-11.996 1,-17.996 1.5,-12.992 4.5,-24.988 9,-35.484 13.5,-33.489 38.49,-50.481 74.97,-50.481 35.49,0 50.48,23.992 44.98,72.473 -2.5,56.477 -30.98,84.965 -84.96,84.965 z m -7.5,-34.985 c 21.99,5.997 38.99,1.997 50.48,-12.496 8,-9.996 12,-21.492 12,-34.984 0,-8.5 -11,-20.992 -32.49,-37.488 -7.5,5.5 -15.99,17.996 -25.49,37.984 -8,17.496 -12,27.992 -12,31.988 0,10.496 1.5,15.996 4,16.993 l 3.5,-1.997"
         inkscape:connector-curvature="0"
         id="path20"
         style="fill:#000000;fill-opacity:1;fill-rule:nonzero;stroke:none" /><path
         d="m 3673.53,477.645 c -9.99,0 -19.49,-2.5 -27.99,-7.997 -10.49,-6.496 -16.49,-9.496 -16.99,-9.496 -1.5,22.993 -4,40.985 -8.5,54.477 -7.5,25.492 -27.99,37.984 -61.48,37.984 -25.48,0 -54.47,-21.488 -87.46,-64.972 1.5,23.492 -8,34.988 -27.49,34.988 -10,0 -16.49,-1.5 -19.99,-4 l -5,-3.5 c -1.5,-59.977 -7.49,-142.441 -17.49,-247.399 0,-7 7.5,-18.492 22.49,-34.988 5.5,6 10.49,12.496 14.99,19.492 2.5,-23.988 7.5,-38.984 15,-44.48 11.49,3.996 17.49,33.984 17.49,89.965 0,15.992 -0.5,29.984 -1.5,41.98 2,7.496 4,16.496 6.5,26.492 13.99,56.477 42.98,98.457 87.46,126.45 0.5,-6.5 2.5,-52.981 5.5,-140.446 2,-58.976 10,-103.957 24.49,-134.445 24.49,16.492 38.49,48.48 41.99,96.961 3.99,54.477 12.49,89.465 25.49,105.457 l 7.49,-4.996 c 1,-5 10,-38.984 26.49,-101.461 11,-40.484 15.5,-74.469 13.5,-100.961 l 7.49,0 c 19.99,14.996 29.99,46.48 29.99,94.965 -24.49,113.453 -48.48,169.93 -72.47,169.93"
         inkscape:connector-curvature="0"
         id="path22"
         style="fill:#000000;fill-opacity:1;fill-rule:nonzero;stroke:none" /><path
         d="m 3389.64,376.188 c -0.5,9.496 2,16.992 6.5,21.488 -12.5,5 -36.48,7.5 -72.47,7.5 -18.49,0 -31.49,-4 -39.98,-12.496 0,-5 2.49,-13.996 7.49,-27.489 l 52.48,0 c 26.99,0 42.48,3.497 45.98,10.997"
         inkscape:connector-curvature="0"
         id="path24"
         style="fill:#000000;fill-opacity:1;fill-rule:nonzero;stroke:none" /><path
         d="m 3753.5,299.215 c 0,-1.496 3.5,-16.992 9.99,-47.481 12,-29.488 31.99,-43.98 59.98,-43.98 16.49,0 20.99,1.5 12.49,4.996 6,12.496 17,30.488 33.49,52.98 1.5,-13.996 4.5,-26.488 9,-37.984 8.5,1.5 13.99,4.996 17.49,9.996 1.5,18.492 2.5,44.981 2.5,78.969 1.5,6.496 2.5,12.492 2.5,18.492 0,2.496 -0.5,5.996 -1.5,9.496 0.5,24.489 -1.5,48.981 -5.5,72.469 -9.99,60.477 -31.99,90.465 -65.47,90.465 -17.49,0 -31.49,-6.496 -41.99,-19.992 -8.49,-10.496 -12.99,-21.993 -12.99,-33.485 0,-17.496 7.5,-26.492 22.49,-26.492 -2,6 3,20.992 15,44.984 28.48,-21.492 46.98,-48.98 54.47,-81.468 -9.99,7.496 -20.49,11.496 -31.99,11.496 -15.99,0 -33.48,-13.496 -52.47,-39.985 -18.49,-25.488 -27.49,-46.48 -27.49,-63.476 z m 50.48,35.488 c 7.5,16.992 16.49,25.488 26.99,25.488 6.49,0 10.49,0 12.99,0 2,-0.5 4.5,-1 7.5,-2 6.5,-3.996 9.49,-10.996 9.49,-21.488 -0.99,-42.484 -12.49,-63.976 -34.98,-63.976 -17.49,0 -27.99,6.496 -32.49,19.992 0,13.496 3.5,27.488 10.5,41.984"
         inkscape:connector-curvature="0"
         id="path26"
         style="fill:#000000;fill-opacity:1;fill-rule:nonzero;stroke:none" /><path
         d="m 3063.27,429.664 c -9.49,-16.992 -14.49,-34.484 -14.49,-51.98 0,-26.989 10,-54.477 29.49,-82.465 30.49,-43.485 77.47,-64.977 140.44,-64.977 41.49,0 62.48,14.496 62.48,43.985 0,9.996 -0.5,15.492 -1,15.992 -1.5,-1 -4,0 -6.5,2.5 -27.49,-15.492 -60.48,-15.992 -98.46,-0.5 -31.49,13.496 -55.48,30.988 -71.47,52.98 l 22.49,0 c 31.49,-12.996 55.48,-9.496 71.97,9.996 11.99,13.493 17.99,29.489 17.99,47.481 -2.5,43.48 -31.98,64.972 -87.46,64.972 -28.99,0 -50.98,-12.496 -65.48,-37.984 z m 55.48,-11.996 c 11.5,0 22.99,-2.996 34.99,-8.496 10.49,-4.496 16.99,-9.496 19.99,-13.992 -6.5,-9.996 -10,-19.992 -10,-29.989 l -27.48,-7.5 -37.49,7.5 c 0,18.493 0,29.489 0.5,31.985 2.5,13.496 9,20.492 19.49,20.492"
         inkscape:connector-curvature="0"
         id="path28"
         style="fill:#000000;fill-opacity:1;fill-rule:nonzero;stroke:none" /><path
         d="m 3985.91,470.148 -7.5,0 c -1.5,-3.5 -3.5,-5 -5,-5 7,-9.996 19.49,-19.492 36.98,-28.988 14.5,-7.496 24,-10.996 27.99,-10.996 -20.99,29.988 -38.48,44.984 -52.47,44.984"
         inkscape:connector-curvature="0"
         id="path30"
         style="fill:#000000;fill-opacity:1;fill-rule:nonzero;stroke:none" /><path
         d="m 4135.84,607.594 -7.49,0 c -14.99,-97.461 -22.49,-162.934 -22.49,-195.922 0,-36.984 5.5,-83.969 15.99,-140.445 12.5,-65.973 25.99,-104.457 41.49,-115.954 6.49,1.5 13.49,5 19.99,9.997 3.49,10.996 4.99,24.992 4.99,41.484 0,29.488 -8.49,100.961 -24.98,214.414 -17,112.453 -26,174.93 -27.5,186.426"
         inkscape:connector-curvature="0"
         id="path32"
         style="fill:#000000;fill-opacity:1;fill-rule:nonzero;stroke:none" /><path
         d="m 4005.9,307.715 -7.5,0 c -6.5,-59.977 -10,-104.961 -10,-134.949 0,-16.493 8.5,-20.989 24.99,-12.493 6.5,3.497 11.5,7.497 15,12.493 1.5,6 2.5,17.496 2.5,33.988 0,9.496 -3.5,25.488 -10.5,48.48 -8.5,26.989 -13,44.481 -14.49,52.481"
         inkscape:connector-curvature="0"
         id="path34"
         style="fill:#000000;fill-opacity:1;fill-rule:nonzero;stroke:none" /><path
         d="m 5202.92,685.062 c 0,10.497 -2,15.993 -5.5,17.493 -5.5,0 -9.99,1 -14.49,2.5 -39.99,-28.489 -62.48,-88.965 -66.98,-181.43 -2,-41.48 -1.5,-98.461 2,-170.43 -18.49,7.996 -40.48,11.996 -64.97,11.996 -33.49,0 -49.98,-24.492 -49.98,-73.472 0,-1 -0.5,-6.996 -1.5,-17.492 -0.5,-11.997 1,-22.493 4,-31.989 9.49,-29.488 35.48,-44.48 77.46,-44.48 15.5,0 31.99,2 48.49,5.996 8.49,-29.488 23.49,-43.981 43.98,-43.481 l 2.5,7.497 c -2.5,11.996 -4,29.988 -4.5,53.476 11.5,8.5 16.99,18.992 16.99,31.488 0,15.496 -5.49,32.489 -15.99,49.981 1.5,39.484 4,85.965 8.5,139.945 13.49,145.442 19.99,225.91 19.99,242.402 z M 5042.98,286.723 c 0,14.492 5.5,24.488 16.5,29.988 9.49,4.996 21.48,5.496 35.98,0.996 9.5,-2.496 17.49,-5.996 24.99,-10.492 0,-2.5 0,-4.5 0,-7 0,-27.988 1.5,-51.977 5,-71.969 -1,0 -2,0 -2.5,-0.5 -28.49,28.488 -51.48,44.481 -67.97,47.981 -5.5,0.5 -9,1.5 -10,2 -1.5,0.5 -2,3.496 -2,8.996"
         inkscape:connector-curvature="0"
         id="path36"
         style="fill:#000000;fill-opacity:1;fill-rule:nonzero;stroke:none" /><path
         d="m 5372.35,377.184 c -9.49,-17.493 -14.49,-31.985 -14.49,-44.481 0,-16.992 8.99,-39.484 27.48,-67.973 25.5,-39.484 57.98,-59.476 97.46,-59.476 31.49,0 51.49,3 59.98,9.496 5,3.5 7.5,11.496 7.5,22.992 0,10.496 -1,15.992 -3.5,16.992 l -4,-2 c -28.49,-6.496 -55.98,-4.996 -82.46,4 -24,7.996 -37.99,18.493 -42.49,30.989 53.48,8.996 79.97,30.484 79.97,63.972 1,11.496 -1.5,21.993 -7.5,31.989 -11.49,19.492 -33.98,28.988 -67.47,28.988 -20.49,0 -36.99,-11.996 -50.48,-35.488 z m 50.48,-1.996 c 21.99,0 33.49,-2 34.99,-5.5 3.5,-9.497 6.99,-14.993 9.99,-16.993 -2.5,-2 -9.99,-9.496 -22.99,-21.992 -14.49,-10.496 -28.49,-13.492 -41.98,-7.996 l 0,14.992 c 0,14.496 0,22.992 0.5,24.492 2.5,8.497 9,12.997 19.49,12.997"
         inkscape:connector-curvature="0"
         id="path38"
         style="fill:#000000;fill-opacity:1;fill-rule:nonzero;stroke:none" /><path
         d="m 5282.89,452.656 c -13,0 -23,-19.992 -29.99,-60.476 -5,-27.989 -7.5,-53.981 -7.5,-77.969 0,-16.492 4,-60.477 12.49,-131.449 l 20,0 c 8.49,12.496 12.49,25.992 12.49,41.484 -9.99,52.981 -13.99,93.465 -11.49,121.453 4,49.981 36.98,82.465 98.96,96.961 l -21.49,4.996 c -47.48,3.5 -71.97,5 -73.47,5"
         inkscape:connector-curvature="0"
         id="path40"
         style="fill:#000000;fill-opacity:1;fill-rule:nonzero;stroke:none" /><path
         d="m 4949.02,582.602 c -6.5,0 -11.5,1 -15.99,2.5 -24.99,-30.489 -40.49,-71.973 -46.49,-124.95 -2.49,-19.492 -3.49,-62.976 -3.49,-130.949 0,-0.5 0,-1 0,-2.496 -9.5,3.996 -21.5,5.996 -34.99,5.996 -48.48,0 -72.47,-25.988 -72.47,-78.469 0,-1.5 2.5,-14.496 8,-39.984 10.49,-24.488 30.48,-36.484 59.47,-36.484 14.49,0 32.49,2.5 54.98,7.996 0.5,0 1,0 1.5,0 6.5,-10.496 15.49,-15.492 25.99,-15.492 16.49,0 20.99,1.496 12.49,4.996 -1,8.496 -1.5,17.492 -2,25.988 1.5,2 2,4 2,5.5 0,10.496 -0.5,15.492 -1,14.992 l -1.5,-3.996 c -0.5,0 -0.5,0 -0.5,-0.5 -2.49,49.98 -0.99,105.457 5.5,166.434 10,97.461 15,157.937 15,181.425 0,10.496 -2,15.996 -6.5,17.493 z m -65.97,-293.383 c 0,-11.492 0,-24.989 0,-40.981 1.5,-14.496 3.49,-27.492 6.49,-37.984 -22.49,-1 -40.98,2.496 -54.47,10.492 -16.5,9.496 -24.5,21.992 -24.5,38.484 -2.5,6.5 -2.5,12.497 0,17.997 4,10.496 17.5,15.492 39.99,15.492 14.99,0 25.99,-1 32.49,-3.5"
         inkscape:connector-curvature="0"
         id="path42"
         style="fill:#000000;fill-opacity:1;fill-rule:nonzero;stroke:none" /><path
         d="m 4663.13,472.648 c -10.49,-1.5 -21.49,-5 -33.48,-10.496 -23.49,-10.496 -40.49,-24.492 -51.48,-41.984 l 7.49,-7.496 c 3,0 12.5,3.496 28.49,10.996 15.5,7.496 27.99,11.492 37.49,11.492 49.48,0 73.97,-24.988 73.97,-74.969 0,-6.496 -2,-19.992 -6.5,-39.484 -13.49,14.496 -31.99,21.992 -55.98,21.992 -44.98,0 -67.47,-23.492 -67.47,-69.972 0,-0.5 4.5,-12.997 13,-37.985 13.49,-24.488 33.48,-36.984 59.47,-36.984 19.49,0 34.49,2.996 45.98,9.496 4.5,-7.496 12,-13.996 21.5,-19.492 3,0.5 8.49,-1 16.49,-3.5 2.5,-0.5 3.5,4 3.5,13.496 3.49,52.476 4.99,106.457 4.99,161.433 1,19.993 -2.49,39.485 -9.99,57.977 -14.99,36.988 -43.98,55.48 -87.47,55.48 z m 12.5,-234.906 c -29.99,0 -44.98,12.992 -44.98,38.985 0,24.488 12.49,33.984 37.48,28.488 24.99,-5.5 37.49,-17.992 37.49,-37.485 0,-16.496 -1,-23.992 -2.5,-22.492 l -27.49,-7.496"
         inkscape:connector-curvature="0"
         id="path44"
         style="fill:#000000;fill-opacity:1;fill-rule:nonzero;stroke:none" /><path
         d="m 5825.17,247.738 c 0,-16.496 -1,-23.992 -2.5,-22.492 l -27.49,-2.5 c -10,14.996 -17.49,24.992 -22.49,29.988 -5,-4.996 -8.99,-12.496 -12.49,-22.492 1.5,-2.496 3.99,-10.492 8.49,-23.988 7.5,-12.496 22.49,-18.492 43.99,-18.492 33.48,0 48.98,18.992 47.48,57.476 0,14.492 -12.5,41.985 -37.49,83.465 -24.99,41.485 -37.49,62.477 -37.49,62.977 0,10.496 2,16.992 5.5,19.492 6.5,1.5 12,4 17,6.496 13.49,-6.496 23.49,-8.496 29.98,-4.996 -9.99,6.496 -14.99,11.496 -14.99,14.992 -13.49,3.5 -24.99,5 -34.99,5 -9.49,0 -20.49,-4 -32.48,-12.496 -13.5,-8.996 -20,-18.992 -20,-29.988 0,-9.496 15,-28.989 44.99,-58.477 29.99,-29.988 44.98,-57.976 44.98,-83.965"
         inkscape:connector-curvature="0"
         id="path46"
         style="fill:#000000;fill-opacity:1;fill-rule:nonzero;stroke:none" /><path
         d="m 5593.26,422.668 c -18.49,-11.996 -27.99,-22.492 -27.99,-30.988 0,-5 22.5,-22.992 67.48,-53.481 44.98,-30.484 67.47,-52.976 67.47,-67.972 0,-16.493 -2.5,-25.989 -7.5,-27.489 -9.99,-6.496 -23.49,-9.996 -39.98,-9.996 -9.5,0 -17.49,3 -24.49,8.496 -6,5 -10.5,7 -13,6.5 -3.5,-5 -5,-9.996 -5,-14.996 23.5,-23.488 40.99,-34.984 52.48,-34.984 23.49,0 42.49,7.496 57.48,21.992 13.5,13.492 19.99,28.488 19.99,45.48 0,36.485 -40.98,78.969 -122.45,127.45 57.48,18.492 87.47,28.488 89.96,29.988 -28.98,11.496 -50.48,17.492 -64.97,17.492 -14.49,0 -30.99,-5.996 -49.48,-17.492"
         inkscape:connector-curvature="0"
         id="path48"
         style="fill:#000000;fill-opacity:1;fill-rule:nonzero;stroke:none" /><path
         d="m 5905.14,185.262 27.48,-27.489 c 17.5,17.493 26.49,26.989 27.49,27.489 -9.99,12.496 -18.99,21.992 -27.49,27.488 -18.49,2.5 -27.48,-6.496 -27.48,-27.488"
         inkscape:connector-curvature="0"
         id="path50"
         style="fill:#000000;fill-opacity:1;fill-rule:nonzero;stroke:none" /><path
         d="m 173.93,807.512 c 26.988,0 68.972,-17.992 125.449,-53.977 28.988,-18.492 58.476,-38.484 87.965,-60.976 l 0,7.496 c -9.496,14.496 -35.985,38.984 -79.469,73.472 C 251.898,818.008 207.418,840 174.93,840 58.4766,840 0,771.027 0,632.582 0,573.105 13.9961,508.133 42.4844,437.66 89.9648,319.207 164.434,260.23 264.895,260.23 c 54.476,0 95.96,23.993 125.449,72.473 19.492,32.488 29.488,62.477 29.488,89.965 0,23.988 -4.996,41.484 -14.992,51.977 -23.492,25.492 -73.473,37.988 -149.942,37.988 -13.996,0 -27.988,-9.996 -42.484,-29.988 98.461,-22.493 149.941,-34.489 153.938,-35.989 15.496,-4.996 23.492,-13.992 23.492,-26.488 0,-16.492 -8.996,-38.984 -26.989,-67.473 -25.492,-39.984 -58.476,-59.976 -97.96,-59.976 -86.465,0 -151.442,52.98 -194.4223,159.437 -26.9883,66.473 -40.4844,126.449 -40.4844,180.426 -1.5,31.488 3.5,61.477 14.9922,89.965 22.4922,56.476 65.4765,84.965 128.9495,84.965"
         inkscape:connector-curvature="0"
         id="path52"
         style="fill:#000000;fill-opacity:1;fill-rule:nonzero;stroke:none" /><path
         d="m 529.789,542.617 c -16.496,7.5 -27.988,16.496 -33.488,25.992 -4.496,7.496 -7.496,11.496 -8.996,11.496 l -7.496,0 -2.5,-2.5 c -1.5,-8.496 -2.5,-15.992 -2.5,-23.492 0,-10.496 1,-17.492 3.5,-19.992 1.5,-1.5 4.5,-3.996 8.996,-6.496 8.496,0 22.492,4.996 42.484,14.992"
         inkscape:connector-curvature="0"
         id="path54"
         style="fill:#000000;fill-opacity:1;fill-rule:nonzero;stroke:none" /><path
         d="m 507.297,457.652 -7.496,0 c -1.5,-8.496 -3.5,-15.992 -5,-23.488 0,-82.469 9.996,-135.449 29.988,-158.937 l 14.996,7.496 c 4.996,14.996 7.496,33.988 7.496,56.476 0,17.496 -4.5,35.989 -13.496,55.481 -14.492,31.484 -22.988,52.476 -26.488,62.972"
         inkscape:connector-curvature="0"
         id="path56"
         style="fill:#000000;fill-opacity:1;fill-rule:nonzero;stroke:none" /><path
         d="m 874.148,477.145 c -8.996,16.992 -23.988,25.492 -44.48,25.492 -41.484,0 -62.477,-29.489 -62.477,-88.465 0,-0.5 0.5,-9.996 1.5,-27.492 2.5,-20.989 6,-39.981 11.497,-57.477 16.492,-54.476 44.484,-81.465 84.464,-81.465 10.496,0 19.993,1.5 29.489,4.996 8,3.5 12.496,5 12.996,5 3.5,5.996 5,17.493 5,33.985 0,10.496 -1,15.496 -3.5,14.996 -1.5,-0.5 -2.5,-1.5 -4,-4 -2.496,-2.5 -5.996,-6.996 -10.996,-12.996 -5.496,-4.496 -13.493,-6.996 -23.989,-6.996 -21.492,0 -38.984,17.492 -52.48,52.48 -9.996,25.988 -14.992,48.481 -14.992,67.473 0,10.496 0,16.492 0.5,17.492 1.5,0 2.996,1 4.496,2.5 22.492,-13.996 41.484,-14.996 56.976,-3.5 11.996,9.496 17.996,19.492 17.996,29.988 0,8.996 -2.5,18.492 -8,27.989 z m -29.488,-21.993 -2.496,-7.496 c -8.496,-4.996 -20.992,-7.496 -37.484,-7.496 1.996,9.996 15.492,14.992 39.98,14.992"
         inkscape:connector-curvature="0"
         id="path58"
         style="fill:#000000;fill-opacity:1;fill-rule:nonzero;stroke:none" /><path
         d="m 707.219,547.617 -7.5,0 c -5.496,-56.476 -15.492,-112.953 -29.989,-169.933 -29.988,89.964 -44.98,138.945 -44.98,147.441 0,7 0.5,11.996 1,14.496 -6.496,-1.5 -13.496,-5 -20.992,-9.496 -1.5,-5 -2.5,-9.996 -2.5,-14.996 0,-26.488 8.496,-66.973 25.492,-120.949 17.492,-55.481 33.484,-89.465 46.98,-101.461 13.493,5.5 25.989,24.992 37.985,59.476 9.496,27.489 14.492,44.981 14.492,52.981 0,14.992 -6.496,62.472 -19.988,142.441"
         inkscape:connector-curvature="0"
         id="path60"
         style="fill:#000000;fill-opacity:1;fill-rule:nonzero;stroke:none" /><path
         d="m 1774.29,237.742 c 8,0 16.5,4.996 24.99,14.992 8.5,9.496 12.49,18.493 12.49,26.489 0,10.496 -0.99,15.496 -2.49,14.996 -0.5,-0.5 -1.5,-1.5 -2.5,-4 -38.49,-14.992 -73.48,4 -104.96,57.476 l 0,44.985 c 8.5,-6.996 13.49,-14.996 14.49,-23.492 0.5,-4.497 6,-6.497 16.99,-6.497 11.5,0 22.5,4.997 32.99,14.493 10.5,9.496 15.5,19.992 15.5,30.488 0,11.996 -2,23.492 -5.5,33.988 -7,20.492 -19.49,30.988 -36.99,30.988 -24.49,0 -43.98,-13.996 -57.97,-42.484 -9.5,-20.492 -14.5,-38.984 -14.5,-55.976 0,-0.5 0,-8.497 0.5,-22.993 1,-16.992 4,-32.488 9,-46.98 16.49,-44.485 48.98,-66.473 97.96,-66.473 z m -62.47,169.93 c 11.99,17.992 23.48,25.492 34.98,22.492 0,-19.992 -3.5,-30.988 -10,-32.488 l -24.98,9.996"
         inkscape:connector-curvature="0"
         id="path62"
         style="fill:#000000;fill-opacity:1;fill-rule:nonzero;stroke:none" /><path
         d="m 1384.45,512.633 c -8.5,-3.5 -17.5,-7.5 -27.49,-12.496 l 0,-179.93 c 3,-9.496 5.99,-22.988 9.49,-40.484 5.5,-15.493 18,-29.489 37.99,-41.981 21.99,30.988 33.99,78.969 35.49,143.942 1.49,64.972 13.99,113.453 36.98,145.941 16.49,-26.988 24.49,-63.477 23.99,-109.957 -0.5,-24.988 -1,-59.977 -1.5,-104.957 l 19.99,0 c 4.5,11.496 9,38.984 14,83.465 4.49,38.488 11.49,64.476 20.99,78.969 5,-22.489 10.5,-56.977 16.99,-102.957 8,-38.985 22.99,-68.973 45.48,-89.465 1.5,5 2.5,13.996 2.5,26.488 0,36.988 -5.99,73.973 -17.99,110.957 -17.49,55.477 -43.98,81.469 -79.47,77.469 -0.5,15.992 -2.5,28.488 -5.5,37.484 -5.5,16.496 -19.49,24.992 -41.98,24.992 -33.49,0 -56.48,-58.976 -69.97,-177.429 -1.5,5.996 -1.5,27.988 -1,65.472 0.5,27.989 -5.5,49.481 -18.99,64.477"
         inkscape:connector-curvature="0"
         id="path64"
         style="fill:#000000;fill-opacity:1;fill-rule:nonzero;stroke:none" /></g></g></svg>