<?xml version="1.0" encoding="UTF-8" standalone="no"?>
<!-- Created with Inkscape (http://www.inkscape.org/) -->

<svg
   xmlns:dc="http://purl.org/dc/elements/1.1/"
   xmlns:cc="http://creativecommons.org/ns#"
   xmlns:rdf="http://www.w3.org/1999/02/22-rdf-syntax-ns#"
   xmlns:svg="http://www.w3.org/2000/svg"
   xmlns="http://www.w3.org/2000/svg"
   xmlns:inkscape="http://www.inkscape.org/namespaces/inkscape"
   version="1.1"
   width="292.5"
   height="206.25"
   id="svg2"
   xml:space="preserve"><metadata
     id="metadata8"><rdf:RDF><cc:Work
         rdf:about=""><dc:format>image/svg+xml</dc:format><dc:type
           rdf:resource="http://purl.org/dc/dcmitype/StillImage" /></cc:Work></rdf:RDF></metadata><defs
     id="defs6" /><g
     transform="matrix(1.25,0,0,-1.25,0,206.25)"
     id="g10"><g
       transform="scale(0.1,0.1)"
       id="g12"><path
         d="m 1969.21,1645 -7.5,-2.5 c 0,-0.5 3.5,-48.98 10,-146.44 0,-2 0,-4 0.5,-5.5 -15.99,-5.49 -31.99,-7.99 -47.98,-7.99 -15.99,0 -24.99,-3.5 -27.49,-10 l 5,-14.99 c 8.49,-8.5 21.49,-12.5 39.98,-12.5 13.5,0 24.99,0.5 35.49,1.5 6,-35.49 15.99,-63.97 29.49,-86.46 8.5,3.49 13.99,7.49 17.49,12.49 1.5,23.49 2.5,43.48 2.5,59.98 0,7.49 -1,16.99 -2.5,29.48 47.48,29.99 79.97,49.48 97.46,57.98 -3.5,6.5 -18.49,10 -44.98,10 -17.49,0 -37.99,-6.5 -61.97,-20 -2.5,11 -5.5,23 -9,35.99 -15,57.48 -26.99,90.46 -36.49,98.96"
         inkscape:connector-curvature="0"
         id="path14"
         style="fill:#000000;fill-opacity:1;fill-rule:nonzero;stroke:none" /><path
         d="m 1724.31,1405.1 c 3,16.99 3,33.49 0.5,48.98 -5,30.49 -20.99,45.98 -47.98,45.98 -31.99,0 -53.48,-10 -64.47,-29.99 -0.5,-0.5 -0.5,-1.5 -1,-2 -9.5,31.49 -19,46.98 -29.49,46.98 -10.5,0 -15.99,-0.5 -17.49,-2 -0.5,-0.5 -1.5,-2.5 -2.5,-5.49 23.49,-171.44 51.48,-307.88 84.96,-409.84 l 7.5,5 c 1,1.5 2.5,2 4.5,1 0.5,-0.5 0.5,4.5 0.5,13.99 -4.5,61.98 -10,122.95 -17.5,183.43 2,-0.5 3.5,-0.5 5,-1 51.48,0 77.47,34.98 77.47,104.96 z m -57.48,59.97 c 15,-12.99 22.49,-31.48 22.49,-55.97 0,-0.5 0.5,-6 1.5,-15.5 0.5,-11.49 -0.5,-21.49 -3.5,-30.49 -7.49,-21.49 -23.48,-34.98 -48.48,-40.48 -3.99,29.99 -7.99,56.48 -12.49,79.47 1.5,8.99 2.5,16.49 3.5,22.99 3.5,22.49 15.99,35.48 36.98,39.98"
         inkscape:connector-curvature="0"
         id="path16"
         style="fill:#000000;fill-opacity:1;fill-rule:nonzero;stroke:none" /><path
         d="m 1931.73,1055.24 c -15,0 -22.5,-7 -22.5,-20.99 0,-23.5 12.5,-85.969 36.99,-188.43 0.5,-1.496 0.5,-2.496 1,-3.996 -18.49,3.996 -41.98,5.996 -70.47,5.996 -12.5,0 -19.99,-1 -21.99,-2.5 -2,-1.496 -3,-8.496 -3,-20.988 0,-0.5 -1,-7.5 -3,-20.492 -0.5,-3.5 -0.5,-7.5 0,-10.996 -3,-3.5 -4.5,-6.996 -4.5,-9.996 0,-0.5 5,-15.496 15.49,-45.481 15,-29.488 34.99,-44.484 59.48,-44.484 16.5,0 25.99,3.5 27.49,9.996 l -3,4 c 10.5,-1 21.49,-1.5 32.99,-1.5 3.5,0 7,0 9.99,0.5 16.5,-46.981 33.49,-79.469 49.98,-97.961 l 5,4.996 c -10.99,33.488 -24.49,92.465 -39.98,177.93 0,0.5 0,1.5 0,2 -0.5,1.5 -0.5,3 -1,4.496 -2.5,13.496 -5,26.992 -7.5,40.984 -16.49,94.461 -36.98,166.436 -61.47,216.916 z m -45.48,-247.904 c 3.99,1.5 8.99,2.5 15.49,3 l -10,3 42.49,2 c 7.99,0 14.99,-1.5 20.99,-5 8.49,-31.988 16.49,-60.477 24.99,-85.465 -60.48,23.488 -93.96,49.981 -99.96,78.969 1.5,1.5 3.5,2.996 6,3.496"
         inkscape:connector-curvature="0"
         id="path18"
         style="fill:#000000;fill-opacity:1;fill-rule:nonzero;stroke:none" /><path
         d="m 1489.4,1485.07 -7.49,0 c 13.49,-53.48 19.99,-89.47 19.99,-108.46 0,-16.49 -1,-27.99 -2.5,-33.99 l -5,0 c -21.49,65.98 -37.48,107.46 -47.48,124.95 l -14.99,-9.99 c 0,-10 -1,-22.49 -2.5,-37.49 10,-98.46 33.98,-147.44 72.47,-147.44 23.49,0 34.99,15.99 34.99,47.48 0,68.98 -16,123.95 -47.49,164.94"
         inkscape:connector-curvature="0"
         id="path20"
         style="fill:#000000;fill-opacity:1;fill-rule:nonzero;stroke:none" /><path
         d="m 1411.93,1055.24 c -14.99,0 -22.48,-7 -22.48,-20.99 0,-32.49 25.98,-157.441 77.46,-373.855 l 7.5,12.496 c 3.5,3.5 5,13.496 5,29.988 0,24.492 -8,81.969 -23.99,173.43 -17.49,99.461 -31.99,158.941 -43.49,178.931"
         inkscape:connector-curvature="0"
         id="path22"
         style="fill:#000000;fill-opacity:1;fill-rule:nonzero;stroke:none" /><path
         d="m 1561.88,840.324 c -14.5,0 -28.99,-6.496 -42.49,-19.992 -13.49,-13.496 -19.99,-26.988 -19.99,-40.984 0,-7.996 6,-22.489 17.99,-43.481 15,-26.992 31.49,-40.484 49.48,-40.484 43.49,0 64.98,20.492 64.98,61.476 -2.5,55.477 -25.99,83.465 -69.97,83.465 z m -7.5,-39.984 0,2.5 c 33.48,-1.5 49.98,-26.488 49.98,-74.973 0,-16.492 -2.5,-20.988 -7.5,-12.492 -41.48,21.492 -62.47,40.984 -62.47,58.977 0,13.992 0,21.492 0.5,22.488 1.5,2.5 7.99,3.5 19.49,3.5"
         inkscape:connector-curvature="0"
         id="path24"
         style="fill:#000000;fill-opacity:1;fill-rule:nonzero;stroke:none" /><path
         d="m 1276.99,892.805 c -7.5,0 -17.99,-19.993 -32.49,-59.977 -13.49,-37.484 -19.99,-61.976 -19.99,-72.473 0,-52.476 8.5,-84.964 24.99,-97.46 14.5,18.492 21.49,51.48 20.49,99.96 -0.5,53.977 2.5,88.965 9.5,104.957 l 7.49,0 c 8.5,-15.492 24.5,-49.98 47.98,-104.457 20.5,-48.48 37.99,-82.468 51.99,-102.96 l 4.99,5 c -16.49,52.476 -30.98,95.96 -42.48,129.949 -21.99,64.972 -45.98,97.461 -72.47,97.461"
         inkscape:connector-curvature="0"
         id="path26"
         style="fill:#000000;fill-opacity:1;fill-rule:nonzero;stroke:none" /><path
         d="m 1779.29,926.789 c -7,20.492 -20.99,30.988 -42.49,30.988 -5.99,0 -13.99,-7.496 -24.48,-22.492 -10.5,-14.492 -15.5,-25.988 -15.5,-33.484 0,-16.496 1.5,-20.492 5,-11.496 12.49,18.492 25.49,29.988 39.98,34.984 5.5,-10.496 11,-34.484 16.5,-72.969 -5,2 -10.5,2.996 -16.5,2.996 -28.49,0 -42.48,-27.988 -42.48,-83.464 0,-12.497 2.5,-25.489 7.5,-39.985 8.49,-24.488 21.49,-36.484 39.98,-36.484 18.49,0 31.49,9.996 38.99,29.988 5.49,-6.5 11.99,-9.996 19.49,-9.996 10.49,0 18.99,2 25.99,6.496 5.5,4.5 8.99,7.496 10.49,8.496 -21.99,7.496 -36.98,23.992 -44.98,49.481 -4.5,15.496 -7.49,40.984 -8.99,76.468 -1.5,34.489 -4,57.977 -8.5,70.473 z M 1731.81,804.34 c 0,10.496 1.49,15.492 3.99,14.992 1,-0.5 2,-1.5 3.5,-4 l 0,2.5 c 15,-11.496 22.5,-26.488 22.5,-44.98 0,-14.997 -6,-28.489 -17.5,-39.985 l 0,2.5 c -8.5,33.485 -12.49,56.477 -12.49,68.973"
         inkscape:connector-curvature="0"
         id="path28"
         style="fill:#000000;fill-opacity:1;fill-rule:nonzero;stroke:none" /><path
         d="m 2231.61,1352.62 c 16.49,15.49 24.99,35.49 24.99,59.97 -13.5,58.48 -39.99,87.47 -79.97,87.47 -38.49,0 -57.48,-22.49 -57.48,-67.47 0,-24.99 14.99,-52.48 44.98,-82.47 -10.99,-8.5 -31.98,-12.5 -62.47,-12.5 0,-8.49 14.99,-12.49 44.98,-12.49 37.48,0 65.47,8.99 84.97,27.49 z m -69.97,107.45 c 15.49,2.5 28.48,-3.49 38.48,-17.99 7.5,-11.49 11.49,-21.49 11.49,-30.49 0,-16.49 -1.49,-25.48 -4.99,-26.48 l -24.99,0 c -13.5,6.49 -21.99,13.99 -25.49,22.49 -1.5,3.49 -2,10.99 -2,22.49 0,12.49 2.5,22.49 7.5,29.98"
         inkscape:connector-curvature="0"
         id="path30"
         style="fill:#000000;fill-opacity:1;fill-rule:nonzero;stroke:none" /><path
         d="m 2261.59,322.031 -14.99,7.496 c -45.98,-12.492 -83.97,-23.988 -113.46,-33.484 -55.97,-18.992 -83.96,-39.984 -83.96,-62.977 0,-16.492 1.5,-20.492 5,-10.996 68.47,-27.488 108.45,-43.48 119.95,-48.48 23.49,-10.496 34.99,-18.492 34.99,-23.988 0,-16.497 -1,-23.993 -2.5,-22.493 l -62.48,-2.5 c -11.49,-1.5 -18.49,-2.496 -19.99,-2.496 l -2.5,-18.996 c 0,-9.9959 1.5,-14.992 4,-15.492 l 3.5,-0.5 67.47,0 c 24.49,4.5 39.49,12.4961 44.98,23.992 1.5,3.496 2.5,14.992 2.5,33.485 0,22.492 -6.49,39.984 -18.99,53.48 -15.99,16.992 -45.48,32.484 -88.47,46.48 7.5,2.5 48.98,27.989 124.95,77.469"
         inkscape:connector-curvature="0"
         id="path32"
         style="fill:#000000;fill-opacity:1;fill-rule:nonzero;stroke:none" /><path
         d="m 2029.19,112.117 c 3.5,4.996 5,15.992 5,33.485 0,30.488 -10,63.976 -29.99,101.46 -13,22.989 -36.49,32.985 -69.97,29.989 -11.5,-1 -23,2.996 -33.99,11.492 -11.49,9 -22.49,13.496 -33.49,13.496 -7.49,0 -15.49,-6.496 -23.99,-18.992 -4.49,-6.496 -8.99,-14.492 -13.49,-23.492 -3,10.496 -6,17.996 -8.5,22.992 -4,8.496 -11.99,14.996 -23.99,19.492 -11.49,-4.496 -17.49,-18.992 -17.49,-42.484 0,-17.993 10,-62.973 29.99,-134.946 34.48,3 52.97,20.493 54.47,52.481 -0.5,18.492 -0.5,32.488 0,41.984 0.5,16.492 4,28.988 10.5,37.985 2,-3.5 10,-21.493 23.99,-53.481 10.49,-23.488 19.99,-38.984 28.49,-46.48 6.5,1.5 12.49,4.996 17.49,9.996 1.5,17.492 2.5,30.988 3,39.484 1.5,15.492 6.5,28.488 14.49,37.984 5.5,-6.996 15,-29.988 29.49,-68.472 12.5,-33.988 24.99,-55.477 37.99,-63.973"
         inkscape:connector-curvature="0"
         id="path34"
         style="fill:#000000;fill-opacity:1;fill-rule:nonzero;stroke:none" /><path
         d="m 2326.57,94.6211 c -13.5,-5.4961 -19.99,-14.4922 -19.99,-27.4883 4.99,-4.9961 11.49,-8.9961 19.99,-12.4961 10.5,4 16.99,10.4961 19.99,19.9922 -3,9.4961 -9.49,15.9961 -19.99,19.9922"
         inkscape:connector-curvature="0"
         id="path36"
         style="fill:#000000;fill-opacity:1;fill-rule:nonzero;stroke:none" /><path
         d="m 1716.81,299.539 c 0,-1.5 -1.5,-2.496 -4.99,-2.496 -1.5,-19.992 -5,-51.481 -10,-93.965 0,-8.496 1.5,-17.492 4.5,-27.988 2.5,-8.496 3.5,-15.492 3,-20.492 l -2.5,0 c 1,11.996 -6.5,27.488 -22.99,46.98 -19.49,19.492 -31.49,32.488 -36.99,37.984 l -5,-7.496 c 20,-103.457 48.48,-154.9371 84.97,-154.9371 16.49,0 20.99,1.5 12.49,5 4.5,6.9961 7.5,12.4922 9.5,16.4922 3.5,6.9959 5.5,15.4919 5.5,25.9879 0,14.496 -6,46.981 -18,96.461 -11.99,47.981 -18.49,73.973 -19.49,78.469"
         inkscape:connector-curvature="0"
         id="path38"
         style="fill:#000000;fill-opacity:1;fill-rule:nonzero;stroke:none" /><path
         d="m 1477.41,340.523 c -10.5,49.981 -18.99,74.969 -25.49,74.969 -10,-1.496 -16.49,-2.496 -19.99,-2.496 l 0,-55.98 c 4.5,-14.493 12.49,-63.973 23.99,-148.438 18.49,-77.469 48.48,-116.453 90.96,-116.453 16.5,0 32.49,10.992 47.48,32.484 13.5,19.993 20,38.485 20,55.981 0.5,13.992 -2,27.988 -7.5,41.48 -10.5,26.492 -30.49,39.985 -59.98,39.985 -13.99,0 -22.99,-3.496 -26.99,-10.996 -5.5,-10.997 -11.5,-17.993 -17.99,-21.489 -3.5,9.496 -11.5,46.481 -24.49,110.953 z m 74.47,-123.449 c 3,0 5.5,0 7.5,0 13.49,-13.996 19.99,-26.988 19.99,-38.984 0.5,-40.485 -13.49,-60.977 -42.48,-60.977 -10,0 -17.5,1.5 -22.5,5 l -7.49,4.996 c 1.49,15.993 3.99,31.489 8.49,46.481 8.5,28.988 21,43.484 36.49,43.484"
         inkscape:connector-curvature="0"
         id="path40"
         style="fill:#000000;fill-opacity:1;fill-rule:nonzero;stroke:none" /><path
         d="m 1321.97,515.453 c -8.5,-4.496 -12.49,-15.992 -12.49,-34.984 0,-154.438 13.49,-286.387 39.98,-395.844 11.5,1.5 19.99,5 24.99,9.9961 3.5,45.4839 5,76.9689 5,93.4649 -12.5,179.426 -31.99,289.383 -57.48,329.867 l 0,-2.5"
         inkscape:connector-curvature="0"
         id="path42"
         style="fill:#000000;fill-opacity:1;fill-rule:nonzero;stroke:none" /><path
         d="m 1254.5,137.605 c 3.5,18.493 5,34.985 5,49.481 0.5,28.988 -2.5,57.476 -10,84.965 -14.99,54.98 -42.48,82.469 -82.47,82.469 l -19.99,-10.497 c -13.49,-7.996 -19.99,-15.496 -19.99,-21.992 0,-16.492 5,-36.484 14.99,-59.976 l 7.5,0 c -3.5,29.988 -1.5,52.48 5,67.472 47.48,-22.488 74.47,-56.476 79.97,-101.957 -11.5,9.496 -26.99,14.492 -47.49,14.492 -25.48,0 -45.48,-8.496 -59.47,-25.488 -12,-13.996 -18,-31.488 -18,-51.98 11,-58.477 34.99,-87.4651 72.48,-87.4651 35.98,0 58.47,8.4961 66.97,24.9921 3,5.496 5,16.992 5.5,35.484 z m -74.97,-22.992 c -8.5,4.5 -16.99,12.996 -24.49,24.992 -7,10.997 -10.5,19.493 -10.5,24.989 2.5,24.992 12,37.484 27.49,37.484 31.49,0 47.48,-11.496 47.48,-34.984 0,-5.5 -13.49,-22.992 -39.98,-52.481"
         inkscape:connector-curvature="0"
         id="path44"
         style="fill:#000000;fill-opacity:1;fill-rule:nonzero;stroke:none" /><path
         d="m 667.234,1650 c -3.5,-1 -7.5,-1.5 -12.496,-2 -3.5,-2 -5,-8.5 -5,-18.99 0,-11 1.5,-17.49 4,-19.49 2,-1.5 6.496,-3 13.496,-4.5 11.993,3 19.493,9 22.489,17.49 C 685.227,1637 677.73,1646 667.234,1650"
         inkscape:connector-curvature="0"
         id="path46"
         style="fill:#000000;fill-opacity:1;fill-rule:nonzero;stroke:none" /><path
         d="m 567.273,1547.54 c -4,-1 -31.988,-2.5 -83.468,-4 -49.477,-7.49 -73.969,-26.49 -73.969,-55.97 0,-15.5 9.996,-29.99 29.488,-42.49 11.996,-7.49 33.988,-16.99 65.473,-28.99 31.488,-11.99 53.48,-21.49 65.476,-28.98 19.493,-12.5 29.489,-26.49 29.489,-41.99 0,-12 -8.5,-21.99 -24.992,-30.49 -19.493,-9.49 -47.981,-14.49 -84.965,-14.49 -21.993,0 -33.989,4.5 -36.485,13.49 0.5,12.5 -1.5,22.49 -6,28.99 -8.496,-3.5 -16.492,-7.5 -24.988,-12.49 l 0,-22.49 c 15.492,-15.5 23.988,-23.5 26.488,-24.99 18.492,-11.5 44.981,-17.5 78.469,-17.5 26.488,0 51.481,9 74.969,27.49 21.492,17 32.488,33.49 32.488,48.98 0,28.99 -10.996,52.48 -32.988,70.97 -27.488,22.5 -79.965,45.99 -156.938,69.98 l 14.996,7.49 c 7.496,7.5 26.989,17 58.477,27.49 38.484,13 59.477,20.49 63.973,22.49 l -14.993,7.5"
         inkscape:connector-curvature="0"
         id="path48"
         style="fill:#000000;fill-opacity:1;fill-rule:nonzero;stroke:none" /><path
         d="m 1062.07,1477.57 c 0.5,-1 17.5,-38.98 51.98,-113.96 20,-44.48 38.49,-78.97 55.48,-103.45 l 5,14.99 c -14.99,57.48 -28.49,103.96 -39.98,139.44 -22,66.98 -45.99,100.46 -72.48,100.46 -13.49,0 -22.98,-9.99 -27.98,-30.48 -7,-26.99 -15,-44.98 -24.49,-54.48 -2,2 -4,9.99 -5.5,24.49 -1,10.49 -8.498,15.49 -21.995,15.49 -10.496,0 -16.992,-1 -18.492,-3.5 -1.5,-1.5 -2.496,-4.5 -3.996,-8.99 4.496,-14.5 7.496,-32.99 8.996,-55.48 1,-12.49 2.5,-31.49 3.996,-56.48 5,-44.98 22.993,-81.96 54.481,-110.46 10,8.5 15.99,12.5 17.49,12.5 0,104.96 6,181.43 17.49,229.91"
         inkscape:connector-curvature="0"
         id="path50"
         style="fill:#000000;fill-opacity:1;fill-rule:nonzero;stroke:none" /><path
         d="m 824.672,1310.14 7.496,4.99 -5,22.49 c -13.492,-2 -19.992,-1 -19.492,2.5 3,6.5 4.5,13 4.5,19 0,31.99 5.996,57.47 17.492,75.97 5.996,-17.5 15.492,-56.48 27.988,-117.46 12.996,-61.47 19.492,-98.46 19.492,-110.95 0,-19 -4.496,-37.99 -12.996,-57.48 -12.992,-28.99 -32.984,-44.48 -59.472,-46.48 0,5 -1.5,12.49 -5,22.49 -4.996,-1.5 -8.496,-5 -9.996,-10 -0.5,-4 -2,-6.5 -3.5,-7.49 -0.996,-0.5 -1.496,-5.5 -1.496,-15 0,-16.49 1.496,-23.99 4.996,-22.49 l 37.484,-5 c 53.48,0 83.469,46.48 89.965,139.95 -5.996,50.48 -13.996,99.96 -24.488,149.44 -20.993,98.46 -42.985,147.94 -65.477,147.94 -5.496,0 -14.492,-13.5 -27.488,-39.99 -13.496,-27.48 -19.992,-48.98 -19.992,-63.47 -0.5,-62.48 6.996,-93.96 22.492,-93.96 9.996,0 17.492,1.5 22.492,5"
         inkscape:connector-curvature="0"
         id="path52"
         style="fill:#000000;fill-opacity:1;fill-rule:nonzero;stroke:none" /><path
         d="m 742.203,1410.1 c -11.496,69.97 -21.492,104.95 -29.988,104.95 -16.492,0 -23.492,-1 -19.992,-2.5 -1.5,-8.49 -2.5,-15.99 -2.5,-23.49 0,-24.99 3.5,-59.47 10.496,-103.95 9.996,-65.48 23.992,-106.96 41.984,-124.95 9.996,14.99 14.992,29.98 14.992,44.98 -3.996,34.98 -8.996,69.97 -14.992,104.96"
         inkscape:connector-curvature="0"
         id="path54"
         style="fill:#000000;fill-opacity:1;fill-rule:nonzero;stroke:none" /><path
         d="m 549.781,1125.21 -7.5,0 c -6.496,-32.99 -12.492,-80.97 -17.992,-144.44 -4.496,-52.481 -6.996,-87.965 -6.996,-106.461 0,-34.985 2,-66.973 5.996,-95.461 -9.496,9.496 -19.492,13.996 -30.984,13.996 -27.493,0 -47.985,-11.496 -62.477,-34.989 -9.996,-15.492 -14.996,-30.484 -14.996,-44.98 6,-41.484 23.492,-62.477 52.48,-62.477 9.997,0 16.993,2 21.493,6 l 5.996,6.497 -4.996,22.492 c -33.489,0 -49.981,8.996 -49.981,26.488 7.496,37.484 22.492,55.977 44.981,55.977 13.496,0 28.488,-14.493 44.484,-42.981 3.996,-7 7.496,-13.496 10.496,-18.992 2.996,-8.996 6.496,-17.496 9.996,-25.992 0,-9.496 -1,-14.992 -3,-16.992 -0.5,-0.5 -0.5,-1.5 0.5,-2.5 l 7.496,5 c 1.5,-2 3,-3 4,-3 6.996,-11.997 14.993,-22.493 23.489,-31.989 13.496,15.996 19.992,33.489 19.992,52.481 0,22.992 -5.996,89.465 -17.992,199.422 -13.493,120.451 -24.989,201.421 -34.485,242.901"
         inkscape:connector-curvature="0"
         id="path56"
         style="fill:#000000;fill-opacity:1;fill-rule:nonzero;stroke:none" /><path
         d="m 782.188,669.891 c 13.492,20.992 19.992,37.488 19.992,49.48 0.5,15.996 -3,30.988 -9.996,45.484 -13.496,28.489 -38.485,42.981 -74.969,42.981 -20.492,0 -35.488,-12.492 -45.485,-37.484 -6.496,-15.993 -9.496,-31.989 -9.496,-48.481 0,-22.492 3,-38.984 9.496,-48.98 13.497,-21.493 41.985,-32.489 85.465,-32.489 4,0 12.496,9.996 24.993,29.489 z m -54.977,-6.996 c 5.996,14.496 5.996,26.488 0,34.988 -9.996,-9.996 -18.496,-14.996 -24.992,-14.996 -3.5,6.996 -5.496,11.996 -6.996,14.996 -2,4.996 -3,12.492 -3,22.488 0,15.496 4,27.988 12.496,37.484 7.496,8.5 16.992,12.997 27.488,12.997 26.488,0.5 39.984,-17.493 39.984,-53.977 0,-15.996 -1,-26.492 -3,-30.988 -5.496,-14.496 -19.492,-21.992 -41.98,-22.992"
         inkscape:connector-curvature="0"
         id="path58"
         style="fill:#000000;fill-opacity:1;fill-rule:nonzero;stroke:none" /><path
         d="m 1159.54,915.293 c -18,-14.492 -33.49,-44.981 -46.99,-91.461 -7.49,-25.492 -16.99,-60.477 -27.98,-105.961 -2.5,2.5 -13.5,18.996 -31.99,49.481 -12.5,20.492 -30.99,30.488 -55.478,30.488 -14.997,0 -24.993,-10.496 -29.989,-31.485 -3,-11.996 -5.5,-32.488 -7.496,-60.976 -23.992,51.476 -39.984,83.465 -47.48,94.961 -11.496,-1.5 -18.496,-4.996 -19.992,-9.996 2.996,-9.496 10.992,-35.985 23.988,-80.469 14.996,-39.484 31.988,-59.477 50.98,-59.477 9.996,0 16.492,2 19.992,6 l 4.997,6.497 c 0,56.476 6.5,90.964 19.988,102.46 2,-3.5 13.5,-21.992 33.99,-56.48 14.49,-24.488 25.49,-40.48 33.49,-48.48 19.99,5 30.98,7.5 32.48,7.5 6.5,60.472 11.5,104.957 14.5,132.445 5.5,47.98 16.49,86.465 32.99,114.953"
         inkscape:connector-curvature="0"
         id="path60"
         style="fill:#000000;fill-opacity:1;fill-rule:nonzero;stroke:none" /><path
         d="m 502.301,175.59 c 0,10.996 -1.5,18.992 -4.5,23.492 -9.496,13.492 -29.489,20.492 -60.477,20.492 -36.484,0 -54.976,-26.492 -54.976,-79.969 4.996,-66.4722 29.988,-99.9605 74.968,-99.9605 14.496,0 28.489,5.9961 41.985,17.4922 13.492,11.4961 20.492,22.9922 20.492,33.4883 0,9.996 -1.5,16.492 -4,19.992 -3,1.5 -4.996,3.996 -5.996,6.496 -0.5,-0.5 -5.5,-7.996 -14.996,-23.4919 -7.496,-12.4922 -22.489,-18.9922 -44.981,-18.9922 -10.496,0 -19.492,8.9961 -27.488,26.4921 -6.5,14.492 -9.996,26.988 -9.996,38.484 22.488,-0.5 42.98,2.997 61.973,10.497 18.496,7.496 27.992,15.992 27.992,25.488 z m -68.473,3.5 c 7.496,1.996 19.492,-0.5 35.984,-7 -24.992,-14.992 -43.984,-22.488 -57.476,-22.488 l 0,4.996 c 5.496,14.496 12.992,22.492 21.492,24.492"
         inkscape:connector-curvature="0"
         id="path62"
         style="fill:#000000;fill-opacity:1;fill-rule:nonzero;stroke:none" /><path
         d="m 598.762,94.6211 c -1.5,6.9999 -3,10.9959 -4,12.4959 49.98,24.492 74.968,41.485 74.968,50.981 0,10.496 -0.5,15.492 -1,14.992 -0.496,0 -0.996,-1 -1.496,-3.496 -11.496,11.492 -28.488,17.492 -49.98,17.492 -15.496,0 -30.488,-7.496 -44.984,-22.992 C 558.777,150.102 552.277,137.605 552.277,127.109 600.758,40.6445 655.738,16.1523 717.215,54.6367 l -7.5,14.9961 c -54.477,-5.9961 -88.965,-3 -102.957,8.9961 -4,3.5 -6.496,8.9961 -7.996,15.9922 z m 10.996,62.4769 24.988,2.5 2.5,-5 c -3,-4.496 -11.496,-9.496 -25.492,-15.993 -13.492,-6.5 -23.988,-9.996 -31.984,-11.496 8.496,19.993 18.492,29.989 29.988,29.989"
         inkscape:connector-curvature="0"
         id="path64"
         style="fill:#000000;fill-opacity:1;fill-rule:nonzero;stroke:none" /><path
         d="m 207.418,342.023 7.496,12.497 c -4.5,15.492 -8.996,25.488 -12.996,30.988 -12.492,16.492 -31.984,24.988 -59.477,24.988 -35.984,0 -56.9762,-10.996 -62.9722,-32.488 -3.5,-11.992 -3,-30.488 0.5,-54.977 0,-36.484 5.496,-77.969 15.9921,-124.949 -9.4961,-1.5 -18.9921,-4 -28.4882,-6.5 C 22.4922,180.09 0,170.594 0,163.094 0,146.602 1.5,142.602 4.99609,152.098 l 22.49221,-4.996 c 21.4922,0 47.9805,3 79.4687,8.996 13.996,-50.481 30.988,-89.9652 50.481,-118.9535 l 9.996,12.4961 c -1,7.4961 -9.496,45.9805 -24.993,114.4534 1.5,0.5 3.5,1 5.5,1.5 41.485,10.496 69.473,18.992 84.465,26.488 -5.496,11.496 -20.492,17.496 -44.98,17.496 -16.496,0 -34.988,-1.5 -54.481,-4.5 -11.992,53.977 -17.992,91.965 -17.992,114.453 0,24.992 1.5,42.485 5,52.481 l 49.981,4.996 c 5.996,0 11.992,-3.496 17.492,-10.496 11.996,-14.992 18.492,-22.989 19.992,-24.489"
         inkscape:connector-curvature="0"
         id="path66"
         style="fill:#000000;fill-opacity:1;fill-rule:nonzero;stroke:none" /><path
         d="m 349.859,207.078 c -33.484,-19.492 -59.476,-29.988 -77.468,-32.488 4.5,-39.985 13.496,-99.9611 27.488,-179.92594 7,0.9961 12.496,2.9961 16.996,5.996096 2.996,2.500004 4.996,4.000004 5.496,4.000004 0,45.48044 1.5,75.96874 4.996,91.46094 3.5,14.9959 5,31.9879 5,50.9809 0,9.496 2.5,20.992 7.996,33.488 6,14.992 8.996,23.988 9.496,26.488"
         inkscape:connector-curvature="0"
         id="path68"
         style="fill:#000000;fill-opacity:1;fill-rule:nonzero;stroke:none" /></g></g></svg>