<?xml version="1.0" encoding="UTF-8" standalone="no"?>
<!-- Created with Inkscape (http://www.inkscape.org/) -->

<svg
   xmlns:dc="http://purl.org/dc/elements/1.1/"
   xmlns:cc="http://creativecommons.org/ns#"
   xmlns:rdf="http://www.w3.org/1999/02/22-rdf-syntax-ns#"
   xmlns:svg="http://www.w3.org/2000/svg"
   xmlns="http://www.w3.org/2000/svg"
   xmlns:inkscape="http://www.inkscape.org/namespaces/inkscape"
   version="1.1"
   width="337.5"
   height="252.5"
   id="svg2"
   xml:space="preserve"><metadata
     id="metadata8"><rdf:RDF><cc:Work
         rdf:about=""><dc:format>image/svg+xml</dc:format><dc:type
           rdf:resource="http://purl.org/dc/dcmitype/StillImage" /></cc:Work></rdf:RDF></metadata><defs
     id="defs6" /><g
     transform="matrix(1.25,0,0,-1.25,0,252.5)"
     id="g10"><g
       transform="scale(0.1,0.1)"
       id="g12"><path
         d="m 1469.41,1930.04 c -8.5,0 -15.49,-6 -20.49,-17.5 -2.5,-5.99 -4.5,-12.49 -6.5,-19.49 -13.99,6.5 -27.49,8.5 -40.98,6 l 0,-36.99 c 2.5,-5.49 5,-29.49 7.5,-71.97 6.99,-39.48 24.49,-59.47 51.97,-59.47 8.5,0 13.5,1.49 16,4.99 l 2.5,5.5 c 0,65.48 0.5,111.96 2,139.44 6.5,-11.49 15.49,-34.98 25.99,-69.47 11.49,-30.48 25.49,-47.98 41.98,-53.47 -4.5,35.48 -10.5,66.97 -17.99,94.46 -15,51.98 -35.49,77.97 -61.98,77.97"
         inkscape:connector-curvature="0"
         id="path14"
         style="fill:#000000;fill-opacity:1;fill-rule:nonzero;stroke:none" /><path
         d="m 1325.47,1866.06 c -10.5,0 -18.99,-4.5 -26.49,-13.99 -7,-9 -10.5,-19.5 -10.5,-30.99 4.5,-35.49 15.5,-53.48 32.99,-53.48 8.5,0 14.49,3 18.49,8.5 l 6,7.99 c 1.5,-3.99 3,-5.99 4.5,-5.99 1.5,-12.5 2,-25.49 2,-39.99 0,-17.49 -1.5,-28.99 -5,-34.99 -8.5,-15.49 -27.99,-27.48 -58.98,-35.98 l 2.5,-6 c 1.5,-4.5 4,-9.99 8,-16.49 l 38.98,-2 c 17.5,0 31.49,13.49 40.99,40.98 7,19.49 10.5,38.99 10.5,58.48 0,21.49 -2.5,42.98 -8,63.48 -10.5,40.48 -29.49,60.47 -55.98,60.47 z m 13.49,-66.97 c -1,0 -3.5,0 -6.99,-0.5 -5.5,5.5 -9,11.99 -10.5,20.49 3,4 8.5,6 16.49,6 l 4,-13 c 0,-8.49 -1,-12.49 -3,-12.99"
         inkscape:connector-curvature="0"
         id="path16"
         style="fill:#000000;fill-opacity:1;fill-rule:nonzero;stroke:none" /><path
         d="m 1225.01,1993.51 2,6 c -4.5,13.49 -12.99,20.49 -24.49,20.49 -13.5,0 -20.49,-0.5 -20.49,-2 0,-6.5 3.5,-13.99 9.99,-22.49 15.5,1.5 26.49,0.5 32.99,-2"
         inkscape:connector-curvature="0"
         id="path18"
         style="fill:#000000;fill-opacity:1;fill-rule:nonzero;stroke:none" /><path
         d="m 1881.75,1847.57 c -3.5,22.49 -7,36.48 -10,41.48 -7,-7 -11,-10.5 -12.49,-10.5 -2.5,-24.48 -4,-39.98 -4,-45.98 0,-6.49 4.49,-15.49 13.99,-26.48 14,-16 32.49,-24 55.48,-24 11,0 24.99,3.5 41.48,10.5 20.49,8.5 30.49,17.99 30.49,28.49 0.5,26.49 -1.5,51.98 -6,76.97 -7.99,49.98 -22.49,74.97 -43.48,74.97 l -6,0 0,-2 c 0,-4.5 9.5,-17.99 28.99,-40.98 0,-1.5 -2.5,-20.5 -7,-57.48 -8.99,-36.99 -25.98,-55.48 -50.48,-55.48 -14.49,0 -24.98,10 -30.98,30.49"
         inkscape:connector-curvature="0"
         id="path20"
         style="fill:#000000;fill-opacity:1;fill-rule:nonzero;stroke:none" /><path
         d="m 2070.67,1948.53 -6.49,-2 c 1.49,-27.49 3.49,-64.98 4.99,-111.96 0,0.5 0,0.5 -0.5,1 l -4.49,-6.49 c 1.49,-2.5 3.49,-4.5 5.49,-7 0.5,-8.5 0.5,-17.49 1,-25.99 5,-54.48 17.99,-102.46 38.99,-143.44 7.49,7.49 12.99,22.49 17.49,45.48 3.5,16.99 5,30.49 5,40.98 0,11 -1,23.49 -3.5,36.99 4.49,-1.5 9.49,-2 13.99,-2 21.49,0 37.49,9.99 48.98,29.99 8.5,14.99 12.5,30.48 12.5,46.98 0.5,14.49 -1.5,28.98 -6.5,42.48 -9.5,26.99 -27.49,40.49 -54.98,40.49 -11.49,0 -24.99,-7.5 -40.98,-23 -4.5,-3.99 -8,-7.49 -11,-10.99 -6,15.49 -12.49,31.49 -19.99,48.48 z m 39.99,-103.46 c 4.49,4.5 6.49,11.5 6.99,20.99 0.5,11.5 11.5,18.49 32.99,20.49 8.5,-12.49 12.49,-24.49 12.49,-36.48 0.5,-28.99 -12.99,-44.48 -40.48,-46.98 -3.5,12.99 -7.5,26.98 -11.99,41.98"
         inkscape:connector-curvature="0"
         id="path22"
         style="fill:#000000;fill-opacity:1;fill-rule:nonzero;stroke:none" /><path
         d="m 2569.47,1169.84 c 13.49,0 18.49,2.5 13.99,8 0.5,48.48 2,81.46 4.5,99.96 4.5,33.99 14,60.97 28.49,81.47 21.5,-25 36.49,-58.48 44.98,-99.97 9.5,-51.48 18.5,-85.46 27,-101.96 7.99,20.5 11.99,44.99 11.99,72.48 -3.5,27.48 -9.5,55.47 -18.49,82.96 -17,55.48 -37.99,83.47 -63.48,83.47 -38.48,0 -61.47,-18.99 -69.47,-56.48 -1.5,-6.5 -2.5,-32.98 -2.5,-79.97 0,-1 0,-16.49 0,-45.98 2.5,-29.48 10.5,-43.98 22.99,-43.98"
         inkscape:connector-curvature="0"
         id="path24"
         style="fill:#000000;fill-opacity:1;fill-rule:nonzero;stroke:none" /><path
         d="m 2158.64,1323.78 c 0,-10.5 -3,-31.99 -9,-65.48 -10.5,23 -26.49,34.49 -48.48,34.49 -21.99,0 -39.48,-9.5 -52.98,-28.49 -11,-15.49 -16.49,-31.98 -16.49,-49.48 0,-15.49 4.99,-31.48 14.49,-48.98 13.5,-24.49 31.49,-36.98 54.98,-36.98 15.49,0 29.99,12.49 43.48,36.98 0,0.5 0.5,1 1,1.5 0.5,-3 0.5,-6.5 1,-10 l 46.98,0 8.5,6 0,6.5 c -14.5,-4.5 -23.99,-4.5 -27.49,0 -1,1 -1.5,4.5 -1.5,10 12.49,80.96 18.49,128.45 18.49,141.94 1,13.99 -1,27.99 -6.5,41.48 -10.49,27.49 -31.48,41.49 -63.47,41.49 -6.5,0 -22.49,-6.5 -47.48,-19 -28.49,-14.49 -42.48,-26.98 -42.48,-38.48 0,-14 2,-16.99 5.99,-9.5 5.5,0.5 19.5,6 41.99,16.5 21.49,10.49 36.98,15.49 46.48,15.49 25.99,0 36.98,-15.49 32.49,-45.98 z m -45.48,-95.96 c 5.49,-11 8.49,-18 8.49,-21 0,-1.5 -3,-6.49 -8.99,-14.49 -6.5,-9.49 -13,-15.99 -19.5,-20.49 -13.49,16.49 -20.49,31.49 -20.49,45.98 0,8.5 8,19.99 24.49,33.99 4.5,-4.5 10,-12.5 16,-23.99"
         inkscape:connector-curvature="0"
         id="path26"
         style="fill:#000000;fill-opacity:1;fill-rule:nonzero;stroke:none" /><path
         d="m 1984.21,1190.33 c -15.5,-8.49 -35.49,-7.99 -59.48,1 -19.49,7.5 -32.49,15.99 -38.98,25.49 35.48,25.49 53.47,50.48 53.47,73.97 -10.49,39.49 -32.98,59.48 -67.47,59.48 -10,0 -22.49,-7 -36.98,-20.49 -16.5,-15.5 -24.99,-30.99 -24.99,-46.49 0,-3.49 1.99,-10.99 5.49,-22.49 5,-16.99 11.5,-32.48 19,-46.98 24.99,-44.48 59.47,-66.47 102.96,-66.47 29.48,0 47.98,6 55.47,18.49 l -8.49,24.49 z m -131.45,112.96 c 0.5,4 5.5,6 14.49,6 24.49,0 36.99,-14 36.99,-42.49 0,-1.5 -10,-9.5 -30.49,-22.99 -6,6 -10.5,10.99 -13.5,14.99 -4.49,6.5 -6.99,14 -6.99,22.5 -1.5,11.49 -1.5,18.99 -0.5,21.99"
         inkscape:connector-curvature="0"
         id="path28"
         style="fill:#000000;fill-opacity:1;fill-rule:nonzero;stroke:none" /><path
         d="m 2497.5,1257.8 c 0.5,14.5 -2,28.99 -8,43.49 -11.99,28.49 -34.48,42.98 -67.97,42.98 -12.99,0 -24.99,-7 -36.48,-20.49 -11.5,-13.49 -17,-26.99 -17,-40.49 0,-0.99 3.5,-20.99 10.5,-59.97 11.49,-38.48 28.49,-57.48 50.98,-57.48 24.99,0 43.48,12 55.47,36.49 8.5,16.99 12.5,35.48 12.5,55.47 z m -36.98,1 c 0,-13.49 -3,-21.99 -9,-25.98 -11,-7 -18.49,-13 -21.99,-18 -13.5,30.49 -20.49,51.98 -20.49,64.48 0,21.99 8.49,29.49 25.99,21.99 16.99,-7 25.49,-20.99 25.49,-42.49"
         inkscape:connector-curvature="0"
         id="path30"
         style="fill:#000000;fill-opacity:1;fill-rule:nonzero;stroke:none" /><path
         d="m 2342.56,1250.81 c -8.99,4.99 -33.49,14.99 -72.97,29.99 2.5,1.5 7.5,11.49 15,29.49 4.49,9.99 15.99,16.49 34.48,19.49 l -20.49,7.99 c -50.48,-11.99 -75.97,-34.48 -75.97,-67.47 0,-13 12.5,-22.49 36.98,-27.99 30.49,-6.5 49.98,-15.99 59.48,-27.49 -8.5,-12.49 -12.49,-19.99 -12.49,-22.49 l -53.48,0 c 0,5 -7,6.5 -20.49,4 l -4,-11.99 c 5,-4.5 8.5,-11 10.5,-18.5 6.49,-5.5 28.98,-8.5 67.47,-8.5 16.49,0 35.98,20 59.47,59.48 0,13.5 -8,24.49 -23.49,33.99"
         inkscape:connector-curvature="0"
         id="path32"
         style="fill:#000000;fill-opacity:1;fill-rule:nonzero;stroke:none" /><path
         d="m 1256,1763.6 c 6.5,2.5 12.99,6 18.49,10.5 -9.5,64.47 -14.49,97.46 -14.99,99.46 -8.5,34.48 -25.49,62.48 -50.98,82.96 l -6,0 c 0,-6.49 4.5,-15.99 13.49,-27.48 8.5,-11.5 13,-21 13,-28.49 0,-20 -4,-41.49 -11.5,-64.48 -2,-19.49 11,-43.98 38.49,-72.47"
         inkscape:connector-curvature="0"
         id="path34"
         style="fill:#000000;fill-opacity:1;fill-rule:nonzero;stroke:none" /><path
         d="m 1264,1103.87 c 23.98,0 38.98,12.49 44.98,36.98 1.5,5.5 2.5,20.99 2.5,45.98 -3.5,16.5 -9.5,32.49 -19,47.98 -18.49,30.49 -42.98,45.99 -73.47,45.99 -31.49,0 -50.48,-9.5 -57.47,-28.99 -1.5,-3.5 -2,-17 -2,-39.99 0,-26.49 3,-45.98 8.49,-58.47 14.5,-32.99 46.49,-49.48 95.97,-49.48 z m 3.99,55.47 c 0,-13.49 -0.5,-16.49 -2,-7.99 -25.49,-2 -43.48,7.99 -54.97,30.49 -9.5,18.49 -11.5,34.98 -6.5,49.48 42.48,4.49 63.47,-19.5 63.47,-71.98"
         inkscape:connector-curvature="0"
         id="path36"
         style="fill:#000000;fill-opacity:1;fill-rule:nonzero;stroke:none" /><path
         d="m 1818.27,1361.27 -12.49,6.49 c -24.49,-12.49 -44.48,-32.49 -59.48,-60.47 -3.5,14.99 -7,25.48 -10,31.48 -4.99,9.5 -13.49,14.5 -24.98,14.5 -8.5,0 -13.5,-0.5 -15,-2 -1,-1.5 -2,-3.5 -3.5,-7 3.5,-71.47 19,-136.45 47.48,-194.92 1.5,0.5 5,0 9.5,-1.5 1.5,-0.5 2.5,3.5 2.5,11.49 0,18 -1.5,36.49 -4.5,55.48 -2,15 -2.5,25.49 -1.5,31.99 2.5,15.49 26.49,53.98 71.97,114.46"
         inkscape:connector-curvature="0"
         id="path38"
         style="fill:#000000;fill-opacity:1;fill-rule:nonzero;stroke:none" /><path
         d="m 1783.29,857.965 -6,-2 0,-61.973 c 0.5,-2.5 2.5,-20.492 7,-53.98 -31.49,-6.996 -51.49,-16.992 -60.48,-29.989 2,-2.5 4.5,-4.996 7,-7.496 2.99,-2 8.99,-3 17.49,-3 13,0 26.49,0.5 40.49,2 0.5,-4.496 1,-8.496 1.5,-12.996 5.49,-44.98 15.99,-78.969 31.98,-101.457 5,1 10,4.996 14.5,11.996 -6.5,43.981 -11.5,79.465 -15.5,106.457 40.98,6.496 86.47,17.493 136.44,33.485 -43.48,6.5 -77.46,9.996 -102.45,9.996 -13.5,-0.5 -27.49,-1.5 -40.99,-3.496 -7.49,43.48 -17.99,80.965 -30.98,112.453"
         inkscape:connector-curvature="0"
         id="path40"
         style="fill:#000000;fill-opacity:1;fill-rule:nonzero;stroke:none" /><path
         d="m 1331.97,824.977 -6.5,0 c 4.5,-8.497 3,-25.989 -4,-52.477 0,-16.992 0.5,-33.988 2,-50.48 -24.99,-10.497 -46.98,-21.493 -65.47,-32.989 0,2.5 0,4.5 0,6.5 0,9.496 -5.5,21.989 -16.5,36.485 -14.49,19.492 -31.98,29.488 -51.48,29.488 -46.48,0 -69.47,-21.992 -69.47,-65.973 0,-5 1,-11.496 2.5,-19.992 2.5,-15.496 7.5,-29.488 14,-41.984 20.49,-39.485 54.47,-58.977 102.45,-58.977 19,0 28.49,8.996 28.49,26.488 0,8 -1,12.996 -2.5,14.996 -2.49,1.5 -3.49,3 -3.49,3.497 -32.49,0.5 -58.98,9.996 -78.47,29.488 -16.5,15.496 -23.99,30.988 -21.99,46.484 3,-1.5 8.49,-8 16.49,-19.492 6,-8.496 18.49,-12.996 36.99,-12.996 18.99,0 30.98,2.5 36.48,7.496 1,1 2,2 2.5,2.5 4.5,-2.5 10.99,-4 18.49,-4 15.49,0 33.49,5 54.98,14.496 1,-7.996 2,-15.992 3.5,-23.992 8.49,-48.481 19.99,-79.469 35.48,-92.961 12.5,30.488 18.5,60.477 18.5,88.965 0,4.996 -4.5,22.488 -14,52.976 20.49,13.497 42.98,30.489 67.48,50.981 -27.5,-6.996 -52.48,-14.492 -75.98,-22.992 -0.5,1.5 -0.99,3 -1.49,4.5 -15.5,49.98 -25.5,77.968 -28.99,83.965 z M 1167.53,712.023 c 14.5,7.497 24.49,9.997 30.49,6.997 3.5,-1.5 11.5,-8.997 22.99,-23.489 -1.5,-4 -8.99,-7.5 -22.49,-9.996 -7,1 -13.99,5.496 -20.49,12.992 -6,8 -9.5,12.496 -10.5,13.496"
         inkscape:connector-curvature="0"
         id="path42"
         style="fill:#000000;fill-opacity:1;fill-rule:nonzero;stroke:none" /><path
         d="m 1551.38,285.195 c -11,-15.996 -16.49,-33.488 -16.49,-52.48 0,-13.496 1.5,-22.992 3.99,-27.488 l 8.5,2 c 4.5,16.492 9,28.988 13.5,37.484 7.99,14.492 23.99,24.488 47.98,30.488 12.49,-49.48 18.49,-74.972 18.49,-77.469 0,-5.5 -1.5,-16.996 -4,-34.488 0.5,6 -0.5,11.996 -2,17.492 -4.5,20.493 -19.99,30.489 -45.48,30.489 -11.49,0 -20.49,-10.996 -27.99,-32.485 -6,-16.996 -9,-32.488 -9,-46.484 0,-21.988 1,-35.4845 3.5,-39.9845 5.5,-12.4922 20.5,-26.4883 45.98,-42.9804 11,16.4921 19.5,32.4882 25,48.9804 -2.5,-35.9843 3.99,-56.4765 19.99,-61.4765 9.99,8.4961 19.49,35.4882 27.99,79.969 7.49,37.984 10.99,65.472 10.99,82.965 -6.5,78.968 -24.99,118.453 -55.48,118.453 -28.49,0 -50.47,-10.996 -65.47,-32.985 z m 12,-120.953 c 1,12.496 5.99,18.492 14.49,18.492 2.5,0 4.5,0 6,0 3.49,-6.496 6.99,-20.492 9.99,-40.984 3,-19.492 4.5,-35.984 4.5,-49.4805 0,-13.4922 -2,-16.4922 -6,-7.9961 -13.99,12.4961 -21.99,19.9926 -24.49,22.9926 -2.49,3.5 -3.99,10.996 -3.99,22.992 -1.5,15.492 -1.5,26.488 -0.5,33.984"
         inkscape:connector-curvature="0"
         id="path44"
         style="fill:#000000;fill-opacity:1;fill-rule:nonzero;stroke:none" /><path
         d="m 1399.44,435.633 -9.99,0 c -1.5,-1.5 -3,-3.496 -4.5,-5.996 13.49,-170.934 21.49,-314.375 22.99,-429.828406 l 5.99,0 c 11.5,24.488306 19,51.980506 21.5,82.468706 0.5,10.4922 1,39.4807 1,86.9647 -1.5,45.481 -4.5,89.961 -8,134.446 -7.5,87.964 -17.5,131.945 -28.99,131.945"
         inkscape:connector-curvature="0"
         id="path46"
         style="fill:#000000;fill-opacity:1;fill-rule:nonzero;stroke:none" /><path
         d="m 1758.8,332.676 -6.5,0 c -8.5,-35.985 -14.5,-73.973 -17.5,-114.453 -23.48,-7.5 -35.48,-16.996 -35.48,-27.493 l 32.49,-18.492 0.5,0 c -0.5,-8.496 -0.5,-16.992 -0.5,-25.988 0,-3 1.49,-21.992 4.99,-56.9766 3,-33.4882 4,-58.4765 3.5,-74.9726 4,-0.9961 7.5,-2.4961 10.5,-4.49611 1.5,-1 6.5,-1.5 13.99,-1.5 8.5,0 13.5,1.5 15.5,5.00001 l 3,4.9961 c 2.5,24.4922 4,39.9844 4,45.9804 0,14.4961 -3.5,56.4808 -10.5,124.9528 10,3.996 21.99,8.996 35.98,14.493 31.49,12.496 63.48,20.992 95.47,25.988 -3,7 -18,10.496 -44.99,10.496 -28.48,-1.996 -55.97,-5.496 -83.46,-10.996 -2.5,-0.5 -5,-0.996 -7.5,-1.496 -6.5,57.476 -10.99,92.461 -13.49,104.957"
         inkscape:connector-curvature="0"
         id="path48"
         style="fill:#000000;fill-opacity:1;fill-rule:nonzero;stroke:none" /><path
         d="m 2260.59,622.559 c 3.5,10.496 5.5,17.992 7,21.992 -18.99,-9.496 -38.98,-4.5 -59.97,15.492 -17.5,16.496 -27.49,32.488 -30.49,47.98 31.99,-10.496 53.48,-10.496 63.97,0 5.5,5.5 8,14.997 8,28.489 1.5,35.488 -16.49,53.48 -53.48,53.48 -26.49,0 -43.48,-9.496 -50.98,-28.988 -3,-7.496 -4.5,-20.492 -4.5,-39.984 0,-0.5 0,-6.497 0.5,-18.493 1.5,-13.996 4,-26.988 8,-38.484 12.5,-36.484 37.98,-54.481 75.97,-54.481 18.49,0 30.49,4.5 35.98,12.997 z m -83.46,105.957 0,6 c 0,6.996 3,12.992 8.49,18.492 10.5,-1.5 17.5,-4.5 22,-8.996 2.5,-2.5 5.49,-6 8.49,-11.496 -1.5,-2 -3,-4.5 -3.5,-7.496 -1.49,-1.5 -6.49,-2.5 -14.99,-2.5 -8.5,0 -14.5,1 -17.99,2.5 l -2.5,3.496"
         inkscape:connector-curvature="0"
         id="path50"
         style="fill:#000000;fill-opacity:1;fill-rule:nonzero;stroke:none" /><path
         d="m 1978.21,929.438 c -12,-7.5 -18.5,-23.493 -19,-48.481 -0.5,-13.496 0.5,-29.488 2.5,-48.98 0,-55.981 1,-91.965 3,-107.957 5,-43.485 17.5,-76.469 37.99,-99.961 4.5,8.996 6.5,20.492 6.5,34.484 -1,16.496 -1.5,28.988 -1.5,36.988 0.5,30.489 13.99,53.477 40.48,69.973 21.49,-10.496 33.99,-29.988 36.48,-58.477 3,-30.488 11.5,-50.48 25,-60.476 l 3.99,9.996 c 1.5,6.996 2,17.492 2,30.984 -0.5,18.996 -3.49,37.489 -9.99,54.981 -13,35.484 -34.99,53.476 -65.98,53.476 -14.49,0 -24.48,-4.496 -30.98,-12.992 -3,-4.5 -5.5,-10.496 -8,-17.492 1.5,37.984 2,65.973 0.5,84.465 -2,31.488 -9.5,57.976 -22.99,79.469"
         inkscape:connector-curvature="0"
         id="path52"
         style="fill:#000000;fill-opacity:1;fill-rule:nonzero;stroke:none" /><path
         d="m 2224.61,8.30469 c 5.5,1.5 9.5,2.50001 12,4.00001 1.5,2.4961 3.99,7.9961 6.49,16.4922 -5.49,7.9961 -11.99,13.4961 -18.49,16.4922 -5.5,-0.5 -10,-1 -12.5,-1.9961 -3.99,-1.5 -5.99,-7 -5.99,-15.9961 0,-8.4961 1.5,-13.9922 4.5,-15.9922 1.99,-1 6.49,-2.00001 13.99,-3.00001"
         inkscape:connector-curvature="0"
         id="path54"
         style="fill:#000000;fill-opacity:1;fill-rule:nonzero;stroke:none" /><path
         d="m 2179.13,178.738 c -2.5,5.996 -9,13.992 -19.99,23.989 -14.5,13.996 -27.99,20.992 -41.49,20.992 -20.49,0 -32.99,-15.992 -38.48,-47.481 -1.5,-9.496 -2.5,-30.988 -2.5,-64.476 0,-1.496 0,-18.4925 0.5,-50.9768 3.5,-32.4883 14.49,-48.4805 32.49,-48.4805 13.49,0 19.99,1.9961 18.49,5.9961 0.5,2.5 2,5 3.5,6.4961 0.5,0 0.5,4 0.5,11.9961 -4,57.4765 -4.5,99.961 -2,127.449 19.99,-2.5 36.48,2 48.98,14.496"
         inkscape:connector-curvature="0"
         id="path56"
         style="fill:#000000;fill-opacity:1;fill-rule:nonzero;stroke:none" /><path
         d="m 2019.19,139.754 c 0,10.496 -2.5,20.492 -7.99,29.988 -11,19.492 -29.99,29.488 -57.48,29.488 -27.99,0 -48.48,-7.5 -61.48,-22.992 -8.49,-10.496 -12.49,-21.492 -12.49,-33.988 0,-0.5 0.5,-6.996 1.5,-20.492 2.5,-15.492 7,-29.9846 13.49,-42.4807 19.49,-40.4843 55.48,-60.9765 107.96,-60.9765 12.5,0 23.49,4 32.98,12.4961 9.5,8.4961 14.5,17.9922 14.5,28.4883 0,8.496 -1,13.4921 -3,13.9921 l -3.5,-1.4961 c -12.49,-12.496 -26.49,-18.496 -41.98,-18.496 -30.49,0 -53.98,11.496 -70.47,34.4882 -12.5,16.9926 -18.5,33.4886 -18.5,49.4806 -2,4.496 -2,8.496 0,12.496 4.5,8.496 17,12.492 37.49,12.492 15.49,0 25.49,-1.996 29.99,-6.496 4,-3.5 6,-10.496 6,-21.492 0,-5.496 -9,-13.992 -26.5,-25.488 -1.5,1.5 -8.99,10.996 -22.48,28.488 l -4,-6 c 7.99,-17.492 13.49,-27.488 16.49,-30.484 7.5,-8.5005 19.49,-12.4966 36.49,-12.4966 11.99,0 20.99,6.4961 26.49,19.9926 4.49,9.996 6.49,20.492 6.49,31.488"
         inkscape:connector-curvature="0"
         id="path58"
         style="fill:#000000;fill-opacity:1;fill-rule:nonzero;stroke:none" /><path
         d="m 206.918,1960.52 c -7.996,-18.49 -11.996,-39.98 -11.996,-64.47 0,-1 4,-22.99 11.996,-66.47 12.992,-42.49 31.488,-63.98 55.477,-63.98 57.976,0 96.46,10.5 115.453,30.99 11.996,13 17.992,35.48 17.992,67.47 0,24.49 -7.996,51.48 -23.988,79.97 -23.493,41.49 -55.477,61.97 -96.961,61.97 -31.489,0 -54.481,-14.99 -67.973,-45.48 z m 24.988,-63.47 c 0.5,44.98 10.996,67.47 30.489,67.47 34.488,0 60.976,-13.49 78.468,-40.98 11.996,-18.99 17.992,-38.49 17.992,-57.98 0,-1.5 0,-12.49 0.5,-32.99 -4.496,-19.99 -17.492,-29.98 -39.484,-29.98 -9.996,0 -24.988,10.49 -44.98,30.98 l 0,-6.49 20.492,-30.49 -7.996,-2 c -16.496,6.5 -29.989,22.99 -41.485,50.48 -9.496,21.99 -13.996,39.48 -13.996,51.98"
         inkscape:connector-curvature="0"
         id="path60"
         style="fill:#000000;fill-opacity:1;fill-rule:nonzero;stroke:none" /><path
         d="m 482.309,1925.54 -4.5,21.99 c -2.5,11.49 -8.497,16.99 -17.993,16.99 -13.996,0 -19.992,-2.5 -18.492,-7.99 l 0,-79.97 c 3.496,-11.5 5.496,-33.99 5.996,-67.47 3,-27.5 13.996,-41.49 32.989,-41.49 8.496,0 13.992,1.5 15.992,5 1,4 2,7 2.5,9.49 -13.996,40.99 -20.992,73.98 -20.992,98.46 28.988,33.49 43.484,55.49 43.484,65.98 0,9.5 4.496,23.49 13.992,42.98 -8.496,-3.5 -18.992,-13.99 -31.488,-32.49 -12.992,-19.98 -19.992,-30.48 -21.488,-31.48"
         inkscape:connector-curvature="0"
         id="path62"
         style="fill:#000000;fill-opacity:1;fill-rule:nonzero;stroke:none" /><path
         d="m 1030.09,2014 c -28.49,0 -50.981,-6.5 -67.977,-18.99 -17.492,-12.49 -26.488,-29.99 -26.488,-51.48 0,-12.49 7.996,-22.99 24.492,-31.49 8.496,-4 26.488,-10.49 54.973,-19.49 52.48,-16.99 78.47,-37.98 78.47,-63.47 0,-6.5 -6.49,-17 -19.99,-30.99 -15.99,-16 -31.99,-23.99 -47.48,-23.99 -40.985,0 -72.473,9.99 -94.461,30.49 l 5.996,12.49 -5.996,0 c -2.5,-4 -6.5,-8.49 -10.996,-13.99 -3.5,-4.5 -5.5,-11.5 -5.5,-20 0,-5.49 7.496,-12.49 22.492,-21.98 19.492,-12 42.484,-18 67.975,-18 26.49,0 53.97,10 83.46,30.49 28.99,20.49 43.49,38.98 43.49,55.48 0,13.99 -16,34.98 -48.48,62.47 -37.99,32.49 -76.47,48.48 -115.457,48.48 l 0,10.5 c 3.496,8.99 11.996,17.99 25.489,26.99 20.488,13.49 46.978,19.99 78.968,19.99 9.5,-2.5 16.49,-4 20.49,-4 l -2,6 c -18.99,9.49 -39.48,14.49 -61.47,14.49"
         inkscape:connector-curvature="0"
         id="path64"
         style="fill:#000000;fill-opacity:1;fill-rule:nonzero;stroke:none" /><path
         d="m 1034.09,1296.79 c -58.481,-35.49 -87.969,-53.98 -87.969,-56.48 3.5,-90.96 18.992,-136.44 46.981,-136.44 8.498,0 12.998,1 13.498,3 l 1,3.49 c 2,10.5 2.5,24 1,41.49 -1.5,18.99 -2.5,32.99 -2.5,42.48 -1,33.49 9.49,57.48 31.99,71.97 30.48,-17.49 53.97,-48.98 70.46,-93.46 9.5,-26.49 16,-42.98 19,-49.48 8.5,-17.49 19.49,-30.49 31.99,-39.98 -10.5,50.48 -21,91.46 -31.99,123.44 -20.99,59.98 -51.98,89.97 -93.46,89.97"
         inkscape:connector-curvature="0"
         id="path66"
         style="fill:#000000;fill-opacity:1;fill-rule:nonzero;stroke:none" /><path
         d="m 206.918,1369.76 c -11.496,14.49 -20.992,24.49 -27.988,29.99 -11.996,8.5 -30.489,12.99 -55.981,12.99 -19.492,0 -34.4842,-8.99 -44.9802,-26.49 -8.4961,-13.99 -12.4961,-29.98 -12.4961,-48.48 0,-21.49 2,-42.98 5.5,-65.47 -12.4961,-2.5 -24.9922,-7 -36.4883,-12.5 C 11.4961,1248.31 0,1236.31 0,1223.32 c 0,-14 1.5,-19.99 4,-18.49 l 24.4883,-4.5 c 14.9961,0 33.9883,3 56.4765,8.99 9.4961,-34.48 23.4922,-69.47 41.9842,-105.45 8.496,1.5 13.996,6.49 16.492,14.49 -10.996,36.99 -19.992,70.97 -26.988,101.46 27.488,9 43.485,13.5 47.481,13.5 32.988,-5.5 52.98,-7.5 59.476,-6 -15.492,13.49 -35.984,25.49 -60.976,34.98 -22.989,9.5 -41.481,14 -55.977,14 -0.5,0 -0.5,0 -0.5,0 -3.496,23.99 -5.496,45.48 -5.496,63.97 -1.5001,26.49 11.496,39.49 38.984,39.49 39.485,-12.5 62.973,-19.99 69.973,-22.49 l -2.5,12.49"
         inkscape:connector-curvature="0"
         id="path68"
         style="fill:#000000;fill-opacity:1;fill-rule:nonzero;stroke:none" /><path
         d="m 215.414,1206.82 c -14.996,-17.49 -22.492,-32.98 -22.492,-46.48 0,-1 2,-11.99 6,-32.48 9.496,-20 27.988,-29.99 55.476,-29.99 11.997,0 33.985,10.99 65.473,32.99 30.488,20.49 45.484,32.98 45.484,37.48 0,9 -6,20.99 -17.996,35.99 -18.492,21.99 -42.48,32.98 -72.468,32.98 -21.993,0 -41.985,-9.99 -59.477,-30.49 z m 108.957,-49.48 -12.496,-3.99 c -4.496,1.5 -10.496,4.49 -17.492,9.49 -5.5,3.5 -8.996,5.5 -11.496,5 1.5,-5 4.5,-7.5 7.996,-7.5 1,-1 -2.996,-9.49 -11.996,-25.48 -15.992,0 -30.985,8.99 -44.981,26.48 17.492,20.5 28.489,30.99 32.989,30.99 22.488,0 41.98,-11.49 57.476,-34.99"
         inkscape:connector-curvature="0"
         id="path70"
         style="fill:#000000;fill-opacity:1;fill-rule:nonzero;stroke:none" /><path
         d="m 467.812,1272.3 c -13.496,0 -20.992,-2.5 -22.492,-8 l 0,-73.97 c 2.5,-8.49 5.5,-30.99 8.996,-67.47 6.5,-31.49 21.993,-47.48 46.485,-47.48 8.496,0 13.492,2 15.492,5.5 0.5,5 1.5,8.49 3,10.99 -13.496,30.49 -20.492,49.98 -20.492,57.98 27.488,43.48 40.984,68.47 40.984,75.97 0,12.99 1,21.49 2.496,24.99 4.5,11.49 16.996,18.99 36.489,21.49 -3,5.5 -12.497,8.5 -28.989,8.5 -7,0 -24.992,-12.5 -53.48,-36.99 -5.996,18.99 -15.492,28.49 -28.489,28.49"
         inkscape:connector-curvature="0"
         id="path72"
         style="fill:#000000;fill-opacity:1;fill-rule:nonzero;stroke:none" /><path
         d="m 502.797,874.457 -6.496,0 c -9.496,-53.477 -15.492,-122.449 -18.492,-207.414 -4,4.996 -7.997,9.496 -11.997,13.992 -7.996,8.496 -13.992,12.496 -18.492,12.496 -13.492,0 -23.988,-3.5 -30.988,-9.996 -2.496,-24.492 -3.996,-37.984 -3.996,-40.484 0,-0.5 2.5,-13.996 7.996,-39.985 10.496,-25.988 28.988,-38.984 55.477,-38.984 22.992,0 37.484,22.992 43.484,69.473 1.5,11.496 2,41.484 2,89.465 0,41.484 -6,91.96 -18.496,151.437 z M 436.824,665.043 c 0,7.496 0.5,12.496 2,14.492 1.5,1.5 2.5,3 2.5,4 11.496,-3.5 21.992,-15.492 31.488,-35.984 7.497,-16.496 11.493,-28.989 11.493,-37.489 0,-8.496 -1.496,-13.992 -3.996,-15.492 -1.5,-1 -4.5,-1.5 -8.497,-1.5 -5.5,5.5 -12.496,16.992 -21.492,34.489 -8.996,17.992 -13.496,30.488 -13.496,37.484"
         inkscape:connector-curvature="0"
         id="path74"
         style="fill:#000000;fill-opacity:1;fill-rule:nonzero;stroke:none" /><path
         d="m 328.367,779.996 c -8.496,0 -22.488,-16.492 -42.98,-49.48 -20.492,0 -32.489,-2 -34.989,-6.496 -1.496,-2.5 -1.996,-15.497 -1.996,-39.985 0,-64.476 12.993,-107.457 38.985,-129.949 5.496,0.5 9.496,1.5 10.992,2 2,1 3,5.996 3,14.492 0,45.984 0.5,73.473 1.5,82.469 2.5,30.988 10.496,60.976 23.492,89.965 23.488,-19.492 37.484,-49.981 41.481,-90.465 4.5,-42.485 13.496,-70.473 25.992,-83.965 8.496,6.496 12.992,9.996 14.492,9.996 -1.5,45.481 -5.496,83.965 -11.996,114.453 -11.992,57.977 -34.485,86.965 -67.973,86.965"
         inkscape:connector-curvature="0"
         id="path76"
         style="fill:#000000;fill-opacity:1;fill-rule:nonzero;stroke:none" /><path
         d="m 143.441,847.469 -9.996,0 C 104.457,817.98 88.4648,795.488 85.9648,779.996 l 12.4961,-2 c 27.4881,27.488 41.9841,42.484 42.9841,44.984 0.996,-1.5 9.993,-28.988 26.489,-83.468 0,-3.496 0,-6.496 0,-9.996 -9.496,7.496 -21.993,11.496 -36.485,11.496 -32.4881,0 -52.9802,-11.996 -61.9763,-35.485 -2.5,-7 -4,-20.492 -4,-39.984 0,-63.477 24.4921,-94.965 73.9723,-94.965 17.993,0 31.485,7.5 40.985,21.992 2.496,-3.496 5.496,-7.496 8.496,-11.996 l 1.996,6.5 c -3.996,1.5 -7.496,3.996 -9.996,6.496 9.496,15.496 13.996,38.985 13.996,69.973 0,5.496 -0.5,11.496 -1.5,16.992 2,27.488 2,53.981 -0.5,80.469 -5.496,57.476 -21.992,86.465 -49.481,86.465 z m -3.996,-219.41 c -20.492,-8 -33.488,-6.5 -38.484,4.996 -1.5001,4 -2.5001,14.996 -2.5001,32.488 -6.9961,26.988 2.5001,40.484 28.4881,40.484 17.492,0 28.989,-6.5 34.485,-18.992 -1.496,-7 -3.496,-13.996 -5.496,-20.992 -1,-8.996 0,-18.992 3,-29.988 -1,-2.5 -2,-5.5 -3.5,-8.996 -7.997,-18.493 -15.993,-29.989 -23.989,-34.989 8.496,5.5 10.992,17.492 7.996,35.989"
         inkscape:connector-curvature="0"
         id="path78"
         style="fill:#000000;fill-opacity:1;fill-rule:nonzero;stroke:none" /><path
         d="m 207.418,300.188 c -15.496,-29.489 -25.492,-46.981 -30.988,-51.977 0,3.496 -2,7.496 -5.5,11.492 -3.996,4.5 -8.496,7 -12.992,7 l -6,-6 c 1.5,-36.984 0,-88.465 -4.497,-153.937 0,-27.4887 5.497,-44.9808 16.493,-53.4808 8.996,14.996 15.496,34.4882 19.992,58.9768 3.5,28.492 6.996,49.98 9.496,64.476 8.996,54.477 30.488,93.961 64.976,118.953 7.497,-12.496 11.993,-29.988 12.493,-52.98 0,-6.496 -1,-26.988 -2.496,-61.477 -1.5,-23.488 -0.5,-40.48 2.996,-50.976 4.5,-14.496 13.496,-21.492 27.988,-21.492 8.496,0 13.496,0.5 13.996,1 -0.5,1.5 0,2.496 0.5,2.996 4.496,14.996 6.496,41.984 5.996,81.468 -0.5,35.485 3.5,63.477 12.496,82.969 15.492,-28.988 27.988,-74.472 36.485,-136.445 C 377.348,79.2773 389.344,34.793 404.34,8.30469 l 3.996,11.99611 c -2.5,16.9922 -4.496,45.4804 -4.996,84.9652 -0.5,47.48 -1,79.468 -2.5,96.461 -5.5,74.972 -26.988,112.457 -64.473,112.457 -8,0 -16.496,-3 -24.992,-9.496 -8.496,-6 -12.996,-8.997 -13.992,-8.997 -7.5,22.989 -22.992,34.485 -46.985,34.485 -17.992,0 -32.484,-9.996 -42.98,-29.988"
         inkscape:connector-curvature="0"
         id="path80"
         style="fill:#000000;fill-opacity:1;fill-rule:nonzero;stroke:none" /><path
         d="m 543.781,233.715 -5.996,0 c -1,-13.996 0.5,-39.485 4,-76.969 0.496,-33.988 -8,-59.4765 -24.492,-76.9687 -4.5,33.4847 -18.492,72.4687 -41.484,117.4527 -3.997,-4.5 -6.497,-8.496 -7.997,-12.496 -2.5,-24.488 -4,-38.984 -4,-42.984 25.993,-64.4727 46.485,-96.4609 61.477,-96.4609 16.992,0 29.988,16.4961 38.484,48.9804 5.5,20.9925 8.497,40.4845 8.497,58.4765 0,27.488 -9.497,54.481 -28.489,80.969"
         inkscape:connector-curvature="0"
         id="path82"
         style="fill:#000000;fill-opacity:1;fill-rule:nonzero;stroke:none" /><path
         d="m 932.129,718.02 c -8.5,-13.493 -12.996,-24.989 -12.996,-33.985 5.496,-38.484 19.492,-57.976 40.984,-57.976 10.996,0 19.492,3.996 24.988,12.496 5.5,11.992 9.997,21.488 13.997,28.488 15.488,-22.492 22.988,-54.481 22.988,-95.965 -7,-45.48 -24.988,-68.473 -53.477,-68.473 -26.988,0 -44.484,5.5 -52.48,15.997 -4.996,13.492 -10.996,22.492 -17.492,27.488 -4,-12.496 -5.996,-21.492 -5.996,-27.988 0,-10.497 4.496,-19.493 13.992,-27.989 15.496,-13.496 39.984,-19.992 73.972,-19.992 20.991,0 39.981,12.992 57.481,38.484 15.49,21.993 22.98,41.485 22.98,58.477 -1.5,30.488 -6.99,59.477 -16.49,87.965 -18.49,57.476 -46.478,85.965 -84.463,85.965 -9.496,0 -18.492,-7.496 -27.988,-22.992 z m 25.488,-17.993 c 3.5,2.5 4.996,3.5 4.996,4 17.496,-4.5 26.492,-14.496 26.492,-29.988 0,-13.496 -0.5,-20.992 -2,-21.492 l -22.492,-2 c -6.996,16.996 -10.496,28.488 -10.496,34.988 0,7.996 1,12.992 3.5,14.492"
         inkscape:connector-curvature="0"
         id="path84"
         style="fill:#000000;fill-opacity:1;fill-rule:nonzero;stroke:none" /><path
         d="m 673.23,270.699 c -21.992,0 -41.984,-7.996 -59.976,-24.488 -16.492,-14.496 -24.488,-28.988 -24.488,-42.984 0,-17.493 6.496,-29.989 19.992,-37.985 7.496,-4.5 21.988,-8.496 42.98,-11.996 20.992,-2.996 34.989,-6.496 42.485,-10.996 13.492,-6.996 19.992,-18.492 19.992,-34.984 0,-6.496 -2,-15.4926 -6.5,-27.4887 -6.496,-17.4921 -14.492,-26.4921 -24.488,-26.4921 -17.493,0 -29.489,3.5 -36.985,10.996 -6,9.4961 -11.996,15.9961 -18.492,19.9922 17.992,-39.4843 35.984,-59.4765 53.477,-59.4765 44.984,0 67.472,35.9883 67.472,108.4571 0,26.492 -13.992,43.984 -41.98,52.98 -16.496,5.496 -42.485,11.496 -78.969,18.993 56.477,27.988 88.965,44.48 98.461,48.98 -27.492,10.996 -44.984,16.492 -52.981,16.492"
         inkscape:connector-curvature="0"
         id="path86"
         style="fill:#000000;fill-opacity:1;fill-rule:nonzero;stroke:none" /><path
         d="m 815.672,274.199 c -1.996,4.496 -6.996,6.996 -15.492,6.996 -8.496,0 -14.492,-2 -16.992,-5.996 -1.5,-2.5 -2.5,-6 -3.5,-10.496 4.5,-6.996 13.496,-10.496 26.488,-10.496 l 18.496,2.5 -4,5.996 c -2,5 -3.5,8.996 -5,11.496"
         inkscape:connector-curvature="0"
         id="path88"
         style="fill:#000000;fill-opacity:1;fill-rule:nonzero;stroke:none" /><path
         d="m 960.117,38.793 c 15.992,0 26.488,6.9961 30.985,20.4922 -5.497,11.496 -18.493,27.4882 -38.985,47.9808 -22.488,21.492 -36.484,35.984 -42.98,42.484 6.496,5.496 15.492,9.996 27.488,13.992 10.496,3.5 15.992,6.5 17.492,8.496 -6.496,5 -15.492,9.996 -27.988,15.496 -13.492,6.496 -23.988,9.496 -31.488,9.496 -15.493,0 -24.989,-4 -28.489,-12.496 -1.5,-3.5 -2.496,-12.496 -2.496,-27.988 0,-1 8.496,-20.992 25.489,-59.9765 21.492,-38.4843 44.98,-57.9765 70.972,-57.9765"
         inkscape:connector-curvature="0"
         id="path90"
         style="fill:#000000;fill-opacity:1;fill-rule:nonzero;stroke:none" /><path
         d="m 804.18,209.227 c 3.496,-32.489 2.496,-52.481 -4,-60.477 -5.496,-55.4805 1.5,-82.9688 20.492,-82.9688 8.496,0 13.496,0.5 13.996,2 l -1.5,2 c 5.496,13.4922 7.996,25.4883 7.996,34.9848 0,22.992 -2,40.484 -5.5,51.98 -4.496,13.492 -14.992,31.988 -31.484,54.477 l 0,-1.996"
         inkscape:connector-curvature="0"
         id="path92"
         style="fill:#000000;fill-opacity:1;fill-rule:nonzero;stroke:none" /></g></g></svg>