<?xml version="1.0" encoding="UTF-8" standalone="no"?>
<!-- Created with Inkscape (http://www.inkscape.org/) -->

<svg
   xmlns:dc="http://purl.org/dc/elements/1.1/"
   xmlns:cc="http://creativecommons.org/ns#"
   xmlns:rdf="http://www.w3.org/1999/02/22-rdf-syntax-ns#"
   xmlns:svg="http://www.w3.org/2000/svg"
   xmlns="http://www.w3.org/2000/svg"
   xmlns:inkscape="http://www.inkscape.org/namespaces/inkscape"
   version="1.1"
   width="1040"
   height="1517.5"
   id="svg2"
   xml:space="preserve"><metadata
     id="metadata8"><rdf:RDF><cc:Work
         rdf:about=""><dc:format>image/svg+xml</dc:format><dc:type
           rdf:resource="http://purl.org/dc/dcmitype/StillImage" /></cc:Work></rdf:RDF></metadata><defs
     id="defs6" /><g
     transform="matrix(1.25,0,0,-1.25,0,1517.5)"
     id="g10"><g
       transform="scale(0.1,0.1)"
       id="g12"><path
         d="m 2872.68,5642.95 c -22.49,5 -42.98,7.5 -62.47,7.5 -22.99,0 -45.48,-10 -67.48,-29.99 -19.99,-18.5 -29.98,-34.49 -29.98,-48.98 0,-15.5 10.99,-31.99 32.48,-48.48 29.99,-23.5 71.48,-34.99 124.95,-34.99 31.49,0 52.98,7.5 64.98,22.49 -108.46,25.49 -170.93,48.98 -187.43,69.97 10,7.5 30.49,13.5 60.98,18.99 46.98,8 72.47,12.5 76.47,13.5 -8.5,12.49 -12.5,22.49 -12.5,29.99"
         inkscape:connector-curvature="0"
         id="path14"
         style="fill:#000000;fill-opacity:1;fill-rule:nonzero;stroke:none" /><path
         d="m 3010.13,5647.95 c -32.49,0 -53.98,-7.5 -64.48,-22.5 -5.49,-7.49 -7.99,-19.99 -7.99,-37.48 0,-5 0.5,-11 2,-18.49 2.5,-13.5 6.99,-25.49 12.99,-36.99 18.99,-34.49 51.48,-51.98 97.46,-51.98 10.5,0 15.5,2.5 16,7 -1.5,6 -1.5,10.49 -1,12.99 -46.99,27.49 -72.97,42.99 -77.47,46.48 -16.5,12.5 -24.99,26.5 -24.99,41.99 3.49,12.49 4.99,21.49 4.99,26.49 l 47.48,2.5 c 3.5,0 16.5,-9 38.49,-26.99 23.99,-20.49 37.98,-36.49 41.48,-47.98 -5.49,-8.5 -19.99,-12.5 -42.48,-12.5 -9,0 -18.99,2.5 -29.49,7 -9.5,4.5 -15.49,6 -17.99,5.5 29.49,-21.49 61.48,-32.49 94.96,-32.49 11.5,0 18.5,4.5 21.99,13 2,5.49 3,15.99 3,31.98 0,12.5 -10.99,29.49 -32.49,51.98 -25.98,26.99 -53.47,40.49 -82.46,40.49"
         inkscape:connector-curvature="0"
         id="path16"
         style="fill:#000000;fill-opacity:1;fill-rule:nonzero;stroke:none" /><path
         d="m 3354.99,5495.51 c -5.5,10.49 -10.49,29.49 -15.49,57.47 -7.5,37.49 -12.5,61.48 -15.5,72.97 -15.99,59.48 -43.98,89.47 -83.96,89.47 -12,0 -21,-6 -27.49,-17.99 -3,-5.5 -7.5,-19 -13,-39.49 -10,-36.98 -27.99,-53.48 -54.48,-49.98 -1,-22.49 5.5,-48.98 19,-80.47 7.99,-17.49 20.99,-43.48 38.48,-76.97 l 22.49,10 c 1.5,5 2.5,10 2.5,15 0,18.49 -2.5,37.98 -8,58.47 -6.99,26.99 -10.99,42.48 -11.49,45.98 -4.5,32.49 10.99,67.48 46.98,105.46 19.99,-19.49 37.99,-52.98 53.48,-99.46 16.99,-50.48 30.99,-81.97 41.48,-95.46 l 5,5"
         inkscape:connector-curvature="0"
         id="path18"
         style="fill:#000000;fill-opacity:1;fill-rule:nonzero;stroke:none" /><path
         d="m 3424.96,5765.4 c -5,-34.99 -7.5,-53.48 -7.5,-54.98 0,-16.49 4.5,-47.98 13,-93.46 -4,-1 -8,-2 -12.5,-3.5 -33.98,-10 -53.98,-20.99 -60.47,-32.99 5.5,-8.49 16.49,-12.49 32.49,-12.49 14.49,0 30.48,2 48.48,6.5 6.49,-31.99 14.49,-68.98 23.99,-111.46 11.49,1.5 18.99,5 22.49,10 -2.5,31.48 -8,67.97 -15.99,110.45 19.99,6.5 41.98,15.49 65.97,26.99 -1.5,2.5 -9.5,6 -23.99,9.5 -15.5,3.5 -28.99,5.49 -40.98,5.49 -2.5,0 -5.5,-0.5 -9.5,-1 -0.5,0.5 -0.5,1.5 -0.5,2 -15.5,73.48 -24.49,119.96 -27.49,138.95 l -7.5,0"
         inkscape:connector-curvature="0"
         id="path20"
         style="fill:#000000;fill-opacity:1;fill-rule:nonzero;stroke:none" /><path
         d="m 3589.89,5610.46 c -13.49,0 -25.48,-9 -34.98,-27.49 -8.5,-15.49 -12.5,-31.99 -12.5,-48.98 -4.99,-45.48 9,-68.47 42.49,-68.47 29.49,0 47.98,13.99 55.98,42.48 3.5,-32.48 13.49,-57.48 28.98,-74.97 17.5,11.5 32.49,20.99 44.99,27.49 l -2.5,5 c -21.49,-6.5 -33.99,-9 -37.49,-7.5 0,8.5 3,28.49 8.5,60.98 5.5,30.98 7.5,55.48 7,72.97 -2.5,57.48 -35.99,85.96 -100.47,85.96 -4.49,0 -17.99,-9.99 -39.98,-29.98 11.5,-3.5 28.99,-5.5 52.98,-5.5 20.49,0 31.49,-0.5 31.99,-2 0.5,-3.5 1.5,-22.99 3,-57.98 -8.5,18.49 -24.49,27.99 -47.99,27.99 z m -8.49,-56.98 c 3.5,8.5 5.5,14.5 6,17 13.49,5.49 22.49,3 25.99,-6.5 1,-3 1.5,-11 1.5,-23.49 0,-16.49 -1.5,-25.99 -5,-27.49 -16.5,-1.5 -26.49,-2.5 -29.99,-2.5 -1.5,5 -2.5,11 -2.5,18.49 0,9.5 1.5,17.99 4,24.49"
         inkscape:connector-curvature="0"
         id="path22"
         style="fill:#000000;fill-opacity:1;fill-rule:nonzero;stroke:none" /><path
         d="m 3727.34,5572.98 c 0,-3 2,-10 6.5,-21 5.5,-15.49 12.99,-29.98 21.49,-42.98 26.49,-40.48 61.47,-60.97 104.46,-60.97 15.49,0 29.49,8.99 42.48,27.49 -6.5,9.99 -29.99,26.98 -69.47,50.48 -35.49,20.98 -52.98,35.98 -52.98,45.48 0,9.99 0.5,15.49 2,15.99 2,-0.5 4,0.5 5.5,3 21.49,-1.5 33.98,-1.5 37.48,0 -8.5,7.49 -14.49,12.49 -18.49,15.99 -7.5,6 -15.99,9 -26.49,9 -7,0 -16.99,-4.5 -29.99,-13 -14.99,-9.49 -22.49,-19.49 -22.49,-29.48"
         inkscape:connector-curvature="0"
         id="path24"
         style="fill:#000000;fill-opacity:1;fill-rule:nonzero;stroke:none" /><path
         d="m 4114.69,5650.45 c -36.49,13.49 -61.48,19.99 -74.98,19.99 -17.99,0 -37.98,-2.5 -59.97,-7 -10,62.97 -18.99,104.46 -27.49,124.45 -11.5,-12.5 -20.99,-50.98 -27.49,-114.96 0,-8.49 0,-16.49 0.5,-24.48 l -0.5,0 c -43.48,-14.5 -64.97,-26.49 -64.97,-35.49 0,-11 2,-18 5.5,-21.49 0.5,-0.5 5,-2.5 14.49,-6 13.99,4.5 29.99,9.49 47.98,14.99 5.5,-63.97 19.49,-108.95 41.98,-134.94 7,6.5 13,22.49 18.5,47.48 4.49,19.99 6.49,35.48 6.49,45.98 -2.5,20.99 -5.5,40.48 -7.99,58.48 36.98,9.99 79.47,20.99 127.95,32.99"
         inkscape:connector-curvature="0"
         id="path26"
         style="fill:#000000;fill-opacity:1;fill-rule:nonzero;stroke:none" /><path
         d="m 2835.7,12128.9 61.97,0 c -10.49,9.9 -22.99,14.9 -37.48,14.9 -9,0 -16.99,-5 -24.49,-14.9"
         inkscape:connector-curvature="0"
         id="path28"
         style="fill:#000000;fill-opacity:1;fill-rule:nonzero;stroke:none" /><path
         d="m 2907.67,752.406 c -13.49,-30.488 -19.99,-56.48 -19.99,-78.968 0,-0.5 1,-12.497 3,-35.489 3.5,-27.488 8.99,-52.476 16.99,-74.969 24.99,-71.972 67.47,-107.957 127.45,-107.957 26.99,0 48.48,11.497 64.47,34.485 12,16.996 18,31.988 18,45.484 0,20.992 -7.5,35.985 -22.5,44.981 -4.49,-14.993 -6.99,-22.989 -7.49,-24.489 -8,-11.996 -23.49,-17.992 -45.98,-17.992 -21.5,0 -39.49,22.488 -53.98,67.473 35.48,6.996 58.97,24.488 70.47,51.976 6.5,14.497 9.5,35.989 9.5,63.977 2.5,17.492 1,33.484 -5.5,48.98 -11.5,29.989 -38.99,44.981 -81.97,44.981 -29.99,0 -53.98,-20.992 -72.47,-62.473 z m 79.97,-19.992 0,2.496 c 2.5,-6.496 2.5,-15.992 0,-27.988 -3,-12.996 -8,-23.488 -15,-31.988 l 0,5 c 6.5,24.988 11.5,42.484 15,52.48"
         inkscape:connector-curvature="0"
         id="path30"
         style="fill:#000000;fill-opacity:1;fill-rule:nonzero;stroke:none" /><path
         d="m 2542.82,722.418 0,2.496 c 3.49,14.996 4.99,27.988 4.49,39.484 -0.5,21.993 -9.49,32.989 -26.99,32.989 -16.49,0 -23.99,-3.5 -22.49,-9.996 -13.49,-89.965 -19.99,-153.938 -19.99,-191.422 -5,-90.465 9,-135.949 42.48,-135.949 10.5,0 16,1 17,2.5 l -2,2.5 c 7.5,23.492 21.99,82.964 43.48,178.429 16.49,74.469 34.49,130.446 53.98,168.93 1.5,-14.992 2.5,-36.484 2.5,-63.973 0,-31.988 -2,-86.965 -5.5,-164.433 -0.5,-70.473 6,-125.95 20.49,-166.434 15.5,30.488 35.49,92.961 60.98,187.426 23.99,87.965 47.98,151.937 71.47,192.422 6.49,-29.489 9.99,-98.961 10.99,-208.418 5.5,-94.461 22.5,-141.442 51.49,-141.442 10.49,0 15.99,1 16.49,3.496 -1,3.5 -0.5,6.5 1,8.997 -1.5,4.5 -2,9 -0.5,13.496 2,6.996 3,14.496 3,22.492 1.49,63.972 0,126.949 -5.5,189.422 -10,124.453 -31.49,186.925 -64.48,186.925 -27.48,0 -52.98,-22.988 -77.46,-69.472 -12,-23.488 -23,-48.481 -32.49,-75.469 6.49,39.984 8.99,71.973 8.49,95.461 -1.5,44.484 -18.99,66.973 -53.47,66.973 -33.99,0 -66.48,-55.977 -97.46,-167.43"
         inkscape:connector-curvature="0"
         id="path32"
         style="fill:#000000;fill-opacity:1;fill-rule:nonzero;stroke:none" /><path
         d="m 3271.52,377.055 c 4,11.496 21,51.48 50.98,120.453 l -9.99,-2.5 c -32.99,-38.485 -59.48,-89.465 -79.97,-153.438 -18.49,-57.48 -27.49,-109.957 -27.49,-157.937 0,-35.488 16.49,-71.973 49.98,-108.9572 44.98,-49.4805 106.46,-74.468769 184.93,-74.468769 108.45,0 184.42,75.468769 227.9,226.905969 23,80.469 34.49,168.434 34.49,262.895 0.5,49.48 -1.5,97.961 -5,146.441 -6.99,95.465 -19.49,143.446 -37.48,143.446 -18.49,0 -41.49,-17.993 -68.48,-54.481 -28.98,-39.484 -53.47,-62.473 -73.96,-67.973 -8.5,1 -14,3 -17.5,6 l -1.5,2.497 c -0.5,2.5 -1,8 -1,16.496 0,6.996 2,17.992 6.5,33.484 3.5,11.996 3.5,20.992 1,26.492 -22.99,-7.5 -40.48,-22.992 -51.98,-45.984 -8.5,-16.492 -12.99,-32.985 -12.99,-48.981 13.49,-43.48 34.98,-64.972 64.97,-64.972 12.5,0 30.99,6.996 54.48,21.492 27.99,16.492 47.98,34.984 60.47,55.976 l 2.5,-5 0,-74.968 c -0.5,-18.493 -0.5,-59.977 0.5,-123.95 -0.5,-64.476 -4.5,-118.953 -11.99,-162.933 -22.99,-135.449 -81.47,-202.922 -175.93,-202.922 -84.97,0 -139.94,17.992 -164.94,54.48 -13.49,19.493 -19.99,57.477 -19.99,112.954 0,39.484 7,78.968 21.49,119.453"
         inkscape:connector-curvature="0"
         id="path34"
         style="fill:#000000;fill-opacity:1;fill-rule:nonzero;stroke:none" /><path
         d="m 1938.06,773.395 c 0,12.496 -5,29.488 -15.5,50.98 -14.99,31.988 -35.48,47.98 -61.97,47.98 -46.48,0 -79.97,-29.988 -99.96,-89.964 -11.5,-34.985 -17.49,-71.469 -17.49,-108.953 0,-4.5 1.99,-18.993 6.49,-42.485 6.5,-32.988 13.99,-62.976 22.99,-90.465 27.99,-86.965 63.98,-130.445 107.96,-130.445 26.49,0 45.48,12.992 56.98,39.484 6.99,15.993 10.49,33.485 10.49,52.977 0,16.492 -6,36.484 -17.49,59.976 -5,-5 -9,-9.996 -12.49,-14.996 -2,-24.488 -8.5,-46.48 -20,-64.972 -21.49,19.492 -38.48,47.98 -51.98,85.465 -11.99,39.984 -21.49,67.472 -27.98,81.968 l 16.49,4.996 c 39.48,0 67.97,15.997 85.96,47.485 11.5,20.988 17.5,44.48 17.5,70.969 z m -87.47,16.496 c 6.5,-10.496 9.5,-24.493 8,-41.985 -1.5,-23.492 -14.5,-36.984 -37.98,-40.484 l 0,5 c 10.99,37.484 20.98,62.473 29.98,74.969 l 0,2.5"
         inkscape:connector-curvature="0"
         id="path36"
         style="fill:#000000;fill-opacity:1;fill-rule:nonzero;stroke:none" /><path
         d="m 1710.65,687.43 c 0,27.488 0,41.984 0,43.484 0,12.492 -2,28.488 -6.5,47.981 -6.5,28.488 -9.99,44.48 -10.49,48.48 -6.5,40.484 0,77.469 19.49,109.957 -26.49,-18.992 -50.98,-52.48 -73.97,-100.461 -22.99,-46.98 -33.99,-85.965 -33.49,-116.953 l -2.5,0 c -3,8.496 -8.49,38.984 -16.49,90.465 -5.5,36.484 -17.5,65.472 -35.99,86.965 -26.49,-28.989 -39.98,-71.973 -39.98,-128.95 0,-0.5 1.5,-16.492 4,-47.48 4,-36.488 9.49,-69.973 15.99,-100.461 20.99,-96.961 50.98,-145.441 89.96,-145.441 41.49,0 68.98,41.484 82.47,124.949 4.5,25.988 7,54.976 7.5,87.465"
         inkscape:connector-curvature="0"
         id="path38"
         style="fill:#000000;fill-opacity:1;fill-rule:nonzero;stroke:none" /><path
         d="m 1400.77,974.816 c -9.49,-3.5 -13.99,-6 -14.49,-6.5 -3.5,-2.996 -5.5,-9.996 -5.5,-20.988 0,-12.996 11,-27.992 32.49,-44.984 5,10.496 7.5,24.492 7.5,40.984 0,15.492 -6.5,25.988 -20,31.488"
         inkscape:connector-curvature="0"
         id="path40"
         style="fill:#000000;fill-opacity:1;fill-rule:nonzero;stroke:none" /><path
         d="m 1133.38,1107.26 c -34.99,41.49 -70.97,79.97 -107.46,114.45 -71.471,68.48 -126.447,102.97 -164.932,102.97 -133.445,0 -228.91,-77.47 -285.386,-232.41 -31.489,-86.47 -46.981,-176.43 -46.981,-269.895 0,-129.945 19.992,-242.402 59.477,-337.863 78.468,-187.926 222.91,-281.887 432.832,-281.887 70.46,0 135.44,64.973 194.92,194.422 19.49,42.984 36.98,89.465 51.97,138.945 12,39.985 18,64.973 18,74.969 2.5,50.48 1,100.461 -5,149.441 -1.5,14.493 -4,27.989 -6.5,40.485 19.5,16.492 28.99,30.984 28.99,42.48 0,11.496 -2.5,23.492 -7.5,35.988 -8.99,21.989 -23.99,32.985 -44.98,32.985 -13.49,0 -28.49,-2 -45.98,-5.496 -1.5,0.5 -3.5,0.5 -5,0.5 -13.99,0 -19.49,-2 -16.49,-5.5 -38.48,-9.996 -85.47,-27.489 -139.95,-52.477 -101.453,-45.984 -152.433,-88.465 -152.433,-126.949 0,-1 9.996,-9.996 29.988,-27.492 0.5,0 28.488,17.996 84.465,53.98 49.98,32.489 89.96,48.481 120.45,48.481 11.5,-23.492 29.99,-34.989 54.98,-34.989 13.5,0 27.49,2.5 40.98,7 -1,-12.996 -2.5,-32.488 -4,-57.976 -5.99,-62.477 -14.99,-119.953 -26.98,-171.934 C 1151.87,373.055 1089.4,290.09 1003.43,290.09 c -141.442,0 -244.903,63.972 -310.375,192.422 -41.485,80.468 -61.973,164.433 -61.973,250.898 -3.5,83.469 3.996,165.438 22.488,246.902 36.485,162.938 108.957,244.398 217.414,244.398 13.496,0 55.477,-16.49 125.95,-49.98 70.476,-33.48 115.456,-57.47 133.946,-72.46 l 2.5,4.99"
         inkscape:connector-curvature="0"
         id="path42"
         style="fill:#000000;fill-opacity:1;fill-rule:nonzero;stroke:none" /><path
         d="m 1413.27,757.402 -7.5,0 c 0,-19.992 -3.5,-52.48 -10,-97.461 0,-16.492 -4.99,-78.968 -14.99,-187.425 0,-0.5 10,-9.496 29.99,-27.489 21.49,4.5 34.48,15.493 39.98,33.989 1.5,5.996 2.5,19.988 2.5,41.98 0,36.484 -5,72.473 -15.49,107.457 -12.5,42.485 -20.49,85.465 -24.49,128.949"
         inkscape:connector-curvature="0"
         id="path44"
         style="fill:#000000;fill-opacity:1;fill-rule:nonzero;stroke:none" /><path
         d="m 8273.02,492.508 c -9.99,-1.5 -16.49,-2.5 -19.99,-2.5 -1.5,-8.496 -2.5,-14.992 -2.5,-19.992 0,-23.489 9,-34.985 27.49,-34.985 19.99,0 32.49,7.496 37.48,22.492 l -4.99,14.993 c -6.5,5.5 -11,9.996 -14,12.996 -5.49,4.496 -13.49,6.996 -23.49,6.996"
         inkscape:connector-curvature="0"
         id="path46"
         style="fill:#000000;fill-opacity:1;fill-rule:nonzero;stroke:none" /><path
         d="m 7693.25,608.461 c 0.5,17.492 -3,33.488 -9.49,48.98 -13.5,29.989 -38.99,44.985 -75.47,44.985 -34.99,0 -61.48,-19.992 -79.47,-59.977 -12,-26.492 -17.99,-49.98 -17.99,-71.472 0,-5.497 1,-14.993 2.99,-28.489 3.5,-21.492 8.5,-41.484 15,-59.476 20.49,-56.977 53.98,-85.465 99.46,-85.465 39.99,0 59.98,18.992 59.98,57.476 -39.49,17.493 -73.97,49.981 -102.46,97.461 22.49,-2 45.98,3.5 70.47,15.993 24.49,12.496 36.98,25.992 36.98,39.984 z m -82.46,36.488 c 5.5,0 9.99,0 12.49,0 5.5,-5.5 9.5,-17.496 12.5,-34.988 -6.5,-6.496 -18.49,-13.496 -34.99,-19.992 -6.5,1 -10.49,3 -12.99,6 l -2,3.996 c 1.5,12.496 3.5,21.492 5,27.988 2.99,11.496 9.49,16.996 19.99,16.996"
         inkscape:connector-curvature="0"
         id="path48"
         style="fill:#000000;fill-opacity:1;fill-rule:nonzero;stroke:none" /><path
         d="m 7448.35,702.426 c -10.49,0 -24.99,-9.996 -44.48,-29.988 -18.49,-18.993 -27.99,-31.489 -27.99,-37.485 0,-87.965 7.5,-164.437 22.49,-229.91 6.5,1.5 12.5,4 17.49,7.496 5,19.492 6.5,43.484 4.5,72.973 -3.5,32.488 -5.99,56.976 -6.49,73.468 -1.5,58.977 20.49,104.961 66.97,138.446 -5,3.5 -16,5 -32.49,5"
         inkscape:connector-curvature="0"
         id="path50"
         style="fill:#000000;fill-opacity:1;fill-rule:nonzero;stroke:none" /><path
         d="m 8090.59,639.949 17.5,5 c 16.49,0 30.98,-1 42.48,-2.5 -6.5,9.996 -18.49,21.492 -34.98,34.985 -23,18.492 -43.99,27.488 -62.48,27.488 -29.99,0 -44.98,-10.996 -44.98,-32.484 0,-6 23.99,-31.989 71.47,-77.469 47.48,-45.485 70.97,-78.469 70.97,-98.961 0,-16.496 -2.5,-25.492 -7.5,-25.992 -51.48,-1.496 -78.96,-2.496 -82.46,-2.496 0,-9.997 2.5,-22.493 7.5,-37.485 l 39.98,-5 c 51.48,0 77.47,22.992 77.47,68.473 0,24.492 -31.49,73.469 -94.97,146.441"
         inkscape:connector-curvature="0"
         id="path52"
         style="fill:#000000;fill-opacity:1;fill-rule:nonzero;stroke:none" /><path
         d="m 7964.64,605.965 c -45.98,44.48 -68.97,80.465 -68.97,107.453 0,10.996 0,18.996 0,23.992 21.49,-2.5 39.99,-2.5 54.98,0 -7,13.496 -14.99,25.988 -24.49,37.485 -17.99,23.492 -37.48,34.988 -57.98,34.988 -23.98,0 -38.98,-9.996 -44.98,-30.488 -1.5,-6 -2.5,-21.993 -2.5,-48.481 0,-32.488 12,-61.976 36.49,-88.465 39.48,-42.984 71.47,-88.965 95.96,-137.445 -72.47,12.496 -122.45,15.492 -149.44,9.496 -18.49,-4 -27.99,-13.996 -27.99,-29.488 0,-9.496 7,-19.992 20.49,-30.489 23.49,-17.992 60.48,-26.988 111.96,-26.988 83.46,0 124.95,25.988 124.95,77.469 0,22.492 -22.99,56.476 -68.48,100.961"
         inkscape:connector-curvature="0"
         id="path54"
         style="fill:#000000;fill-opacity:1;fill-rule:nonzero;stroke:none" /><path
         d="m 7270.92,879.852 c 0.5,93.464 -13.49,139.948 -42.48,139.948 -20.99,0 -41.98,-72.472 -62.48,-217.917 -13.49,-96.461 -21.49,-166.93 -23.99,-210.914 -18.49,12.496 -42.98,18.992 -73.47,18.992 -54.97,0 -82.46,-37.484 -82.46,-112.453 0,-12.496 5,-28.988 15.49,-48.981 15.49,-30.488 37.99,-45.984 66.97,-45.984 25.49,0 42.99,4 52.48,11.996 8.5,7.496 12.5,19.992 12.5,37.984 0,9.997 -5,22.493 -15,37.485 -2.5,-2.496 -6,-6.996 -10.99,-12.992 -5.5,-4.5 -13.5,-7 -23.99,-7 -9.5,0 -17.5,6.5 -24.99,19.492 -6.5,12.496 -10,24.992 -10,37.988 0,21.488 23.49,32.484 69.97,32.484 14.5,0 21.5,-11.996 20.5,-35.484 -0.5,-12.496 -2,-29.988 -5.5,-51.98 l 9.99,2.5 c 1,3.5 3.5,8.996 7,15.492 2,-10.496 4.5,-20.992 7.5,-32.485 13.99,-57.476 30.99,-93.464 50.48,-107.957 l 5,4.996 c -13.5,13.497 -20,30.989 -20,52.481 0,18.492 13,101.957 38.99,251.398 25.49,145.942 38.48,219.414 38.48,220.911"
         inkscape:connector-curvature="0"
         id="path56"
         style="fill:#000000;fill-opacity:1;fill-rule:nonzero;stroke:none" /><path
         d="m 6673.66,687.43 c -11.49,63.476 -29.98,94.961 -54.98,94.961 -36.98,0 -59.97,-5.496 -69.47,-16.993 -6,-7.496 -15.49,-23.488 -27.99,-47.98 12,1.5 22.49,7.496 30.99,17.992 8,9.496 14.49,14.496 18.99,14.496 16.5,0 33.99,-3.5 52.48,-9.996 l 0,-108.957 c -15.49,10.996 -33.48,16.492 -54.98,16.492 -41.48,0 -67.97,-17.492 -80.47,-52.476 -4.49,-13.996 -6.99,-37.985 -6.99,-71.473 0,-22.492 4,-43.484 12.49,-63.973 14.5,-36.488 39.49,-54.48 74.97,-54.48 13.5,0 34.49,21.492 62.48,64.473 2,3 4,6 6,9 7.49,-28.989 17.99,-55.981 31.48,-80.969 8.5,3.496 11.5,7.496 10,12.496 3.5,79.965 5,139.941 5,179.926 -0.5,33.488 -4,65.972 -10,97.461 z m -48.48,-142.942 c -10.49,-37.984 -20.49,-56.976 -28.99,-56.976 1.5,5.496 2,9.496 1.5,10.996 0,2.996 -6.99,-5 -21.49,-23.492 -14.49,9.496 -25.49,23.988 -33.49,43.98 -5.99,15.496 -8.99,28.988 -8.99,40.984 0,10.497 2,18.993 5.49,25.493 4,5.496 6.5,9.496 7,11.992 16.5,2.5 34.49,-3.496 53.98,-18.492 12.5,-9.496 20.49,-17.493 23.99,-23.989 0.5,-3.5 0.5,-7 1,-10.496"
         inkscape:connector-curvature="0"
         id="path58"
         style="fill:#000000;fill-opacity:1;fill-rule:nonzero;stroke:none" /><path
         d="m 6728.64,520.996 c 0,-3.496 1,-9.496 3.5,-18.992 3.5,-14.492 8,-27.488 13.99,-38.984 18.49,-36.985 45.98,-55.477 82.47,-55.477 1.5,0 2.5,0 4,0 1.5,-7.496 3.5,-16.492 6,-26.488 8.49,-36.489 15.49,-57.981 19.99,-63.477 18.99,14.996 30.48,23.992 34.98,27.488 -6.49,67.973 6.5,185.426 38.99,352.86 33.99,157.437 50.98,242.402 50.98,255.398 3.5,40.985 -8.5,61.476 -34.99,61.476 -35.48,0 -65.97,-90.964 -92.46,-272.39 -9,-61.976 -16,-116.457 -20.99,-162.937 -7.5,3.5 -19.99,5.5 -36.49,5.5 -46.48,0 -69.97,-21.493 -69.97,-63.977 z m 105.46,46.481 c -5,-47.481 -7.5,-86.965 -8,-117.454 -15.99,10.497 -27.49,18.497 -34.49,24.993 -15.49,14.492 -22.99,30.488 -22.99,48.48 0,7.496 21.99,21.992 65.48,43.981"
         inkscape:connector-curvature="0"
         id="path60"
         style="fill:#000000;fill-opacity:1;fill-rule:nonzero;stroke:none" /><path
         d="m 6256.33,952.324 c -3.5,38.485 -18.99,57.476 -47.48,57.476 -22.49,0 -42.49,-46.98 -59.98,-140.441 -8.99,-46.984 -15.49,-95.464 -19.99,-145.945 0,-216.41 24.99,-340.863 74.97,-373.348 2.5,4.496 7,15.493 12.49,31.985 6.5,19.492 10,33.488 10,41.484 0,54.481 5,144.442 15,270.395 9.99,126.449 14.99,212.414 14.99,258.394"
         inkscape:connector-curvature="0"
         id="path62"
         style="fill:#000000;fill-opacity:1;fill-rule:nonzero;stroke:none" /><path
         d="m 6063.91,724.914 0,7.5 -44.98,29.984 c -10,0 -15.5,-0.996 -16,-2.496 l -1.5,-2.5 c -0.5,-2.5 -2,-5 -4.5,-7.496 -2,-1.5 -3,-7 -3,-16.496 0,-10.492 2.5,-15.992 7,-16.492 3.5,-0.5 13,0 27.99,0.5 20.99,2.5 32.49,5 34.99,7.496"
         inkscape:connector-curvature="0"
         id="path64"
         style="fill:#000000;fill-opacity:1;fill-rule:nonzero;stroke:none" /><path
         d="m 5806.51,642.449 c -4.5,13.992 -3,32.985 3.5,57.477 7.49,26.488 17.99,39.984 31.49,39.984 16.49,0 26.48,-4 29.98,-12.496 1.5,-23.988 4,-59.976 7.5,-108.457 -9,4 -18.99,6 -29.99,6 -40.98,0 -66.97,-17.496 -77.47,-52.48 -3.5,-11.497 -5,-37.485 -5,-78.969 0,-1.5 7.5,-22.992 23,-65.473 19.99,-41.984 42.98,-62.976 69.47,-62.976 7.99,14.496 15.49,27.988 21.99,40.484 5.5,-6.496 11.5,-12.996 17.99,-20.492 19.49,36.484 31.49,70.972 35.49,102.461 1.5,9.996 2,40.98 2,93.461 2.5,36.484 2,72.472 -2.5,106.957 -8.5,69.472 -29.99,104.457 -64.98,104.457 -34.48,0 -59.97,-15.992 -77.46,-47.981 -11.5,-21.488 -17.5,-43.48 -17.5,-66.972 0,-10.496 3,-19.993 9,-28.489 3.5,-4.496 8.5,-10.996 15.99,-18.992 l 7.5,12.496 z m 55.98,-75.969 c 3.99,-6 5.99,-21.492 6.49,-46.484 -4.5,-9.496 -10.49,-20.992 -17.99,-34.984 -3.5,-8.496 -3.5,-17.992 0,-28.989 -0.5,-1 -1.5,-2 -2,-3.5 l -4.99,2.5 c -10,34.485 -8.5,68.473 4.99,101.461 5,12.493 9.5,15.493 13.5,9.996"
         inkscape:connector-curvature="0"
         id="path66"
         style="fill:#000000;fill-opacity:1;fill-rule:nonzero;stroke:none" /><path
         d="m 6051.41,577.473 -7.5,0 c -1.5,-29.989 -6.49,-79.965 -14.99,-149.938 0,-27.988 6.5,-49.48 19.99,-64.976 8.5,3.5 14,7.5 17.5,12.496 1.5,20.492 2.49,39.484 2.49,55.976 -8.49,67.477 -13.99,116.453 -17.49,146.442"
         inkscape:connector-curvature="0"
         id="path68"
         style="fill:#000000;fill-opacity:1;fill-rule:nonzero;stroke:none" /><path
         d="m 5178.26,638.449 c 15.49,6.5 43.98,20.992 85.97,43.985 -4,8.496 -19,12.492 -44.99,12.492 -32.48,-1.496 -64.47,-3.996 -94.96,-7.996 -61.48,-7.496 -92.46,-18.492 -92.46,-31.989 0,-16.492 1.5,-23.988 5,-22.488 22.49,-5 39.98,-7.496 52.48,-7.496 36.48,0 65.97,4.496 88.96,13.492"
         inkscape:connector-curvature="0"
         id="path70"
         style="fill:#000000;fill-opacity:1;fill-rule:nonzero;stroke:none" /><path
         d="m 4957.35,672.438 c 12.99,21.488 19.49,34.984 19.49,40.98 -12.49,65.977 -39.98,98.961 -82.46,98.961 -46.49,0 -77.47,-17.492 -92.47,-52.477 -6.5,-15.496 -10,-39.484 -10,-71.472 0,-5.496 3.5,-18.992 10.5,-40.985 9.5,-29.988 20.99,-57.476 34.49,-82.465 41.98,-78.468 94.46,-117.453 157.43,-117.453 21.99,0 41.99,8.996 59.98,26.989 14.99,15.492 22.49,27.988 22.49,37.984 0,9.996 -1.5,24.992 -5,44.98 l -7.5,-2.496 c 5,-46.484 -12.49,-69.972 -52.47,-69.972 -58.48,0 -106.46,32.988 -144.45,99.461 -12.49,21.488 -22.49,44.98 -30.98,70.468 -6.5,18.497 -9.5,30.489 -9.5,34.989 -2,15.992 -0.5,30.988 5,44.48 10.49,26.992 34.99,40.485 72.47,40.485 3.5,0 10,-8.997 20.49,-27.489 9.5,-17.492 14.5,-27.488 14.5,-29.988 -10,-33.484 -21.5,-49.98 -34.99,-49.98 -9.99,0 -17.49,3 -22.99,8.496 -4.5,6.5 -8.5,11.496 -12,13.996 l -4.99,-7.496 c 4.99,-5 11.49,-13.996 18.99,-26.993 9.5,-10.492 24.49,-15.492 45.98,-15.492 5,0 14.5,10.996 27.99,32.489"
         inkscape:connector-curvature="0"
         id="path72"
         style="fill:#000000;fill-opacity:1;fill-rule:nonzero;stroke:none" /><path
         d="m 5299.21,465.02 c 0,-9.497 2.5,-22.493 8,-37.985 7.5,-22.992 18.49,-34.488 31.99,-34.488 19.49,0 44.48,37.984 74.96,113.957 30.49,85.965 50.48,138.941 59.98,158.434 l 2.5,-4.997 c 0,-17.992 -5,-59.476 -15.49,-123.949 -4,-55.48 8.49,-83.469 37.98,-83.469 16.49,0 35.49,31.989 56.98,96.461 26.49,77.469 42.48,120.454 47.98,128.45 6.5,-9.996 11,-14.993 12.5,-14.993 1.5,-44.984 8.99,-108.957 22.48,-191.425 0,-6.496 0,-10.996 -0.5,-14.493 13,13.493 23.5,41.985 30.99,84.965 6.5,33.489 9.5,60.977 9.5,81.969 1,21.492 -1.5,42.481 -7.5,61.973 -11.49,39.484 -33.98,59.476 -67.47,59.476 -7.5,0 -28.49,-9.996 -62.48,-29.988 0,41.484 -13.99,62.477 -42.48,62.477 -24.49,0 -43.48,-7.997 -56.47,-24.493 -7.5,-9.496 -18,-25.488 -30.99,-47.98 3.49,14.996 4.99,27.988 3.99,39.484 -1.99,21.992 -13.99,32.989 -36.48,32.989 -24.49,0 -45.48,-51.981 -61.98,-155.438 -8.49,-51.48 -14.49,-103.957 -17.99,-156.937"
         inkscape:connector-curvature="0"
         id="path74"
         style="fill:#000000;fill-opacity:1;fill-rule:nonzero;stroke:none" /><path
         d="m 4383.08,688.93 c 18.99,27.488 31.99,43.484 38.98,48.48 -45.48,2.5 -77.97,12.496 -97.46,30.988 -11.49,10.997 -18.49,16.993 -20.49,18.493 -8.5,5.496 -19.99,7.996 -34.49,7.996 -20.49,0 -36.98,-17.492 -49.48,-52.977 -8.49,-24.492 -12.99,-45.984 -12.99,-63.476 0,-1.5 1,-34.485 2.5,-99.461 5.49,-64.473 18.99,-96.461 39.98,-96.461 30.49,0 45.98,24.992 46.98,75.468 -4.5,57.977 -5.99,94.465 -4.5,109.458 37.49,-8.997 67.48,-2 90.97,21.492"
         inkscape:connector-curvature="0"
         id="path76"
         style="fill:#000000;fill-opacity:1;fill-rule:nonzero;stroke:none" /><path
         d="m 4087.2,654.941 c 0,22.493 5,49.981 14.99,82.469 -32.49,-10.496 -53.98,-35.984 -65.47,-76.969 -6.5,-22.992 -13,-56.476 -19.49,-100.461 -28,52.981 -45.99,85.965 -54.48,98.961 1.5,16.493 -0.5,32.489 -5.5,47.981 -10.5,33.488 -34.99,50.48 -72.47,50.48 -48.98,0 -85.47,-22.492 -109.96,-67.972 -16.49,-30.489 -24.99,-61.977 -24.99,-93.461 0,-1.5 1,-22.492 2.5,-62.977 8.5,-40.484 30.49,-60.476 65.97,-60.476 39.99,0 75.47,25.492 106.46,76.968 16.49,27.489 27.49,52.481 33.49,73.973 3,-18.992 7,-45.484 12.49,-79.469 15,-59.476 37.99,-88.965 68.97,-88.965 28.99,0 44.99,66.473 47.49,199.918 z m -227.41,32.489 34.98,0 2.5,-31.489 c 0,-15.492 -6.99,-38.484 -20.49,-67.972 -15.49,-32.985 -30.99,-52.977 -46.98,-60.473 -13.5,18.492 -19.99,40.481 -19.99,65.973 -0.5,16.992 1.5,32.984 5.49,48.48 7.5,30.489 22.5,45.481 44.49,45.481"
         inkscape:connector-curvature="0"
         id="path78"
         style="fill:#000000;fill-opacity:1;fill-rule:nonzero;stroke:none" /><path
         d="m 6998.53,2055.38 c -13.49,3.5 -24.99,5 -34.98,5 -9.5,0 -20.5,-4 -32.49,-12.49 -13.49,-9 -19.99,-19 -19.99,-29.99 0,-9.5 14.99,-28.99 44.98,-58.48 29.99,-29.99 44.98,-57.97 44.98,-83.96 0,-16.5 -1,-24 -2.5,-22.5 l -27.49,-2.5 c -9.99,15 -17.49,25 -22.49,29.99 -5,-4.99 -9,-12.49 -12.49,-22.49 1.49,-2.5 3.99,-10.5 8.49,-23.99 7.5,-12.49 22.49,-18.49 43.99,-18.49 33.48,0 48.98,18.99 47.48,57.48 0,14.49 -12.5,41.98 -37.49,83.46 -24.99,41.49 -37.48,62.48 -37.48,62.98 0,10.49 2,16.99 5.5,19.49 6.49,1.5 11.99,4 16.99,6.5 13.49,-6.5 23.49,-8.5 29.99,-5 -10,6.5 -15,11.49 -15,14.99"
         inkscape:connector-curvature="0"
         id="path80"
         style="fill:#000000;fill-opacity:1;fill-rule:nonzero;stroke:none" /><path
         d="m 7108.49,1840.47 c -18.49,2.5 -27.49,-6.5 -27.49,-27.49 l 27.49,-27.49 c 17.49,17.49 26.49,26.99 27.49,27.49 -10,12.5 -19,21.99 -27.49,27.49"
         inkscape:connector-curvature="0"
         id="path82"
         style="fill:#000000;fill-opacity:1;fill-rule:nonzero;stroke:none" /><path
         d="m 6876.08,1897.95 c 0,-16.5 -2.5,-25.99 -7.49,-27.49 -10,-6.5 -23.5,-10 -39.99,-10 -9.49,0 -17.49,3 -24.49,8.5 -6,5 -10.5,7 -13,6.5 -3.49,-5 -4.99,-10 -4.99,-15 23.49,-23.49 40.98,-34.98 52.48,-34.98 23.49,0 42.48,7.49 57.47,21.98 13.5,13.5 20,28.5 20,45.49 0,36.48 -40.99,78.97 -122.46,127.45 57.48,18.49 87.47,28.49 89.97,29.99 -28.99,11.49 -50.48,17.49 -64.97,17.49 -14.5,0 -30.99,-6 -49.49,-17.49 -18.49,-12 -27.98,-22.5 -27.98,-30.99 0,-5 22.48,-22.99 67.47,-53.48 44.98,-30.49 67.47,-52.98 67.47,-67.97"
         inkscape:connector-curvature="0"
         id="path84"
         style="fill:#000000;fill-opacity:1;fill-rule:nonzero;stroke:none" /><path
         d="m 6454.75,1973.42 c 4,49.97 36.98,82.46 98.96,96.96 l -21.49,5 c -47.48,3.5 -71.97,5 -73.47,5 -13,0 -22.99,-20 -29.99,-60.48 -5,-27.99 -7.5,-53.98 -7.5,-77.97 0,-16.5 4,-60.48 12.5,-131.45 l 19.99,0 c 8.5,12.5 12.5,25.99 12.5,41.48 -10,52.99 -14,93.47 -11.5,121.46"
         inkscape:connector-curvature="0"
         id="path86"
         style="fill:#000000;fill-opacity:1;fill-rule:nonzero;stroke:none" /><path
         d="m 6598.69,2040.39 c -20.49,0 -36.98,-12 -50.48,-35.49 -9.5,-17.49 -14.49,-31.98 -14.49,-44.48 0,-16.99 8.99,-39.48 27.49,-67.97 25.49,-39.49 57.97,-59.48 97.46,-59.48 31.49,0 51.48,3 59.97,9.5 5,3.5 7.5,11.49 7.5,22.99 0,10.5 -1,15.99 -3.5,16.99 l -4,-2 c -28.48,-6.49 -55.97,-4.99 -82.46,4 -23.99,8 -37.99,18.5 -42.48,30.99 53.47,9 79.96,30.49 79.96,63.97 1,11.5 -1.5,22 -7.5,31.99 -11.49,19.49 -33.98,28.99 -67.47,28.99 z m -19.49,-50.48 c 2.5,8.5 9,12.99 19.49,12.99 21.99,0 33.49,-1.99 34.99,-5.49 3.5,-9.5 7,-15 10,-17 -2.5,-2 -10,-9.49 -23,-21.99 -14.49,-10.49 -28.48,-13.49 -41.98,-7.99 l 0,14.99 c 0,14.49 0,22.99 0.5,24.49"
         inkscape:connector-curvature="0"
         id="path88"
         style="fill:#000000;fill-opacity:1;fill-rule:nonzero;stroke:none" /><path
         d="m 6378.78,2312.78 c 0,10.5 -2,15.99 -5.5,17.49 -5.49,0 -9.99,1 -14.49,2.5 -39.99,-28.48 -62.48,-88.96 -66.97,-181.43 -2,-41.48 -1.5,-98.46 1.99,-170.43 -18.49,8 -40.48,12 -64.97,12 -33.48,0 -49.98,-24.49 -49.98,-73.47 0,-1 -0.5,-7 -1.5,-17.49 -0.5,-12 1,-22.5 4,-31.99 9.5,-29.49 35.48,-44.48 77.47,-44.48 15.49,0 31.99,1.99 48.48,5.99 8.49,-29.49 23.49,-43.98 43.98,-43.48 l 2.5,7.5 c -2.5,11.99 -4,29.99 -4.5,53.47 11.5,8.5 17,19 17,31.49 0,15.5 -5.5,32.49 -16,49.98 1.5,39.49 4,85.97 8.5,139.95 13.49,145.44 19.99,225.91 19.99,242.4 z m -82.47,-384.85 c 0,-27.98 1.5,-51.97 5,-71.97 -1,0 -2,0 -2.5,-0.5 -28.49,28.49 -51.48,44.49 -67.97,47.99 -5.5,0.5 -9,1.5 -10,1.99 -1.5,0.5 -2,3.5 -2,9 0,14.49 5.5,24.49 16.5,29.99 9.5,5 21.49,5.5 35.98,1 9.5,-2.5 17.5,-6 24.99,-10.5 0,-2.5 0,-4.5 0,-7"
         inkscape:connector-curvature="0"
         id="path90"
         style="fill:#000000;fill-opacity:1;fill-rule:nonzero;stroke:none" /><path
         d="m 6116.39,2011.4 c 9.99,97.46 14.99,157.94 14.99,181.43 0,10.49 -2,15.99 -6.5,17.49 -6.5,0 -11.49,1 -15.99,2.5 -24.99,-30.49 -40.49,-71.97 -46.48,-124.95 -2.5,-19.49 -3.5,-62.98 -3.5,-130.95 0,-0.5 0,-1 0,-2.5 -9.5,4 -21.49,6 -34.99,6 -48.48,0 -72.47,-25.99 -72.47,-78.47 0,-1.5 2.5,-14.49 8,-39.98 10.5,-24.49 30.48,-36.49 59.47,-36.49 14.5,0 32.49,2.5 54.98,8 0.5,0 1,0 1.5,0 6.5,-10.5 15.49,-15.5 25.99,-15.5 16.49,0 20.99,1.5 12.5,5 -1,8.5 -1.5,17.5 -2,25.99 1.5,2 2,4 2,5.5 0,10.5 -0.5,15.49 -1,14.99 l -1.5,-3.99 c -0.5,0 -0.5,0 -0.5,-0.5 -2.5,49.98 -1,105.46 5.5,166.43 z m -57.48,-94.46 c 0,-11.5 0,-24.99 0,-40.98 1.5,-14.5 3.5,-27.5 6.5,-37.99 -22.5,-1 -40.99,2.5 -54.48,10.49 -16.5,9.5 -24.49,22 -24.49,38.49 -2.5,6.5 -2.5,12.5 0,18 4,10.49 17.49,15.49 39.98,15.49 14.99,0 25.99,-1 32.49,-3.5"
         inkscape:connector-curvature="0"
         id="path92"
         style="fill:#000000;fill-opacity:1;fill-rule:nonzero;stroke:none" /><path
         d="m 5754.03,2047.89 7.5,-7.5 c 3,0 12.49,3.5 28.49,11 15.49,7.49 27.98,11.49 37.48,11.49 49.48,0 73.97,-24.99 73.97,-74.97 0,-6.5 -2,-19.99 -6.5,-39.48 -13.49,14.49 -31.98,21.99 -55.97,21.99 -44.98,0 -67.48,-23.49 -67.48,-69.97 0,-0.5 4.5,-13 13,-37.99 13.49,-24.49 33.48,-36.98 59.48,-36.98 19.49,0 34.48,2.99 45.98,9.49 4.49,-7.5 11.99,-13.99 21.49,-19.49 2.99,0.5 8.49,-1 16.49,-3.5 2.5,-0.5 3.5,4 3.5,13.5 3.5,52.47 5,106.45 5,161.43 1,19.99 -2.5,39.48 -10,57.98 -14.99,36.98 -43.98,55.47 -87.46,55.47 -10.5,-1.49 -21.5,-4.99 -33.49,-10.49 -23.49,-10.49 -40.48,-24.49 -51.48,-41.98 z m 124.95,-174.93 -27.49,-7.5 c -29.99,0 -44.98,12.99 -44.98,38.99 0,24.48 12.49,33.98 37.49,28.48 24.98,-5.5 37.48,-17.99 37.48,-37.48 0,-16.5 -1,-23.99 -2.5,-22.49"
         inkscape:connector-curvature="0"
         id="path94"
         style="fill:#000000;fill-opacity:1;fill-rule:nonzero;stroke:none" /><path
         d="m 5339.2,2048.89 c -17,112.45 -25.99,174.93 -27.49,186.42 l -7.5,0 c -15,-97.46 -22.49,-162.93 -22.49,-195.92 0,-36.98 5.5,-83.97 15.99,-140.44 12.5,-65.98 25.99,-104.46 41.49,-115.96 6.5,1.5 13.49,5 19.99,10 3.5,10.99 5,24.99 5,41.48 0,29.49 -8.5,100.96 -24.99,214.42"
         inkscape:connector-curvature="0"
         id="path96"
         style="fill:#000000;fill-opacity:1;fill-rule:nonzero;stroke:none" /><path
         d="m 4849.39,2105.36 c -10,0 -19.49,-2.5 -27.99,-7.99 -10.49,-6.5 -16.49,-9.5 -16.99,-9.5 -1.5,22.99 -4,40.99 -8.5,54.48 -7.49,25.49 -27.98,37.98 -61.47,37.98 -25.49,0 -54.48,-21.49 -87.47,-64.97 1.5,23.49 -7.99,34.98 -27.49,34.98 -9.99,0 -16.49,-1.49 -19.99,-3.99 l -5,-3.5 c -1.49,-59.98 -7.49,-142.44 -17.49,-247.4 0,-7 7.5,-18.5 22.49,-34.99 5.5,6 10.5,12.5 14.99,19.49 2.5,-23.99 7.5,-38.98 15,-44.48 11.5,4 17.49,33.99 17.49,89.96 0,16 -0.5,29.99 -1.5,41.99 2,7.49 4,16.49 6.5,26.49 13.99,56.48 42.98,98.46 87.47,126.45 0.5,-6.5 2.49,-52.98 5.49,-140.45 2,-58.97 10,-103.95 24.5,-134.44 24.48,16.49 38.48,48.48 41.98,96.96 4,54.48 12.49,89.46 25.49,105.46 l 7.49,-5 c 1,-5 10,-38.99 26.49,-101.46 11,-40.48 15.5,-74.47 13.5,-100.96 l 7.5,0 c 19.99,14.99 29.98,46.48 29.98,94.96 -24.49,113.46 -48.48,169.93 -72.47,169.93"
         inkscape:connector-curvature="0"
         id="path98"
         style="fill:#000000;fill-opacity:1;fill-rule:nonzero;stroke:none" /><path
         d="m 5004.33,2135.35 c -17.49,0 -31.49,-6.49 -41.98,-19.99 -8.5,-10.5 -13,-21.99 -13,-33.49 0,-17.49 7.5,-26.49 22.49,-26.49 -2,6 3,21 15,44.99 28.48,-21.49 46.98,-48.98 54.48,-81.47 -10,7.49 -20.5,11.49 -31.99,11.49 -15.99,0 -33.49,-13.49 -52.48,-39.98 -18.49,-25.49 -27.49,-46.48 -27.49,-63.48 0,-1.5 3.5,-16.99 10,-47.48 11.99,-29.49 31.98,-43.98 59.97,-43.98 16.49,0 20.99,1.5 12.5,5 5.99,12.49 16.99,30.49 33.48,52.98 1.5,-14 4.5,-26.49 9,-37.99 8.5,1.5 13.99,5 17.49,10 1.5,18.49 2.5,44.98 2.5,78.97 1.5,6.5 2.5,12.49 2.5,18.49 0,2.5 -0.5,6 -1.5,9.5 0.5,24.49 -1.5,48.98 -5.5,72.47 -9.99,60.47 -31.98,90.46 -65.47,90.46 z m 2.5,-147.44 c 6.5,0 10.49,0 12.99,0 2,-0.5 4.5,-1 7.5,-2 6.5,-4 9.5,-11 9.5,-21.49 -1,-42.48 -12.5,-63.97 -34.99,-63.97 -17.49,0 -27.99,6.49 -32.49,19.99 0,13.49 3.5,27.49 10.5,41.98 7.5,16.99 16.49,25.49 26.99,25.49"
         inkscape:connector-curvature="0"
         id="path100"
         style="fill:#000000;fill-opacity:1;fill-rule:nonzero;stroke:none" /><path
         d="m 5186.26,2063.88 c 14.49,-7.5 23.99,-11 27.99,-11 -21,29.99 -38.49,44.99 -52.48,44.99 l -7.5,0 c -1.5,-3.5 -3.5,-5 -5,-5 7,-10 19.5,-19.49 36.99,-28.99"
         inkscape:connector-curvature="0"
         id="path102"
         style="fill:#000000;fill-opacity:1;fill-rule:nonzero;stroke:none" /><path
         d="m 4519.52,1992.91 c 26.99,0 42.49,3.5 45.98,10.99 -0.5,9.5 2,17 6.5,21.49 -12.49,5 -36.48,7.5 -72.47,7.5 -18.49,0 -31.49,-4 -39.98,-12.49 0,-5 2.5,-14 7.5,-27.49 l 52.47,0"
         inkscape:connector-curvature="0"
         id="path104"
         style="fill:#000000;fill-opacity:1;fill-rule:nonzero;stroke:none" /><path
         d="m 4456.05,1917.94 c -1.5,-1 -4,0 -6.5,2.5 -27.49,-15.49 -60.48,-15.99 -98.46,-0.5 -31.48,13.49 -55.48,30.99 -71.47,52.98 l 22.49,0 c 31.49,-13 55.48,-9.5 71.97,9.99 12,13.5 17.99,29.49 17.99,47.48 -2.5,43.49 -31.98,64.98 -87.46,64.98 -28.99,0 -50.98,-12.5 -65.47,-37.99 -9.5,-16.99 -14.5,-34.49 -14.5,-51.98 0,-26.99 10,-54.47 29.49,-82.46 30.49,-43.49 77.47,-64.98 140.44,-64.98 41.49,0 62.48,14.5 62.48,43.99 0,9.99 -0.5,15.49 -1,15.99 z m -143.94,67.47 -37.49,7.5 c 0,18.49 0,29.48 0.5,31.98 2.5,13.5 9,20.5 19.49,20.5 11.5,0 23,-3 34.99,-8.5 10.5,-4.5 16.99,-9.5 19.99,-14 -6.5,-9.99 -9.99,-19.99 -9.99,-29.98 l -27.49,-7.5"
         inkscape:connector-curvature="0"
         id="path106"
         style="fill:#000000;fill-opacity:1;fill-rule:nonzero;stroke:none" /><path
         d="m 5196.25,1882.95 c -8.49,26.99 -12.99,44.48 -14.49,52.48 l -7.5,0 c -6.49,-59.97 -9.99,-104.96 -9.99,-134.95 0,-16.49 8.49,-20.99 24.98,-12.49 6.5,3.5 11.5,7.5 15,12.49 1.5,6 2.5,17.5 2.5,33.99 0,9.5 -3.5,25.49 -10.5,48.48"
         inkscape:connector-curvature="0"
         id="path108"
         style="fill:#000000;fill-opacity:1;fill-rule:nonzero;stroke:none" /><path
         d="m 3722.34,1995.41 -7.49,-2.5 c 0,-5 -1,-16 -2.5,-33.49 0,-11.99 6.49,-31.99 19.99,-59.97 18.49,-37.49 40.48,-56.48 65.97,-56.48 16.49,0 21.49,2.5 14,7.49 l 0,89.97 c -1.5,10.5 -11.5,45.48 -29.99,104.96 l -7.5,0 c 0,-10 -1.5,-27.49 -5,-52.48 0,-8.5 3.5,-13.5 10,-15 6.5,-1.5 10,-6.49 10,-14.99 0,-31.49 -2.5,-59.97 -7.5,-84.97 -17.5,11.5 -32.49,30.49 -43.98,57.98 -10,22.49 -15.5,41.98 -16,59.48"
         inkscape:connector-curvature="0"
         id="path110"
         style="fill:#000000;fill-opacity:1;fill-rule:nonzero;stroke:none" /><path
         d="m 3934.76,2010.4 c -5.5,11.5 -17.49,17.49 -34.99,17.49 -22.49,0 -40.48,-16.49 -54.48,-49.98 -10.49,-24.48 -15.49,-45.98 -15.49,-63.47 0,-11.99 1,-19.99 3.5,-23.99 1.5,-3.5 7,-8.5 16.49,-14.99 10,7.49 17,17.99 21,32.48 0.5,0.5 2.99,14 7.99,39.49 7,33.48 25.49,54.48 55.98,62.97"
         inkscape:connector-curvature="0"
         id="path112"
         style="fill:#000000;fill-opacity:1;fill-rule:nonzero;stroke:none" /><path
         d="m 3619.88,1870.46 c 35.49,0 50.48,23.99 44.99,72.47 -2.5,56.48 -30.99,84.96 -84.97,84.96 -14.49,0 -25.99,-6.49 -34.49,-19.99 -6.99,-10.99 -10.49,-21.99 -10.49,-33.49 0,-5.99 0.5,-11.99 1,-17.99 1.5,-12.99 4.49,-24.99 8.99,-35.48 13.5,-33.49 38.49,-50.48 74.97,-50.48 z m 3,109.95 c 8,-9.99 12,-21.49 12,-34.98 0,-8.5 -11,-20.99 -32.49,-37.49 -7.5,5.5 -15.99,17.99 -25.49,37.99 -7.99,17.49 -11.99,27.98 -11.99,31.98 0,10.5 1.5,16 4,17 l 3.49,-2 c 21.99,6 38.99,2 50.48,-12.5"
         inkscape:connector-curvature="0"
         id="path114"
         style="fill:#000000;fill-opacity:1;fill-rule:nonzero;stroke:none" /><path
         d="m 3422.46,2017.9 -9.99,-2.5 c -3.5,-10 -5,-20.99 -5,-33.49 8.49,-34.48 22.49,-51.48 42.48,-51.48 6.5,0 18,14 34.99,42.49 1.5,-15 6,-40.99 12.49,-78.47 0,-0.5 0,-12.5 -0.5,-36.99 -1.5,-28.99 -5.5,-55.48 -11.99,-79.46 -19.99,-76.48 -59.98,-114.96 -119.96,-114.96 -22.98,0 -37.98,22.49 -44.98,67.97 -3.5,51.48 -5.99,82.97 -7.49,94.47 l -7.5,0 c 0,-20 -1.5,-48.48 -5,-85.97 0,-1.5 4.5,-20.99 13,-58.48 14.49,-36.98 36.48,-55.48 66.97,-55.48 79.97,0 128.45,78.97 144.94,237.41 -24.99,134.95 -38.48,204.92 -39.98,209.92 l -14.99,0 c -0.5,-1.5 -1.5,-21.49 -3,-58.98 -1,-22.49 -9,-38.49 -24.49,-48.48 -8.5,24.99 -15,42.48 -20,52.48"
         inkscape:connector-curvature="0"
         id="path116"
         style="fill:#000000;fill-opacity:1;fill-rule:nonzero;stroke:none" /><path
         d="m 2842.7,2001.91 c 0,-0.5 0,-8.5 0.5,-23 1,-16.99 3.99,-32.48 8.99,-46.98 16.49,-44.48 48.98,-66.47 97.96,-66.47 8,0 16.49,5 24.99,14.99 8.5,9.5 12.5,18.5 12.5,26.49 0,10.5 -1,15.5 -2.5,15 -0.5,-0.5 -1.5,-1.5 -2.5,-4 -38.48,-14.99 -73.47,4 -104.96,57.47 l 0,44.99 c 8.5,-7 13.5,-15 14.5,-23.49 0.5,-4.5 5.99,-6.5 16.99,-6.5 11.49,0 22.49,5 32.99,14.49 10.49,9.5 15.49,19.99 15.49,30.49 0,12 -2,23.49 -5.5,33.99 -7,20.49 -19.49,30.99 -36.98,30.99 -24.49,0 -43.99,-14 -57.98,-42.49 -9.5,-20.49 -14.49,-38.98 -14.49,-55.97 z m 79.96,55.97 c 0,-19.99 -3.5,-30.99 -9.99,-32.49 l -24.99,10 c 11.99,17.99 23.49,25.49 34.98,22.49"
         inkscape:connector-curvature="0"
         id="path118"
         style="fill:#000000;fill-opacity:1;fill-rule:nonzero;stroke:none" /><path
         d="m 2560.31,2140.35 c -8.5,-3.5 -17.49,-7.5 -27.49,-12.49 l 0,-179.93 c 3,-9.5 6,-22.99 9.5,-40.49 5.49,-15.49 17.99,-29.49 37.98,-41.98 21.99,30.99 33.99,78.97 35.49,143.94 1.5,64.98 13.99,113.46 36.98,145.94 16.5,-26.98 24.49,-63.47 23.99,-109.95 -0.5,-24.99 -1,-59.98 -1.5,-104.96 l 19.99,0 c 4.5,11.5 9,38.98 14,83.46 4.5,38.49 11.49,64.48 20.99,78.97 5,-22.48 10.49,-56.97 16.99,-102.95 8,-38.99 22.99,-68.98 45.48,-89.47 1.5,5 2.5,14 2.5,26.49 0,36.98 -6,73.97 -17.99,110.96 -17.49,55.47 -43.98,81.47 -79.47,77.47 -0.5,15.99 -2.5,28.48 -5.5,37.48 -5.49,16.49 -19.49,24.99 -41.98,24.99 -33.48,0 -56.48,-58.97 -69.97,-177.43 -1.5,6 -1.5,27.99 -1,65.48 0.5,27.98 -5.5,49.48 -18.99,64.47"
         inkscape:connector-curvature="0"
         id="path120"
         style="fill:#000000;fill-opacity:1;fill-rule:nonzero;stroke:none" /><path
         d="m 2058.01,2076.88 c 0,8.99 -2.5,18.49 -8,27.98 -8.99,17 -23.99,25.49 -44.48,25.49 -41.48,0 -62.48,-29.49 -62.48,-88.46 0,-0.5 0.5,-10 1.5,-27.49 2.5,-20.99 6,-39.99 11.5,-57.48 16.49,-54.47 44.48,-81.46 84.47,-81.46 10.49,0 19.99,1.49 29.48,4.99 8,3.5 12.5,5 13,5 3.5,6 5,17.5 5,33.99 0,10.49 -1,15.49 -3.5,14.99 -1.5,-0.5 -2.5,-1.5 -4,-4 -2.5,-2.5 -6,-6.99 -11,-12.99 -5.49,-4.5 -13.49,-7 -23.98,-7 -21.5,0 -38.99,17.49 -52.48,52.48 -10,25.99 -15,48.48 -15,67.47 0,10.5 0,16.5 0.5,17.5 1.5,0 3,1 4.5,2.5 22.49,-14 41.48,-15 56.98,-3.5 11.99,9.49 17.99,19.49 17.99,29.99 z m -37.49,5.99 -2.5,-7.49 c -8.49,-5 -20.98,-7.5 -37.48,-7.5 2,10 15.5,14.99 39.98,14.99"
         inkscape:connector-curvature="0"
         id="path122"
         style="fill:#000000;fill-opacity:1;fill-rule:nonzero;stroke:none" /><path
         d="m 1780.62,2157.84 c -1.5,-5 -2.5,-9.99 -2.5,-14.99 0,-26.49 8.5,-66.97 25.49,-120.95 17.5,-55.48 33.49,-89.47 46.98,-101.46 13.5,5.49 25.99,24.99 37.99,59.47 9.49,27.49 14.49,44.98 14.49,52.98 0,15 -6.5,62.48 -19.99,142.45 l -7.5,0 c -5.49,-56.48 -15.49,-112.96 -29.99,-169.94 -29.98,89.97 -44.98,138.95 -44.98,147.44 0,7 0.5,12 1,14.5 -6.5,-1.5 -13.49,-5 -20.99,-9.5"
         inkscape:connector-curvature="0"
         id="path124"
         style="fill:#000000;fill-opacity:1;fill-rule:nonzero;stroke:none" /><path
         d="m 1653.17,2205.32 c -1.5,-8.49 -2.5,-15.99 -2.5,-23.49 0,-10.49 1,-17.49 3.5,-19.99 1.5,-1.5 4.5,-4 9,-6.5 8.49,0 22.49,5 42.48,15 -16.49,7.5 -27.99,16.49 -33.49,25.99 -4.5,7.49 -7.49,11.49 -8.99,11.49 l -7.5,0 -2.5,-2.5"
         inkscape:connector-curvature="0"
         id="path126"
         style="fill:#000000;fill-opacity:1;fill-rule:nonzero;stroke:none" /><path
         d="m 1675.66,2085.37 c -1.5,-8.49 -3.5,-15.99 -5,-23.49 0,-82.47 10,-135.45 29.99,-158.93 l 14.99,7.49 c 5,14.99 7.5,33.99 7.5,56.48 0,17.49 -4.5,35.99 -13.49,55.48 -14.49,31.48 -22.99,52.48 -26.49,62.97 l -7.5,0"
         inkscape:connector-curvature="0"
         id="path128"
         style="fill:#000000;fill-opacity:1;fill-rule:nonzero;stroke:none" /><path
         d="m 1595.7,2050.39 c 0,23.99 -5,41.48 -15,51.97 -23.49,25.5 -73.47,37.99 -149.94,37.99 -13.99,0 -27.99,-10 -42.48,-29.99 98.46,-22.49 149.94,-34.48 153.93,-35.98 15.5,-5 23.5,-14 23.5,-26.49 0,-16.5 -9,-38.99 -26.99,-67.48 -25.49,-39.98 -58.48,-59.97 -97.96,-59.97 -86.47,0 -151.44,52.98 -194.43,159.44 -26.99,66.47 -40.48,126.44 -40.48,180.42 -1.5,31.49 3.5,61.48 14.99,89.97 22.5,56.47 65.48,84.96 128.95,84.96 26.99,0 68.98,-17.99 125.45,-53.98 28.99,-18.49 58.48,-38.48 87.97,-60.97 l 0,7.49 c -9.5,14.5 -35.99,38.99 -79.47,73.48 -55.98,44.48 -100.46,66.47 -132.95,66.47 -116.45,0 -174.93,-68.97 -174.93,-207.42 0,-59.48 14,-124.45 42.48,-194.92 47.48,-118.45 121.96,-177.43 222.42,-177.43 54.47,0 95.96,23.99 125.45,72.47 19.49,32.49 29.49,62.47 29.49,89.97"
         inkscape:connector-curvature="0"
         id="path130"
         style="fill:#000000;fill-opacity:1;fill-rule:nonzero;stroke:none" /><path
         d="m 3740.84,7630.65 c -36.99,56.48 -77.47,84.47 -120.96,84.47 -37.48,0 -59.97,-23.49 -67.47,-69.98 -2.5,-14.99 -3,-31.98 -2,-51.47 0.5,-10.5 1,-20.49 2,-30.99 0,-0.5 2,-25.49 6,-75.97 -9,0.5 -18.5,1 -28.49,1 -29.99,0 -44.98,-9 -44.98,-27.49 0,-16.49 1.5,-21.49 5,-14.99 5.49,-4 19.49,-8.5 41.98,-14 12.49,-3 22.99,-5 31.99,-6.5 12.99,-77.96 34.48,-116.95 64.47,-116.95 16.5,0 21.49,2.5 14,7.5 l 4.99,14.99 c -13.49,40.48 -23.49,71.97 -29.98,93.46 21.49,1.5 36.98,4.5 45.98,9.5 15.99,8.5 36.48,15 61.47,20.49 -12.99,-1.5 -23.49,-2 -31.98,-1 -6.5,1.5 -16,5 -28.49,11.5 -14.5,7.99 -33.49,13.99 -55.98,17.49 -0.5,16.99 -1,40.49 -1,70.97 0,51.98 8.5,88.47 24.99,109.96 46.48,-16 81.47,-40.48 105.46,-73.47 0.5,-0.5 8.99,-13.49 24.49,-38.49 9.49,-14.49 18.49,-25.48 27.49,-32.98 l 4.99,5 c -23.49,53.47 -41.48,89.46 -53.97,107.95"
         inkscape:connector-curvature="0"
         id="path132"
         style="fill:#000000;fill-opacity:1;fill-rule:nonzero;stroke:none" /><path
         d="m 4532.02,7435.23 c 5,-3.5 8.5,-7.5 10,-12.5 0,-9.99 7.49,-35.98 22.49,-77.96 11.49,-32.49 11.49,-58.48 0,-77.97 28.49,-3 42.48,11.99 42.48,44.98 -25.99,110.45 -53.48,165.93 -82.47,165.93 -11.49,0 -18.49,-3.5 -20.99,-10.49 -4.5,-12.5 -7.49,-19.99 -8.99,-21.99 -6.5,14.99 -18.5,22.49 -34.99,22.49 -21,0 -36.99,-10.5 -47.98,-31.49 -6,-10.5 -11,-23.49 -14.5,-38.48 l 0,2.49 c -3.5,42.49 -12.99,71.97 -27.48,87.47 -18.5,-10.5 -27.5,-50.48 -27.5,-120.95 0,-19.49 2,-41.99 6.5,-67.97 5.5,-32.99 12.5,-54.49 21,-64.48 26.98,34.99 45.98,65.48 57.47,91.96 10,23 19.99,57.48 29.99,103.96 7.5,-11.99 12.99,-37.48 16.99,-75.97 3,-29.49 15,-49.48 35.49,-59.97 16.49,11.99 20.49,35.48 12.49,70.47 -7.99,35.48 -4.5,58.97 10,70.47"
         inkscape:connector-curvature="0"
         id="path134"
         style="fill:#000000;fill-opacity:1;fill-rule:nonzero;stroke:none" /><path
         d="m 4901.87,7422.73 c -4.5,0 -15.49,-5.49 -32.99,-16.49 -8.49,-5.5 -16.99,-10.49 -24.49,-15.99 -9.49,0 -18.49,2.5 -27.98,7 -7.5,4.49 -12.5,5.99 -14.5,5.49 l 0,-49.98 c 3.5,-12.99 8,-34.98 13.5,-65.97 4.49,-27.49 9.99,-49.98 16.49,-67.47 11.49,1.5 18.99,4.99 22.49,9.99 1.5,0.5 2.5,9.5 2.5,25.99 0,16 -2,30.99 -6.5,44.99 -5,14.99 -7.5,23.98 -7.5,26.98 -1,16.5 18.5,48.48 58.98,95.46"
         inkscape:connector-curvature="0"
         id="path136"
         style="fill:#000000;fill-opacity:1;fill-rule:nonzero;stroke:none" /><path
         d="m 4684.46,7410.24 c -18,0 -31.99,-6.5 -41.98,-19.99 -8.5,-11.5 -13,-25.49 -13,-40.98 0,-19 5,-37.49 14.99,-55.48 18.49,-32.99 50.48,-49.49 94.97,-49.49 10.49,0 15.99,2.5 16.99,7 -0.5,6 0,10.5 0.5,13 1.5,15.49 2.5,37.49 2.5,65.97 -0.5,14.5 -3.5,28.49 -10,41.48 -12.49,25.5 -34.48,38.49 -64.97,38.49 z m 26.99,-104.96 c -3,-3.49 -7,-6.49 -12,-9.99 -10.49,4.5 -18.49,13.99 -23.99,28.48 -4,10.5 -6,19 -6,26.5 0,10.49 0.5,15.99 1.5,16.99 l 1,-2 c 29.99,11.49 45.99,0 47.49,-34.99 0,-10.49 -2.5,-18.49 -8,-24.99"
         inkscape:connector-curvature="0"
         id="path138"
         style="fill:#000000;fill-opacity:1;fill-rule:nonzero;stroke:none" /><path
         d="m 4981.34,7282.29 c -17.49,6 -28.99,13 -34.49,20.49 41.49,-4.99 62.48,11 62.48,47.49 4.99,33.48 -14.99,49.97 -59.98,49.97 -43.48,0 -64.97,-23.49 -64.97,-69.97 0,-11.49 10,-29.98 30.49,-55.48 27.49,-35.48 60.97,-52.97 99.45,-52.97 28.5,0.5 42.49,11.49 42.49,32.48 0,5 -1.5,12.5 -5,22.49 -24.49,-4 -47.98,-2 -70.47,5.5 z m -12,67.98 c -3.5,-5 -9.99,-9 -19.99,-12.5 -7.49,1 -12.99,3 -16.49,6 l -3.5,4 c 4.5,4.49 12,6.99 21.99,6.99 9,0 14.99,-1.5 17.99,-4.49"
         inkscape:connector-curvature="0"
         id="path140"
         style="fill:#000000;fill-opacity:1;fill-rule:nonzero;stroke:none" /><path
         d="m 3909.77,7304.28 c 16.49,30.49 27.49,53.48 32.48,68.47 l -9.99,0 c -17.99,-19.49 -30.49,-24.98 -36.99,-16.49 -11.49,14.49 -19.99,21.49 -25.48,21.49 -10.5,0 -15,-0.5 -14.5,-1.5 0.5,-0.5 2,-0.5 4.5,-1 -5,-13.49 -7.5,-36.98 -7.5,-70.97 0,-34.98 3.5,-59.98 10,-74.97 11.49,1.5 18.99,5 22.49,10 2.5,17.49 10.99,39.48 24.99,64.97"
         inkscape:connector-curvature="0"
         id="path142"
         style="fill:#000000;fill-opacity:1;fill-rule:nonzero;stroke:none" /><path
         d="m 3774.82,7295.29 c 26.49,15.49 39.98,33.98 39.98,54.98 1.5,38.48 -21.49,57.47 -69.97,57.47 -48.48,0 -72.47,-27.99 -72.47,-83.47 0,-1.5 0,-9.99 -0.5,-26.48 3,-15.5 12.5,-23.5 27.99,-23.5 25.49,0 50.48,7 74.97,21 z m 8,70.47 c 3.5,-1.5 4,-8.5 2,-20.49 -5,-23.49 -20.49,-34.99 -46.48,-34.99 -5,0 -11,2.5 -18.5,7.5 -8.49,6.49 -12.49,12.99 -12.49,19.99 -1.5,13.49 -2.5,21.49 -2,24.49 0.5,3.5 6.5,5.5 16.99,5.5 38.49,0 58.48,-0.5 60.48,-2"
         inkscape:connector-curvature="0"
         id="path144"
         style="fill:#000000;fill-opacity:1;fill-rule:nonzero;stroke:none" /><path
         d="m 2015.53,7680.13 c 45.48,34.49 78.97,58.48 100.95,72.47 37.49,22.99 76.97,37.99 118.96,44.99 l -34.99,9.99 c -13.49,-5 -62.97,-21.99 -148.44,-50.48 -79.47,-31.49 -118.95,-59.48 -118.95,-84.46 0,-10.5 16.99,-24 51.48,-40.99 20.49,-10.49 58.48,-27.99 113.45,-53.48 109.96,-54.47 164.94,-110.45 164.94,-168.93 0,-12.99 -6,-26.99 -18,-41.98 -19.49,-24.49 -50.48,-36.99 -91.96,-36.99 -39.48,0 -70.97,11 -95.46,33.49 -16.99,22.99 -26.99,34.99 -29.49,36.48 5.5,10.5 11,18 15.5,22.99 8.49,9.5 25.98,14 51.97,14.5 -3.49,6.5 -18.49,10 -44.98,10 -15.49,0 -29.99,-7 -42.48,-20.5 -11.49,-12.49 -17.49,-24.49 -17.49,-36.98 0,-18.5 7.99,-38.49 24.49,-60.48 27.99,-36.98 71.47,-55.48 130.44,-55.48 58.48,0 103.46,15.5 134.95,45.99 24.99,24.49 37.49,53.47 37.49,86.46 0,45.98 -20.5,90.96 -60.98,134.45 -52.98,56.47 -134.45,101.96 -243.9,136.44 l 2.5,2.5"
         inkscape:connector-curvature="0"
         id="path146"
         style="fill:#000000;fill-opacity:1;fill-rule:nonzero;stroke:none" /><path
         d="m 2395.38,7662.64 c -9,-3.5 -19,-12.5 -29.99,-27.49 2.5,-2.5 4.49,-5.5 5.99,-8 2,-1.5 8.5,-2 19,-2 10.49,0 15.49,1 15.49,3.5 l -3,4 c 0,0.5 1,1.5 3.5,3 1,0.5 1.5,6 1.5,15.99 0,10.5 -2,15.5 -6,15 -2.5,-0.5 -4.49,-1.5 -6.49,-4"
         inkscape:connector-curvature="0"
         id="path148"
         style="fill:#000000;fill-opacity:1;fill-rule:nonzero;stroke:none" /><path
         d="m 2392.88,7542.69 -7.5,0 c 0,-5 -1,-13.5 -2.5,-25.99 0,-88.97 9,-144.45 27.49,-166.43 11.49,8.49 18.49,12.49 19.99,12.49 1.5,9.99 2.5,23.99 2.5,41.48 0,16.49 -5,35.49 -14.5,55.98 -12.49,25.49 -20.98,52.98 -25.48,82.47"
         inkscape:connector-curvature="0"
         id="path150"
         style="fill:#000000;fill-opacity:1;fill-rule:nonzero;stroke:none" /><path
         d="m 2450.35,7485.21 c -3.5,-5.5 -4.99,-15.5 -4.99,-29.99 -1.5,-38.48 13.49,-57.47 44.98,-57.47 15.99,0 28.48,6.49 37.48,19.99 10,-54.98 15,-86.47 15,-94.97 0,-18.49 -0.5,-29.98 -1.5,-33.98 -3.5,-12 -12,-20.99 -26,-26.99 -16.49,16.49 -33.48,24.99 -49.97,24.99 l -2.5,-7.5 c 2.5,-5.5 4.99,-19.99 8.49,-42.48 7.5,-19.99 23.5,-29.99 48.98,-29.99 29.49,0 50.98,15.5 64.48,46.98 8.49,20.49 12.99,42.99 12.99,67.97 1,31.49 -2,62.48 -9.49,92.97 -15.5,60.47 -44.48,90.46 -87.97,90.46 -25.49,0 -42.48,-6.5 -49.98,-19.99"
         inkscape:connector-curvature="0"
         id="path152"
         style="fill:#000000;fill-opacity:1;fill-rule:nonzero;stroke:none" /><path
         d="m 2960.15,7487.71 c -10,-12.5 -15,-31.99 -15,-57.48 12.5,-73.47 32.49,-109.95 59.98,-109.95 11.99,0 22.99,7.49 32.49,22.49 6.49,10.49 10.49,19.99 11.99,28.98 3.5,-2.49 8,-5.49 13,-8.49 7.5,-4.5 14.49,-8.5 20.49,-11 -3,-39.48 -7.5,-92.96 -12.99,-160.43 0,-11 1.99,-17.99 5.49,-21.49 0.5,-0.5 5,-2.5 14.5,-6 l 14.99,7.5 c 18.49,40.98 27.49,99.46 27.49,174.93 0,2.5 0,4.99 -0.5,7.49 8.99,4 18.49,9.5 28.49,16 22.99,15.99 34.48,32.48 34.48,48.98 3,6.49 2,12.49 -3,18.49 -9.49,11.49 -33.48,17.49 -71.97,17.49 -3.49,0 -7.99,-2 -14.49,-6.5 -1.5,5 -2.5,9.5 -3,14 -9,-3 -13.99,-12 -14.49,-26.49 -3.5,-2.5 -7,-5.5 -10.5,-8.5 2.5,-3.5 5.5,-6 10,-8.49 -0.5,-10 -1.5,-25.49 -3,-46.49 -13.49,1 -24.99,5 -34.49,12.5 -0.5,46.48 -10.49,79.47 -29.99,99.96 -5,-5 -8.49,-10 -9.99,-15 5.49,-39.98 2.99,-73.96 -7.5,-102.45 l -5,2.5 c -6.99,44.48 -19.49,83.96 -37.48,117.45 z m 166.43,-101.96 c -0.5,-0.5 -1,-0.5 -1.5,-1 -1.5,4 -2.5,8 -4,12 -2.49,6.49 -4.49,12.99 -6.49,18.99 l 50.48,4.49 c -1.5,-4.99 -5,-9.99 -10,-14.99 -5.5,-5.49 -15,-11.99 -28.49,-19.49"
         inkscape:connector-curvature="0"
         id="path154"
         style="fill:#000000;fill-opacity:1;fill-rule:nonzero;stroke:none" /><path
         d="m 2720.24,7545.19 c -36.48,0 -57.97,-16.5 -64.47,-49.98 -0.5,-1 -0.5,-26.99 -0.5,-78.47 0,-42.49 8.5,-69.97 24.99,-81.47 16.49,14 24.99,27.99 24.99,42.48 0,11 -2,22.99 -6.5,35.49 -5.5,14.49 -8,23.99 -8.49,27.49 -2.5,19.99 12.99,44.98 47.48,74.47 12.99,-16.5 25.49,-46.49 37.48,-88.97 13.49,-49.48 22.99,-78.96 27.49,-88.46 3.5,10 5,17.49 5,22.49 0.5,31.99 -3,63.47 -10,93.96 -13.99,60.48 -39.98,90.97 -77.47,90.97"
         inkscape:connector-curvature="0"
         id="path156"
         style="fill:#000000;fill-opacity:1;fill-rule:nonzero;stroke:none" /><path
         d="m 6011.43,4570.88 c -3,9.99 -15.5,25.49 -37.99,46.98 -23.99,23.49 -41.98,35.48 -54.48,35.48 -9.99,0 -17.99,-10.99 -24.49,-32.98 -5.49,-17.5 -7.99,-34.49 -7.99,-51.98 0,-22.49 7.49,-40.49 22.49,-52.98 9.49,-7.5 25.49,-15.49 48.98,-23.99 23.99,-8.5 39.98,-16 48.48,-22.49 14.99,-11 22.49,-26.49 22.49,-46.98 0,-0.5 0,-4 0,-11.5 -1,-8.49 -3.5,-15.99 -7,-22.49 -11.99,-21.49 -36.48,-31.99 -72.97,-31.99 -11.49,0 -28.49,12.5 -49.98,37.49 -8.99,-6.5 -14.99,-14 -17.49,-22.49 3,-10 10.99,-21 23.99,-32.99 17.99,-16.49 37.48,-24.49 58.48,-24.49 39.48,0 68.97,16.49 87.46,49.48 11.5,20.49 17.49,40.98 17.49,60.47 0,29.49 -22.99,60.98 -68.47,94.47 -22.99,15.49 -38.98,26.99 -47.48,33.48 -14.49,11 -21.49,20 -21.49,27 0,9.99 1.5,17.49 5,22.48 48.48,-19.49 73.47,-29.48 74.97,-29.98"
         inkscape:connector-curvature="0"
         id="path158"
         style="fill:#000000;fill-opacity:1;fill-rule:nonzero;stroke:none" /><path
         d="m 5771.52,4600.86 -2.5,7.5 c -35.48,19.99 -55.47,29.99 -59.97,29.99 -22.49,0 -41.48,-7 -56.98,-20.49 -15.49,-13.5 -22.99,-29.49 -22.99,-48.48 0,-14.5 31.49,-38.99 94.96,-73.97 63.48,-34.99 94.96,-63.98 94.96,-86.97 0,-21.49 -21.49,-32.49 -64.97,-32.49 -0.5,0 -15.49,11.5 -44.98,34.99 10.49,5.5 14.49,11 12.49,17.49 l -23.99,7.5 c -9.5,0 -15.99,-1.5 -19.49,-4 -3.5,-2.5 -5.5,-3.5 -6.5,-3.5 1,-15.49 9,-32.98 23.49,-52.98 20.5,-27.99 46.99,-41.98 78.97,-41.98 26.49,0 47.98,9 64.98,27.49 13.49,14.49 19.99,27.99 19.99,40.99 0,28.48 -30.99,62.97 -93.47,103.45 -31.48,19.49 -52.97,32.49 -64.47,39.99 -19.49,12.49 -29.49,20.99 -29.49,25.49 0,10.49 1,15.99 2.5,16.99 l 2.5,-2 c 25.99,17.49 57.48,22.49 94.96,14.99"
         inkscape:connector-curvature="0"
         id="path160"
         style="fill:#000000;fill-opacity:1;fill-rule:nonzero;stroke:none" /><path
         d="m 5233.24,4566.38 c -27.49,11.5 -53.98,16.99 -78.97,16.99 -19.99,0 -36.48,-4.99 -49.48,-14.99 -13.49,-10.5 -20.49,-24.49 -20.49,-41.49 0,-3 3.5,-11.49 9.99,-25.98 8.5,-19 18.5,-36.49 29.99,-52.48 35.99,-49.98 78.47,-74.97 127.45,-74.97 14,0 24.99,5.99 32.49,17.49 l -2.5,7.5 c -43.49,1 -82.97,17.49 -118.95,49.48 -32.49,28.48 -48.48,55.47 -48.48,80.46 0,24.99 24.99,37.49 74.97,37.49 8.49,0 23.49,-4 44.48,-12.5 20.49,-8.49 33.98,-12.49 40.48,-12.49 -3,7 -16.49,15.49 -40.98,25.49"
         inkscape:connector-curvature="0"
         id="path162"
         style="fill:#000000;fill-opacity:1;fill-rule:nonzero;stroke:none" /><path
         d="m 5036.82,4620.86 c 4,51.48 -8.5,77.46 -37.49,77.46 -9.99,0 -23.99,-9.99 -42.48,-29.98 -18.49,-20 -27.49,-34.99 -27.49,-44.98 0,-16.5 1.5,-21.5 5,-15 8.5,4.5 18.49,15 30.99,30.49 12.99,16.49 21.99,25.99 26.49,29.49 l 4.99,-7.5 c 1.5,-2.5 3.5,-3.5 5.5,-3 1.5,-0.5 2,-6 2,-15.99 0,-12.5 -4.5,-44.48 -12.99,-94.96 -20,14.49 -43.99,21.49 -71.98,21.49 -9.49,0 -21.49,-6 -35.48,-18 -14.5,-12.49 -21.99,-24.99 -21.99,-36.98 0,-16.49 6.5,-41.98 19.99,-75.47 17.99,-46.48 40.48,-69.47 67.47,-69.47 37.49,0 62.98,7.99 77.47,24.49 7.5,8.5 12.5,19.49 15,33.48 20.99,3.5 38.48,8.5 52.47,14.5 l -14.99,7.5 c 0,-2.5 -9,-4 -27.49,-4 -2.5,0 -5.5,0 -7.99,0 0.49,4 0.49,8 0.49,12.49 -2.99,18.99 -10.49,37.99 -21.99,56.48 -1.5,2.5 -3.5,5.5 -5.5,7.99 l 0,9.5 c 13.5,39.99 20,69.97 20,89.97 z m -78.47,-101.96 c 8.99,-7.5 16.99,-14.5 23.99,-21.99 -0.5,-0.5 -0.5,-0.5 -0.5,-1 0,-29.99 3.5,-54.98 10,-74.97 8.49,0.5 16.99,1.5 24.98,2 -0.5,-5.5 -13.49,-16.5 -39.98,-31.99 -7.5,21.99 -22.99,43.98 -46.98,65.97 -20.49,18.49 -30.49,36.49 -30.49,53.98 0,17.99 6,26.99 18.49,26.99 10.5,0.5 24,-6 40.49,-18.99"
         inkscape:connector-curvature="0"
         id="path164"
         style="fill:#000000;fill-opacity:1;fill-rule:nonzero;stroke:none" /><path
         d="m 5281.72,4535.39 c -16.49,-14.5 -24.99,-30.99 -24.99,-49.48 0,-14.49 14.49,-39.48 42.98,-74.97 36.49,-44.98 75.97,-67.47 119.45,-67.47 29.99,10.49 44.98,21.49 44.98,32.48 0,10 -1.99,17 -5.49,21.5 -3.5,3 -6,6 -7,8.49 -33.99,-14.49 -68.97,-6.99 -104.96,21.99 -31.48,25.99 -47.48,49.48 -47.48,70.48 0,6.49 12.5,13.99 36.99,22.48 38.48,13.5 64.47,23.5 77.96,29.99 -3.49,6.5 -21.48,10 -54.97,10 -32.49,0 -57.98,-8.5 -77.47,-25.49"
         inkscape:connector-curvature="0"
         id="path166"
         style="fill:#000000;fill-opacity:1;fill-rule:nonzero;stroke:none" /><path
         d="m 5491.64,4508.9 c 11.49,-11.99 28.98,-17.99 52.47,-17.99 12.5,0 23,6.5 30.49,19.49 6.5,11.49 9.5,23.99 9.5,37.99 1.5,46.48 -26.49,69.97 -84.97,69.97 -38.48,0 -57.47,-26.99 -57.47,-81.47 0,-26.49 8.99,-55.48 27.48,-85.96 28.99,-48.48 72.47,-72.48 129.95,-72.48 19.99,0 34.99,7.5 44.98,22.5 l -2.5,7.49 c -62.97,-1 -106.95,15 -131.94,47.48 -8,10.5 -15,24.49 -20.99,41.99 -7.5,22.99 -11.5,34.98 -12,35.48 2,-3 7,-11 15,-24.49 z m 62.47,39.49 c 0,-23.5 -12.49,-34.99 -37.49,-34.99 -4.99,0 -12.49,4 -22.49,11.99 -11.49,9.5 -17.49,18.5 -17.49,27.99 0,25 13,36.99 38.98,35.49 25.5,-1.5 38.49,-14.99 38.49,-40.48"
         inkscape:connector-curvature="0"
         id="path168"
         style="fill:#000000;fill-opacity:1;fill-rule:nonzero;stroke:none" /><path
         d="m 4146.17,4729.31 c 4,7 6,15.99 6,26.49 -9.99,43.49 -27.49,64.98 -52.48,64.98 -37.48,0 -59.48,-24.49 -66.97,-72.98 -0.5,-1.5 -0.5,-30.48 -0.5,-85.96 0,-0.5 0.5,-14.49 1,-41.48 0.5,-18 2,-34.99 4,-50.98 -58.48,-6.5 -87.47,-21.99 -87.47,-45.99 0,-16.49 2.5,-21.49 7.5,-14.99 l 17.49,-5 c 25.49,3.5 49.48,7 70.97,10.5 15.5,-71.97 41.49,-107.96 78.97,-107.96 16.5,0 21.49,1 15,2.5 l 9.99,14.99 c -27.99,29.49 -46.48,62.48 -55.47,98.46 62.47,11 102.45,20.5 120.44,28.99 -52.47,15 -83.96,22.5 -94.96,22.5 -10.99,0 -21.49,0 -30.98,-0.5 -1,19.49 -1.5,45.98 -1.5,78.96 -1,54.98 9.99,91.97 32.48,111.46 l 7.5,-7.5 c 3.5,-14.99 2.5,-29.99 -2.5,-44.98 l 7.5,0 c 6.5,8.5 11.5,14.5 13.99,18.49"
         inkscape:connector-curvature="0"
         id="path170"
         style="fill:#000000;fill-opacity:1;fill-rule:nonzero;stroke:none" /><path
         d="m 4328.6,4440.93 c 7.5,13.49 11,23.99 11,32.48 -18.49,48.48 -43.49,72.48 -74.98,72.48 -27.48,0 -51.47,-12.5 -71.96,-37.49 -17,-20.99 -25.5,-39.98 -25.5,-56.47 0,-11.5 9.5,-27.5 27.99,-48.98 22.49,-26.5 47.49,-39.49 74.47,-39.49 18.5,0 40.99,13.49 67.48,39.99 -2,1.99 -6.5,0.5 -13,-4 -4.49,-3.5 -6.99,-0.5 -6.99,8.99 0,8.5 4,18.99 11.49,32.49 z m -83.97,54.98 c 16.5,0 33.49,-2.5 49.98,-7.5 l 5,-18.99 c -5,-38.99 -17.49,-58.48 -37.49,-58.48 -9.49,0 -19.49,6 -29.98,17.49 -10,11.5 -15,21.5 -15,29.99 0,4.5 2.5,11 7,19.99 6.5,11.5 13,17.5 20.49,17.5"
         inkscape:connector-curvature="0"
         id="path172"
         style="fill:#000000;fill-opacity:1;fill-rule:nonzero;stroke:none" /><path
         d="m 4379.58,4454.42 c 0,-27.49 0.5,-44.98 2,-52.47 3.5,-22.5 12.99,-37.99 27.99,-45.99 11.49,4.5 17.99,13 19.99,24.99 -10,40.49 -14.49,72.47 -13.49,95.96 1.5,42.49 29.98,63.98 85.96,63.98 -34.98,13.49 -60.98,19.99 -77.47,19.99 -29.99,0 -44.98,-35.49 -44.98,-106.46"
         inkscape:connector-curvature="0"
         id="path174"
         style="fill:#000000;fill-opacity:1;fill-rule:nonzero;stroke:none" /><path
         d="m 3664.87,4593.37 c -15.5,0 -30.99,-3.5 -47.48,-10 -23.5,-9.49 -34.99,-23.49 -34.99,-41.48 0,-10 1.5,-15 4,-15.5 1.5,-0.5 3.99,-0.5 8.49,-0.5 l 0,-29.98 c -2,2 -4,4 -6.49,5.99 -12.5,13.5 -20.49,21.49 -23.49,23.99 l 0,-7.49 c 8.49,-7.5 15.49,-22.49 21.99,-45.49 2.49,-3.49 4.99,-6.99 7.99,-10.49 l 0,-13.99 c 5,-21 7,-62.48 6.5,-123.95 -1,-51.48 6,-92.97 20.99,-123.46 11.5,1.5 19,5 22.5,10 1.5,5.5 2.5,17 2.5,33.49 0,17.49 -5,65.47 -15,144.44 -2.5,21.49 -5,40.48 -7.5,57.98 10,-2.5 21.5,-3.5 34.99,-3.5 39.98,0 59.97,25.99 59.97,77.47 2,12.99 1.5,25.49 -2,36.98 -6.99,23.49 -24.48,35.49 -52.97,35.49 z m 9.99,-42.49 5,-12.49 0,-44.98 c -17.49,-6.5 -36.98,-10 -57.48,-10 -1,0 -2,0 -3.5,0 -3.49,18.99 -6.49,34.49 -8.99,46.98 25.99,12.5 47.48,19 64.97,20.49"
         inkscape:connector-curvature="0"
         id="path176"
         style="fill:#000000;fill-opacity:1;fill-rule:nonzero;stroke:none" /><path
         d="m 3472.44,4695.83 -7.49,-2.5 c 3.5,-29.99 9.99,-73.97 19.99,-131.45 0,-26.49 -3.5,-48.48 -10.5,-66.97 -15.49,-39.49 -24.99,-66.48 -29.49,-81.47 -5.49,10.99 -11.49,34.49 -17.99,70.47 -6.5,36.49 -12,59.48 -16.99,69.47 -10,-4.99 -17.49,-9.99 -22.49,-14.99 0,-15 -1,-29.99 -2.5,-44.98 7.5,-78.47 28.98,-117.46 64.97,-117.46 15.5,0 31.49,21.5 47.48,64.98 13.5,36.48 20,62.47 20,78.47 0,35.48 -2.5,59.48 -7,72.97 -11.5,26.49 -24.49,60.97 -37.99,103.46"
         inkscape:connector-curvature="0"
         id="path178"
         style="fill:#000000;fill-opacity:1;fill-rule:nonzero;stroke:none" /><path
         d="m 2560.31,4874.25 c 9.49,0 20.49,-3.99 32.98,-12.49 12,-8.5 18.5,-12.49 19.5,-12.49 l -2.5,7.49 c -9.5,7 -31.49,15.49 -65.97,25.99 -30.49,9.5 -48.49,14 -53.98,14 -25.49,0 -60.48,-24 -104.96,-71.48 -43.49,-45.98 -64.98,-79.47 -64.98,-100.95 0,-9.5 12,-19.5 36.49,-29.49 34.49,-11.5 61.47,-21.49 80.97,-28.99 78.46,-30.49 117.45,-70.97 117.45,-121.45 0,-1.5 -2.5,-12.5 -7.5,-32.99 -9.49,-20.49 -26.49,-30.49 -50.98,-30.49 -35.48,0 -64.97,10.5 -87.96,30.99 -23.49,20.99 -31.99,45.48 -25.99,73.97 l -12.5,5 c -6.49,-3.5 -13.49,-8.5 -19.99,-14.99 2.5,-21 17.5,-45.49 44.99,-73.98 32.98,-33.98 67.97,-50.97 104.95,-50.97 31.49,0 54.98,13.99 70.47,42.48 9.5,17.49 14.5,33.98 14.5,48.48 0,29.49 -21.49,60.97 -64.48,93.46 -14.49,11 -64.97,42.98 -150.44,95.46 8,30.49 20.5,56.98 37.49,78.97 32.49,42.98 83.47,64.47 152.44,64.47"
         inkscape:connector-curvature="0"
         id="path180"
         style="fill:#000000;fill-opacity:1;fill-rule:nonzero;stroke:none" /><path
         d="m 2672.76,4748.3 29.99,2.5 -2.5,7.5 c -4,12.5 -9.99,22.49 -17.49,29.99 l -12.49,0 c -1.5,-8.5 -2.5,-14.99 -2.5,-19.99 0,-16.5 1.5,-23.49 4.99,-20"
         inkscape:connector-curvature="0"
         id="path182"
         style="fill:#000000;fill-opacity:1;fill-rule:nonzero;stroke:none" /><path
         d="m 2692.75,4705.82 -7.49,0 c 0,-9.99 -2.5,-28.99 -7.5,-56.48 0,-89.96 13.99,-152.93 42.48,-188.42 10,8.5 16.5,12.49 19.99,12.49 -2.49,30.99 -10.49,70.48 -22.98,118.96 -13.5,50.48 -22,87.96 -24.5,113.45"
         inkscape:connector-curvature="0"
         id="path184"
         style="fill:#000000;fill-opacity:1;fill-rule:nonzero;stroke:none" /><path
         d="m 2840.2,4495.91 c 5,0 13.99,6.49 27.48,18.99 14.5,13.49 22,20.49 22.5,20.99 1.5,-7.5 5,-20.49 10.49,-38.48 4.5,-17 7,-30.49 7,-40.49 0,-1.5 -2.5,-20.49 -7.5,-57.97 -10.49,-36.99 -30.49,-55.48 -59.97,-55.48 -17.5,0 -30.49,3.99 -38.49,11.99 -5,9 -9,14 -11.5,15.5 -6.49,-6.5 -9.99,-14 -9.99,-22.5 4,-5.49 10.49,-14.99 19.49,-28.48 11,-11 27.99,-16.5 50.48,-16.5 41.49,0 70.47,22.49 87.97,66.98 9.49,25.49 14.49,52.97 14.49,82.96 -1.5,27.99 -6,55.48 -14.49,81.97 -17,53.48 -42.98,80.47 -77.97,80.47 -39.99,0 -59.98,-23.49 -59.98,-69.97 -10,-33.49 3.5,-49.98 39.99,-49.98 z m 18.49,71.97 c 12.49,0 20.49,-0.5 23.99,-2 l 0,-5 c -8.5,-3.5 -22.49,-11.49 -42.48,-24.99 l 0,29.99 c 0,1.5 6,2 18.49,2"
         inkscape:connector-curvature="0"
         id="path186"
         style="fill:#000000;fill-opacity:1;fill-rule:nonzero;stroke:none" /><path
         d="m 3090.1,4668.34 c -15,0 -27.49,-14.5 -36.99,-43.98 -5,-15.5 -10,-34.99 -15.49,-58.48 -3.5,1.5 -5,5 -5,10 0,19.99 -2.5,32.48 -7.5,37.48 l -14.99,-2.5 c -1.5,-10 -2.5,-28.99 -2.5,-56.48 0,-39.98 1,-64.97 3,-74.97 5.49,-30.48 20.49,-56.97 44.48,-78.46 2.5,9.99 7,51.47 12.5,124.94 3.5,49.99 16.99,86.47 39.98,109.96 l 2.5,-2.5 c 5,-29.49 14.99,-70.47 29.99,-122.95 15.49,-52.98 25.49,-92.96 29.98,-119.45 l 5,12.5 c 1.5,3.49 2.5,13.49 2.5,29.98 -1.5,40.98 -6.5,80.97 -14.49,119.45 -16.5,76.97 -40.49,115.46 -72.97,115.46"
         inkscape:connector-curvature="0"
         id="path188"
         style="fill:#000000;fill-opacity:1;fill-rule:nonzero;stroke:none" /><path
         d="m 1385.78,9317.48 c -12.5,4.99 -31.99,11.99 -58.48,20.99 -38.48,12.49 -63.97,18.99 -76.47,18.99 -27.49,0 -51.48,-14.5 -72.47,-42.98 -16.49,-22.49 -24.99,-40.98 -24.99,-55.48 0,-27.49 12.5,-58.98 37.99,-94.46 38.48,-54.48 94.96,-81.97 169.43,-81.97 54.98,0 82.46,15 82.46,44.98 0,2.5 -3.99,9.5 -12.49,21.99 -8.5,12 -14.99,20.5 -19.99,25.5 -1.5,-2.5 -2,-7 -1,-13 -1,-4.5 -6.5,-7 -16.5,-7 -26.98,0 -56.47,13.5 -88.96,39.99 -27.49,22.49 -43.48,41.98 -48.48,57.47 47.48,22.49 90.96,43.98 129.95,64.98"
         inkscape:connector-curvature="0"
         id="path190"
         style="fill:#000000;fill-opacity:1;fill-rule:nonzero;stroke:none" /><path
         d="m 1048.91,9389.95 c 4,0 8,-1 12,-2.5 11.49,8.5 18.99,12.5 22.49,12.5 l 0,22.48 -14.99,2.5 c -5,0 -11,-1 -17.5,-2.5 -1,-1.49 -2.5,-1.99 -4.5,-0.99 -0.5,0.49 -0.5,-4.5 -0.5,-14 0,-10.49 1,-16.49 3,-17.49"
         inkscape:connector-curvature="0"
         id="path192"
         style="fill:#000000;fill-opacity:1;fill-rule:nonzero;stroke:none" /><path
         d="m 1083.4,9322.48 -7.5,0 c 0,-23.5 -1,-57.48 -2.5,-102.46 0,-16.5 6,-58.98 17.49,-127.45 5,-4.5 8.5,-7.5 10.5,-9 2.5,-2.5 9,-3.5 19.49,-3.5 10,0 17,2 21.5,6 l 6,6.5 c 1.49,9.99 2.49,18.99 2.49,26.48 0,14 -10.49,47.49 -31.98,99.97 -22,54.97 -33.99,89.46 -35.49,103.46"
         inkscape:connector-curvature="0"
         id="path194"
         style="fill:#000000;fill-opacity:1;fill-rule:nonzero;stroke:none" /><path
         d="m 988.938,9236.01 c -27.989,48.48 -72.473,75.47 -132.95,81.47 34.989,24.99 60.977,49.98 77.473,74.97 -40.484,-2.5 -71.973,-12 -94.465,-29.49 -21.992,-16.5 -32.984,-37.49 -32.984,-62.98 0,-4 8.496,-11.99 24.988,-23.49 23.492,-15.49 41.484,-28.49 54.977,-38.48 53.48,-38.49 79.968,-71.47 79.968,-97.96 0,-1.5 -1,-11.5 -2.5,-29.99 -3.996,-18.49 -12.492,-27.49 -24.988,-27.49 -6.996,0 -18.492,3.5 -34.484,10.5 -20.493,8.99 -34.489,19.49 -42.985,31.98 l -5,-7.49 c 1.5,-13.5 9.996,-29.99 24.492,-49.48 20.493,-26.99 43.981,-40.49 70.473,-40.49 24.988,0 42.981,16.5 54.477,49.98 7,20.5 10.5,41.48 10.5,63.98 0,31.99 -9,63.47 -26.992,94.46"
         inkscape:connector-curvature="0"
         id="path196"
         style="fill:#000000;fill-opacity:1;fill-rule:nonzero;stroke:none" /><path
         d="m 653.57,9372.46 c -1.5,0 -3.996,-1 -7.496,-2.5 21.492,-86.47 32.488,-156.44 32.488,-209.92 0,-12 -6,-33.99 -17.996,-66.47 -12.992,-34.49 -24.488,-55.98 -34.484,-63.48 -41.484,37.99 -67.973,89.96 -79.469,155.94 -3,17.49 -6.996,42.98 -11.496,77.47 -5.496,28.49 -13.492,52.48 -23.988,71.47 -8.496,-5 -14.996,-10 -19.992,-14.99 -1.5,-29.99 -6,-73.48 -12.496,-130.95 5,-40.49 14.996,-79.97 30.488,-118.46 30.488,-76.96 70.973,-115.45 121.949,-115.45 41.984,0 73.473,27.49 94.965,81.97 13.492,34.48 19.992,64.47 19.992,90.46 0,16.5 -13.496,58.98 -40.484,126.45 -24.492,60.48 -41.485,99.96 -51.981,118.46"
         inkscape:connector-curvature="0"
         id="path198"
         style="fill:#000000;fill-opacity:1;fill-rule:nonzero;stroke:none" /><path
         d="m 436.156,9012.6 c 10.496,0 15.496,1 15.496,2.5 l -3,2.5 c -34.484,150.44 -55.476,237.9 -62.972,262.39 -37.489,118.46 -78.969,177.43 -124.453,177.43 -21.989,0 -34.985,-18.49 -38.985,-54.98 0.5,-42.48 0.5,-68.47 0.5,-78.97 0,-64.97 6,-143.44 18.492,-235.9 l -2.496,0 c -42.484,253.4 -77.468,379.85 -105.957,379.85 -18.496,0 -64.9763,-158.94 -139.94506,-477.31 0,-11 2,-18 5.49609,-21.49 0.5,-0.5 5,-2.5 14.49607,-6 39.4844,35.49 65.9727,92.46 80.4688,170.93 6.4961,43.48 10.9921,75.47 14.4921,96.46 5.5,36.99 12.496,65.97 19.992,87.47 l 5,-12.5 c 3.996,-80.46 13.992,-153.94 30.485,-220.91 23.492,-95.96 54.48,-143.94 92.964,-143.94 25.489,0 40.485,14.99 44.981,44.48 l 0,64.48 c -11.496,127.44 -18.492,223.41 -19.992,288.38 8.496,-14.5 18.992,-41.49 31.488,-80.97 14.496,-47.98 25.988,-83.96 33.988,-108.46 30.489,-90.46 60.473,-135.44 89.461,-135.44"
         inkscape:connector-curvature="0"
         id="path200"
         style="fill:#000000;fill-opacity:1;fill-rule:nonzero;stroke:none" /><path
         d="m 6761.13,9762.3 c -2.5,1 -7,4 -13.5,9 -3,2.49 -9.49,3.49 -18.99,3.49 -34.49,0 -91.46,-18.49 -171.93,-54.97 -78.47,-35.49 -117.95,-59.98 -117.95,-72.48 0,-1.5 9.99,-10.99 29.98,-27.48 24.49,5.5 52.98,12.99 85.97,23.49 6,-83.47 38.99,-191.93 98.96,-325.87 l 9.99,2.5 c -4.99,19.99 -2.49,47.48 7.5,82.46 -15.49,124.45 -30.98,212.92 -46.98,264.9 3.5,1.5 7.5,2.5 11,4 87.46,32.48 130.94,57.47 130.94,75.96 0,16.5 -1.5,21.5 -4.99,15"
         inkscape:connector-curvature="0"
         id="path202"
         style="fill:#000000;fill-opacity:1;fill-rule:nonzero;stroke:none" /><path
         d="m 6389.28,9723.82 c 0,9.99 -2,18.99 -5.5,27.48 -11,25.49 -35.99,38.49 -74.97,38.49 -38.99,0 -94.97,-23.99 -167.43,-72.47 -68.48,-45.48 -102.47,-75.47 -102.47,-89.97 0,-1.49 10,-10.49 29.99,-27.49 2,0.5 4.5,1.5 8,3 5,-84.96 9.5,-152.43 13.49,-201.91 8.5,-107.46 24.5,-160.94 48.49,-160.94 16.49,0 21.49,2.5 14.99,7.49 0.5,1.5 1.5,1.5 3.5,1 1,-0.5 1.5,4.5 1.5,14 0,28.49 -9.5,87.46 -27.99,176.93 8,-8.5 42.48,-33.99 102.96,-76.47 73.97,-51.98 122.45,-77.97 144.94,-77.97 16.49,0 27.49,1.5 32.49,5 -2,22.49 -22.99,50.48 -63.48,82.96 -67.47,54.48 -103.46,83.97 -108.95,89.47 13.49,19.99 43.48,59.97 89.96,119.45 39.99,55.98 59.98,98.46 59.98,127.95 0,0.5 0,5.5 0.5,14 z m -80.47,-19 -2.5,-14.99 c -6.5,-9.5 -40.99,-54.48 -103.46,-135.95 -44.98,-58.47 -69.47,-94.46 -73.47,-107.95 -2,8.99 -4,18.49 -6,28.48 -12.49,57.98 -22.99,103.47 -30.99,136.45 18.5,9.5 46.99,24.49 85.47,45.98 48.48,26.99 92.46,42.98 130.95,47.98"
         inkscape:connector-curvature="0"
         id="path204"
         style="fill:#000000;fill-opacity:1;fill-rule:nonzero;stroke:none" /><path
         d="m 5721.54,9342.97 c 2.5,8.49 5,16.99 7.5,25.49 11,-0.5 24.49,-1 39.98,-1 20,0 43.49,6.49 70.48,19.99 3.5,-9.5 7.49,-19.99 11.99,-30.49 40.49,-86.46 79.47,-129.45 117.46,-129.45 10.49,0 17.99,2.5 22.48,7 2.5,2.5 5,7 7.5,12.99 l 2.5,11.5 c 0,25.49 -23.49,85.96 -70.97,182.43 15.49,8.5 26.99,13.99 33.49,15.99 -1.5,3.5 -6.5,6 -15,7.5 -7,-3.5 -15.49,-7.5 -24.99,-11 -10,19.49 -20.99,40.99 -32.48,63.48 -20.5,60.47 -39.49,110.45 -55.98,149.44 -31.49,73.47 -58.98,110.45 -81.47,110.45 -15.49,0 -44.48,-83.46 -86.96,-250.4 -40.49,-158.43 -60.48,-250.4 -60.48,-276.89 0,-10.49 2,-20.49 5.5,-29.98 6.99,-18.5 19.49,-27.49 36.98,-27.49 19.49,0 43.98,49.98 72.47,150.44 z m 47.48,204.42 5,0 c 9.5,-20.5 26.99,-61.98 51.48,-124.46 -25.99,-6.99 -55.48,-14.49 -87.96,-21.98 13.99,53.47 24.49,102.45 31.48,146.44"
         inkscape:connector-curvature="0"
         id="path206"
         style="fill:#000000;fill-opacity:1;fill-rule:nonzero;stroke:none" /><path
         d="m 3772.32,11881.4 -7.5,0 c -3.49,-75.9 -4.99,-122.4 -4.99,-138.9 -2.5,-77.5 8.99,-125.9 34.98,-145.9 5,5 8.5,10 10,15 -3,15.5 -4.5,50.4 -4,104.9 1,-4 2.5,-7 4.5,-9 0.5,-0.5 5,-2.5 14.49,-6 32.99,9 56.98,-1.5 71.97,-31 8,-18 14.5,-31.5 19,-40.4 8.5,-16.5 17.99,-28.5 28.99,-36 l 7.49,5 c -5,43.4 -10.99,74.9 -18.49,94.4 -17.49,45.5 -45.48,68 -83.97,68 -2.49,0 -5.49,0 -7.99,-0.5 18.49,25.5 27.99,43 27.99,51.5 0,16.5 -1,20.5 -2.5,11.5 -10,-4.5 -29.49,-21.5 -58.48,-51 -1,-1 -2,-2 -3,-3.5 -2,45 -11.49,82.5 -28.49,111.9"
         inkscape:connector-curvature="0"
         id="path208"
         style="fill:#000000;fill-opacity:1;fill-rule:nonzero;stroke:none" /><path
         d="m 3503.43,11804 c -1.5,0 -2.5,0 -3.5,0 -44.98,0 -66.47,-30.5 -64.97,-91.5 -2.5,-16 -1,-31 4.5,-45.5 11.49,-28.5 37.98,-42.9 80.47,-42.9 2.49,0 13.99,14.4 34.48,42.9 1.5,2 2.5,4 4,5.5 6,-54.4 12.99,-91.4 21.49,-110.9 l 7.5,5 c 4.99,10 7.49,26 7.49,48.5 0,0.5 -1,14 -2.5,39.9 -2,21.5 -4.49,42 -7.99,61 0.5,1.5 0.5,2.5 0.5,3 -1,19.5 -5,35 -12,47.5 -17.49,61.5 -42.48,92.5 -75.47,92.5 -17.99,0 -28.48,-0.5 -31.98,-1.5 -8.5,-2.5 -13,-9 -13,-20 0,-10.5 0.5,-15.5 1.5,-15 l 1,4 c 18.49,-4 34.99,-11.5 48.48,-22.5 z m -13.49,-137.5 c -10,0 -16,2 -18.49,6 l -4,6.5 c -1.5,10 -2.5,20 -2.5,30 2.5,40 11.99,60 27.48,60 21.5,0 36.99,-4.5 47.49,-13.5 5.49,-12.5 10.49,-26.5 13.99,-42.5 -9,-31 -30.49,-46.5 -63.97,-46.5"
         inkscape:connector-curvature="0"
         id="path210"
         style="fill:#000000;fill-opacity:1;fill-rule:nonzero;stroke:none" /><path
         d="m 2940.16,11927.4 c 0,0.5 0,12 0.5,35 -0.5,27 -2.5,51.5 -6,74 -7,45 -19.5,76 -36.99,92.5 l -61.97,0 c -18,-24.5 -31.49,-78.5 -40.49,-162.5 -6.5,-121.4 -9.99,-184.9 -9.99,-191.4 -1.5,-39 1.5,-77.5 7.99,-116 12.5,-76.4 38.49,-114.9 76.97,-114.9 16.5,0 30.99,32.5 42.49,97.9 5.99,32.5 9.99,66 12.49,100.5 0,10.5 -1.5,15.5 -4,15.5 -2.5,0.5 -9.49,0.5 -20.99,1 -4.99,-1.5 -8.49,-4 -9.99,-7.5 -3,-14.5 -4,-31.5 -3,-51.5 1.5,-21.5 2.5,-37.5 3,-48 1,-35.4 -10.5,-60.4 -34.99,-75.4 -26.49,51.5 -39.98,118.9 -39.98,202.4 0,48.5 2.99,98.5 9.49,149.9 11.5,94.5 30.49,154.5 57.98,180 28.49,-50.5 42.48,-128 42.48,-232.4 l 10,2.5 c 0,9.9 1.5,25.9 5,48.4"
         inkscape:connector-curvature="0"
         id="path212"
         style="fill:#000000;fill-opacity:1;fill-rule:nonzero;stroke:none" /><path
         d="m 3174.06,11492.1 -4.5,-31 20.49,-2.5 16,14 -6,-37 c -0.5,-1 -0.5,-2 -1,-3 -0.5,-1.5 -1,-2.5 -1.5,-3.5 -1.5,-1 -3.5,-2 -5.5,-2.5 2.5,-40 1,-81.4 -3.99,-124.9 -3.5,-29 1.99,-56 15.99,-81.5 l 18.99,7 13,165.4 c 55.98,-15.4 94.96,2.5 116.45,53 7.5,18 3,31.5 -13.99,41 -27.99,16 -57.98,21.5 -90.47,16.5 -16.99,-1.5 -27.49,2.5 -31.98,13 -2.5,0.5 -4,0 -4.5,-1 -1.5,-2.5 -2.5,-6 -2,-9.5 l -35.49,-13.5 z m 52.48,-51 0,30 98.46,0 0,-30 -98.46,0"
         inkscape:connector-curvature="0"
         id="path214"
         style="fill:#000000;fill-opacity:1;fill-rule:nonzero;stroke:none" /><path
         d="m 4093.7,11664 -48.99,15 38.99,66.5 c -12.5,39.5 -37.99,53.5 -75.97,42 -23.49,-7.5 -34.99,-23 -34.99,-45.5 -0.5,-41.5 16.99,-75 52.48,-101 30.49,-22.4 60.48,-25.9 89.97,-10.9 l -13,53.9 -8.49,-20 z m -55.48,89.5 c 3.49,-3.5 5.49,-8 5.49,-13.5 0,-5.5 -2,-10 -5.49,-14 -3.5,-3.5 -8,-5.5 -13.5,-5.5 -5.5,0 -9.99,2 -13.49,5.5 -3.5,4 -5.5,8.5 -5.5,14 0,5.5 2,10 5.5,13.5 3.5,4 7.99,6 13.49,6 5.5,0 10,-2 13.5,-6"
         inkscape:connector-curvature="0"
         id="path216"
         style="fill:#000000;fill-opacity:1;fill-rule:nonzero;stroke:none" /><path
         d="m 4176.16,11637.5 c -3.5,15.5 -3.5,30 0.5,43.5 13.5,45 35.99,86 67.97,123 -14.99,-4.5 -29.99,-8.5 -44.98,-13 -38.48,-13 -59.47,-39.5 -62.47,-79 l 22.49,-82.9 16.49,8.4"
         inkscape:connector-curvature="0"
         id="path218"
         style="fill:#000000;fill-opacity:1;fill-rule:nonzero;stroke:none" /><path
         d="m 3686.36,11759 -68.47,6 c -2.5,-61.5 8.49,-121 31.98,-178.4 l 12.5,5 -17.49,142.4 29.98,-14 30.49,60 -18.99,-21"
         inkscape:connector-curvature="0"
         id="path220"
         style="fill:#000000;fill-opacity:1;fill-rule:nonzero;stroke:none" /><path
         d="m 3880.78,11482.6 c -21.49,-13.5 -31.99,-33.5 -30.99,-59 l 16,-96.9 22.49,131.4 14.49,5.5 18.99,-125.4 c 8.5,8 14,17.5 15.5,28.5 7.49,53.4 -8.5,93.9 -47.98,120.9 -3,-1.5 -6,-3 -8.5,-5"
         inkscape:connector-curvature="0"
         id="path222"
         style="fill:#000000;fill-opacity:1;fill-rule:nonzero;stroke:none" /><path
         d="m 3799.81,11404.1 17.99,45 -1.5,16 -70.97,27 c -22.49,-27.5 -29.49,-59 -21.49,-94 10.5,-44.4 38.99,-61.9 86.47,-51.9 l -2.5,28.5 c -15.49,-8.5 -29.99,-8.5 -43.98,-1 -12.5,6.5 -18.99,15.4 -20.49,27.9 -0.5,3.5 -0.5,6.5 0,9.5 l 56.47,-7 z m -30.99,66.5 c 7.5,0 13.5,-2.5 18.5,-8 5,-5 7.49,-11 7.49,-18.5 0,-7.5 -2.49,-13.5 -7.49,-19 -5,-5 -11,-7.5 -18.5,-7.5 -7.49,0 -13.49,2.5 -18.49,7.5 -5,5.5 -7.49,11.5 -7.49,19 0,7.5 2.49,13.5 7.49,18.5 5,5.5 11,8 18.49,8"
         inkscape:connector-curvature="0"
         id="path224"
         style="fill:#000000;fill-opacity:1;fill-rule:nonzero;stroke:none" /><path
         d="m 3927.76,11446.1 56.98,-16 c -1,-12 -1.5,-24 -1,-35.5 0.5,-11 2,-21.9 5,-32.4 2.99,-10 6.99,-19.5 11.99,-29 5.5,-10.5 13,-19 21.49,-25 l 1.5,122.4 41.49,24.5 -43.49,3.5 -18.49,62.5 -10.5,-62.5 -63.97,-1.5 -1,-11"
         inkscape:connector-curvature="0"
         id="path226"
         style="fill:#000000;fill-opacity:1;fill-rule:nonzero;stroke:none" /><path
         d="m 3644.38,11485.1 -30.49,1 -7.5,-50.5 62.47,-67.9 -64.47,-4.5 -3,-22.5 c 38.99,-23.5 69.47,-16.5 90.97,21 2,10 1,20 -3.5,29.9 -11.5,28 -29.49,51 -53.98,69 14.49,5 17.49,13 9.5,24.5"
         inkscape:connector-curvature="0"
         id="path228"
         style="fill:#000000;fill-opacity:1;fill-rule:nonzero;stroke:none" /><path
         d="m 4183.66,11464.1 c -51.48,11 -90.46,-5.5 -116.96,-49.5 l 86.47,-84.9 -80.47,-8 7,-20 97.46,2.5 5.5,19.5 -89.96,95.9 108.95,38.5 c -6,2 -11.99,4 -17.99,6"
         inkscape:connector-curvature="0"
         id="path230"
         style="fill:#000000;fill-opacity:1;fill-rule:nonzero;stroke:none" /><path
         d="m 3456.45,11998.9 -24.49,16.5 -106.96,-14 -25.49,49 4.5,-56 -40.98,-20.5 3.99,-27.5 42.99,10.5 14.49,-99.4 -67.97,3.5 25.99,-44.5 45.98,13.5 33.99,-223.4 17.49,2.5 -26.99,231.9 c 25.49,18.5 50.98,37.5 75.97,56.9 33.49,27.5 42.98,61 27.49,101 z m -31.49,-25 c -7.5,-23 -17.99,-43.5 -32.48,-61.5 -8.5,-11 -18.5,-21 -30.49,-30 -5,-3.5 -10,-6.9 -14.5,-10.9 l -19.99,92.9 97.46,9.5"
         inkscape:connector-curvature="0"
         id="path232"
         style="fill:#000000;fill-opacity:1;fill-rule:nonzero;stroke:none" /><path
         d="m 2974.64,11683 -21.99,-3.5 c 3.5,-8 8.5,-15.5 14.49,-22 26.49,-31.4 57.48,-37.9 92.47,-19.5 12,-14.4 19.49,-31.9 22.99,-51.9 6.5,-36.5 7,-72.5 2,-108 -6.5,-45.5 -30.49,-69 -71.97,-71.5 l -77.47,52.5 c 19.49,-54.5 57.98,-79.4 114.45,-75.5 12,0.5 21.5,5.5 28.99,14.5 23.49,28.5 35.99,62 36.99,99.5 1.5,80.5 -10,159.4 -34.99,237.9 -6.5,20.5 -17.49,37 -33.49,50 l -17.99,0 28.49,-69 0,-52.5 c -6.5,-3 -13.5,-5.5 -19.99,-7 -27.49,-7.5 -48.48,1 -62.98,26"
         inkscape:connector-curvature="0"
         id="path234"
         style="fill:#000000;fill-opacity:1;fill-rule:nonzero;stroke:none" /><path
         d="m 3474.44,11510.1 -12.99,-22.5 -58.48,-5.5 c -2.5,-6.5 -4.5,-13.5 -6.5,-21 -12.99,-45.5 -4.99,-86.9 23.99,-124.4 l 14,10 c -3.5,15.5 -2,31.5 4,46.9 15.49,38.5 27.49,77 35.98,116.5"
         inkscape:connector-curvature="0"
         id="path236"
         style="fill:#000000;fill-opacity:1;fill-rule:nonzero;stroke:none" /><path
         d="m 3489.94,11461.6 c -7,-11.5 -10.5,-24.5 -10,-38 1,-62.4 30.99,-93.4 89.96,-92.9 l 8,8.5 -8,26 c -23.99,1 -40.48,13.5 -49.97,37.9 l 43.98,41.5 -50.98,27.5 -22.99,-10.5"
         inkscape:connector-curvature="0"
         id="path238"
         style="fill:#000000;fill-opacity:1;fill-rule:nonzero;stroke:none" /><path
         d="m 4274.62,10397 c -22.49,91 -53.48,174.5 -92.46,249.9 -116.95,228.5 -280.89,342.4 -492.3,342.4 -386.85,0 -666.74,-118.9 -839.17,-357.4 -59.98,-82.4 -103.96,-175.4 -131.44,-278.8 -18.5,-67.5 -28,-130.5 -28.99,-188 l 650.74,0 c -13.5,23.5 -24,54.5 -30.99,93 0,28 6.99,52 20.49,71.5 17.99,26.5 45.98,40 84.46,40 48.49,0 81.97,-23.5 100.47,-70 9.49,-23.5 14.49,-50 14.49,-79 0,-20.5 -3.5,-39 -10.49,-55.5 l 293.38,0 c -8.5,9.5 -16.5,21 -22.99,34.5 -11.5,23.5 -18.5,48.5 -20,75 0,29.5 6,57 18,83 18.99,41.4 49.48,61.9 91.96,61.9 50.48,0 85.47,-25.5 104.96,-76.9 6.49,-16.5 10.49,-35 12.99,-55 1.5,-10 2,-19.5 2,-28 0,-41.5 -7.5,-73 -22.49,-94.5 l 319.87,0 c 1.5,28.5 2.5,58 2.5,88 0,29.5 -8.49,77.5 -24.99,143.9"
         inkscape:connector-curvature="0"
         id="path240"
         style="fill:#000000;fill-opacity:1;fill-rule:nonzero;stroke:none" /><path
         d="m 3899.77,10129.7 c -35.98,0 -64.97,11.9 -86.96,35.4 l -293.38,0 c -1.5,-2.5 -2.5,-5.5 -4,-8 -16.5,-31.4 -44.98,-47.4 -85.47,-47.4 -37.48,0 -67.47,18.5 -88.96,55.4 l -650.74,0 c 0,-3 0,-6 0,-9.5 0,-98.9 6.49,-166.39 18.99,-202.38 11.49,-33.49 56.98,-114.45 135.95,-243.4 36.48,-59.48 120.44,-115.45 252.39,-168.93 -11.99,-30.49 -39.98,-96.96 -83.47,-199.43 l 29.99,0 c 22,52.49 48.48,115.96 79.97,189.43 16.49,-6.5 34.49,-13 52.98,-19.49 49.48,-17.49 96.46,-31.99 141.94,-43.98 -2.5,-17 -8.49,-34.49 -18.99,-52.98 -13.49,-23.99 -19.99,-36.49 -19.99,-36.99 0,-16.49 1.5,-21.49 5,-14.99 80.46,-9.5 124.95,-14.5 132.44,-15 l 0,-2.5 c -0.5,-1 -0.5,-2 -1,-3.5 l 46.99,0 c 3,3.5 6,7.5 8.99,11 -13.99,14 -26.49,21.99 -36.98,23.99 -6.5,1 -16,-0.5 -28.49,-4.5 -27.49,-9.49 -57.48,-4.99 -89.47,13 14.5,32.49 22,58.48 22.5,76.97 25.48,-6.5 50.48,-12 74.96,-16.99 11.5,-14.5 25,-30.99 39.99,-49.48 15.5,-19.5 30.99,-37.49 45.48,-53.99 l 32.99,0 c -11.5,12.5 -23.49,25 -36.49,38.49 -21.49,22.49 -40.48,42.48 -57.47,60.48 59.47,-10.5 114.45,-15.5 165.43,-15.5 4.5,0 8.5,0 12.5,0 -1.5,-5.49 -3.5,-11.49 -5,-17.49 -7.5,-24.49 -13.5,-46.48 -18,-65.98 l 37.99,0 c 0.5,2.5 1.5,4.5 2,6.5 12.99,36.99 20.99,62.98 23.99,78.47 16.49,1 32.49,2.5 47.98,4 -4.5,-11.99 -6.5,-21.99 -6.5,-29.49 0,-9.99 1,-15.49 3,-15.99 4.5,-1 6.5,-2 7,-2.5 -19.99,-2.5 -29.99,-8.5 -29.99,-17.49 10,-5 17.49,-10 22.49,-15 -4.5,-2.5 -8.49,-5.5 -12.99,-8.5 l 44.48,0 15.99,13.5 c 0,8.5 -4,15.99 -12.49,22.49 -8.5,6.5 -12.5,14 -12.5,22.5 0,7.49 3,18.99 8.5,33.98 10.5,1.5 21.49,3.5 31.98,5 -3.49,-13 -5.49,-28.99 -5.49,-47.98 1.5,-15 2.5,-29.99 4,-44.99 -2,-1 -3.5,-2 -4,-3.5 0,-0.5 0,-0.5 0,-1 l 26.99,0 c -3,25.5 -6,51.49 -9.5,78.47 0,7 0.5,14 1,21.5 5.5,1.5 11.5,2.5 17.49,4 -2.49,-6.5 -3.49,-15 -3.49,-24.5 -2,-10.99 -1,-20.98 2.99,-30.48 7.5,-18.5 26.49,-27.99 56.98,-27.99 34.49,0 64.48,15.99 90.96,47.48 13.5,15.99 24.5,33.49 33.99,52.48 2.5,-12.5 11.5,-42.49 26.99,-90.47 3.5,-10.49 6.5,-20.99 9,-30.49 l 16.49,0 -2.5,7.5 c 7.5,-3 16.99,-5.5 28.49,-7.5 l 115.45,0 c 2.5,2.5 5,5 8.5,8.5 10,10.5 14.99,18 14.99,22.49 0,8.5 3,16.5 9,24 5.5,7.99 8.5,15.99 8.5,24.48 0,10.5 -0.5,15.5 -1,16 -1.5,-0.5 -4,0.5 -6.5,3 l -89.96,-5 2.49,5 c 0,1 3.5,4.5 10,9.99 6.5,6 10,14 10,23.49 0,16.5 -1.5,20.5 -5,11.5 -63.48,-40.48 -102.96,-70.47 -118.95,-88.96 -9,30.98 -13.5,50.48 -13.5,58.97 0,8.5 3.5,12 10,10.5 6.5,-1.5 9.99,2 9.99,10.49 0,10.5 -2.49,15.5 -6.99,15.5 -10.5,-2 -21.5,-2.5 -32.99,-1.5 -6.5,-2 -23.99,-20.5 -51.98,-55.98 -25.49,-32.49 -47.48,-48.98 -65.47,-48.98 -41.49,0 -62.48,8.5 -62.98,24.99 0,1.5 1,9.5 3,22.99 1,5.5 1,10 0.5,14 188.42,45.98 324.87,163.43 409.34,352.86 48.48,107.45 76.47,228.91 84.96,365.31 l -319.87,0 c -16.49,-23.5 -42.48,-35.4 -77.47,-35.4"
         inkscape:connector-curvature="0"
         id="path242"
         style="fill:#000000;fill-opacity:1;fill-rule:nonzero;stroke:none" /><path
         d="m 3150.07,9232.51 0,-0.5 c -9.5,7.5 -26.99,15.99 -52.48,24.99 -29.48,10.5 -49.98,15.5 -62.47,15.5 -10.5,0 -17,-1.5 -18.5,-4.5 -1,-2 -1.5,-5.5 -1.5,-10.5 5,0 24,-6 56.48,-17.49 32.49,-11.5 55.48,-17.49 68.47,-17.49 4.5,0 8,0 10.5,0.5 0,-1 0,-2 0,-3 -7.5,-1 -16.49,-2 -25.99,-2.5 -28.49,-2.5 -53.47,-15 -74.47,-37.49 l 5,-7.49 c 8,0 14,2 17.99,5.99 4,5.5 8,9.5 12.5,12.5 11.49,7.99 34.49,11.99 68.97,12.49 0,-0.5 0,-0.5 0.5,-1 l 10,0 0.5,1 c 10.49,0 21.99,-0.5 34.48,-1 6,-25.99 11,-78.97 14.5,-158.93 -1.5,0.5 -3,1 -4.5,1.5 -1.5,-1 -3,-3 -3.5,-6 -33.49,8.5 -73.97,20.99 -120.95,37.48 -81.97,28.49 -122.95,51.48 -122.95,68.48 0,2 26.99,67.47 81.46,196.42 l -29.99,0 c -1.49,-3.5 -2.99,-6.5 -4.49,-10 -47.98,-111.45 -71.97,-173.43 -71.97,-186.42 0,-18.5 28.48,-43.49 85.46,-74.98 63.48,-34.98 125.45,-52.47 186.93,-52.47 6,0 11.49,0.5 15.99,1 10,-6.5 13,-15.5 9,-25.99 0,-16.5 -3.5,-31.49 -10,-44.99 l 15,-2.5 c 8.49,8.5 13.49,15 14.99,20 0,21.99 -0.5,37.48 -1.5,45.98 -0.5,5.5 -2.5,10.49 -6.99,14.99 1.49,1.5 2.49,2.5 3.49,4 -3.49,0.5 -6.49,1 -9.49,1.5 -2.5,1.5 -4.5,3 -7,4.5 -4,17.49 -5.5,49.48 -4,95.96 1,41.49 -9,73.47 -29.49,95.46 -4.5,-1.5 -15.49,-3.49 -31.98,-5.49 l 14.49,100.46 c -10,-5.5 -17.99,-20 -24.49,-42.49 -5.5,-18.49 -8,-33.99 -8,-47.48"
         inkscape:connector-curvature="0"
         id="path244"
         style="fill:#000000;fill-opacity:1;fill-rule:nonzero;stroke:none" /><path
         d="m 3463.45,9341.47 -46.99,0 c -8.49,-25.49 -9.99,-55.98 -3.99,-91.47 62.47,6.5 108.45,3.5 138.94,-9.49 5.5,-2.5 13,-6.5 21.49,-11 -3.5,-39.48 -5.49,-78.97 -5.49,-117.95 0,-33.49 6.49,-93.46 19.49,-180.43 6.49,-41.48 10.99,-77.97 14.49,-108.45 -13.99,1.99 -59.98,8.99 -138.44,20.49 -74.47,11.49 -161.94,16.99 -262.9,16.99 -10.5,0 -16.99,-0.5 -19.49,-1 5,40.48 2.5,91.96 -8,153.44 l -7.49,0 c 0,-14.49 -7.5,-44.98 -22.5,-92.46 -14.99,-47.48 -22.49,-77.47 -22.49,-89.97 0,-16.49 2.5,-23.49 7.5,-19.99 l 52.48,0 c 35.49,6.5 68.47,11.5 99.46,14.49 l -2,-15.49 c 8.5,-14.49 25.99,-27.99 52.98,-41.48 1.5,-1 3.5,-2 5,-2.5 -0.5,-3 -0.5,-6.5 -0.5,-10 0,-14.99 5.5,-42.48 16.49,-82.97 10.5,-39.98 15.99,-67.47 15.99,-81.96 0,-2.5 0,-7 -0.5,-12.5 -11.99,-0.5 -19.49,-1 -21.99,-2.5 l -2.49,-15.99 c 0,-16.49 1.5,-21.99 4.99,-16.49 5.5,-0.5 10.5,-1 15.5,-1.5 -1,-7 -2,-15 -3,-23.49 4,8.49 7.49,15.99 10.99,22.99 66.48,-5.5 104.46,-9 113.96,-10.5 -27.99,21.49 -42.49,31.99 -43.48,32.49 -14.5,8.49 -32.49,12.99 -53.98,14.49 5,12.5 7.49,21 7.49,24.49 0,52.48 -7.99,101.96 -23.49,149.44 47.48,-15.49 106.96,-23.49 178.43,-23.49 17.5,0.5 33.49,1.5 48.98,3.5 9.5,-62.48 15,-112.95 16,-152.44 -3.5,-0.5 -8.5,-1 -15,-1 l -2.5,-15.99 c 0,-16.49 2.5,-24.49 7.5,-23.99 l 44.98,0 c 14,-0.5 32.49,9.5 54.98,29.99 -9.99,6.49 -14.99,11.49 -14.99,14.99 l -58.98,0 c 3.5,8 6.5,17.49 9,28.99 3.5,15.49 5,25.49 5,30.99 -2.5,19.99 -6,39.98 -10,59.97 -2.5,13.5 -5,24.99 -7.5,33.99 35.49,8.5 63.98,22.99 84.97,43.48 -2.5,8.5 -6,15.99 -10,21.49 13.49,9.5 28.49,20 45.48,31.49 39.99,26.99 69.97,47.48 89.47,60.97 8.49,-20.99 16.49,-31.48 24.99,-31.48 8.5,0 15.99,1.5 22.49,5 -29.99,55.47 -59.98,192.92 -89.47,412.33 15.5,-19.99 26.99,-29.99 34.49,-29.99 4,0 7.5,0 10.5,0.5 38.98,-15.49 68.97,-22.99 89.46,-22.99 33.99,0 62.97,4 87.47,12.5 23.48,7.99 34.98,16.99 34.98,27.49 l -22.49,73.97 -16.49,0 c 5.99,-22.99 8.99,-42.49 8.99,-58.98 0,-6 -21.99,-9 -66.47,-9.49 -47.48,-0.5 -83.97,-6 -110.46,-16 0,0.5 0,0.5 -0.5,0.5 l -56.47,72.47 c -0.5,4 -1,8 -1.5,11.5 l -26.99,0 c 0.5,-4.5 2.5,-11 6.49,-19 6.5,-65.97 14,-131.44 23,-196.92 14.99,-107.45 29.98,-182.43 44.98,-223.91 -21.49,-9.49 -52.98,-24.49 -94.46,-45.98 -29.49,-14.99 -52.98,-26.99 -70.48,-35.98 -1.5,0.5 -2.99,0.5 -4.49,0.5 -11.5,-1.5 -21.99,-3 -30.99,-4.5 -13,135.94 -28.99,271.89 -47.48,407.34 10.49,-3.5 21.49,-5.5 33.48,-5.5 10,0 15,1.5 14.5,4.5 -2,4.49 -2.5,7.99 -2,10.49 -4,4.5 -8.5,10 -13,15.49 56.48,46.48 94.97,77.47 114.46,93.47 l -44.48,0 c -20.5,-13.5 -39.49,-29.49 -55.98,-47.99 -10,-11.99 -18.99,-22.48 -26.49,-31.48 -2,2 -4,4 -5.5,6 8.5,15.49 18.99,39.98 30.99,73.47 l -37.99,0 c -5.5,-20.99 -8.99,-38.49 -11.49,-52.98 -14.49,15.49 -30.99,33.48 -49.48,52.98 l -32.99,0 c 26.99,-29.99 51.98,-54.48 74.47,-73.97 l -12.49,-2.5 c -13.5,8.99 -56.98,16.49 -129.95,22.49 0,12.49 6.5,25.99 18.99,40.48 4,4.5 8,9 12,13.5"
         inkscape:connector-curvature="0"
         id="path246"
         style="fill:#000000;fill-opacity:1;fill-rule:nonzero;stroke:none" /><path
         d="m 4159.67,9334.97 c 2.5,0 5.99,2 11.49,6.5 l -115.45,0 c 25.49,-4.5 59.98,-6.5 103.96,-6.5"
         inkscape:connector-curvature="0"
         id="path248"
         style="fill:#000000;fill-opacity:1;fill-rule:nonzero;stroke:none" /><path
         d="m 3721.84,8989.11 c -6.99,-14.5 -12.49,-24.99 -16.99,-31.49 l 14.99,-2.5 c 15.5,18.99 25.99,37.99 32.49,57.48 -12.49,-3.5 -22.49,-11.49 -30.49,-23.49"
         inkscape:connector-curvature="0"
         id="path250"
         style="fill:#000000;fill-opacity:1;fill-rule:nonzero;stroke:none" /><path
         d="m 3504.93,9142.55 c -10,-1.5 -16.49,-2.5 -19.99,-2.5 0,-10 2.5,-17.5 7.49,-22.49 2.5,0.5 8.5,-1 18,-3.5 3,-0.5 4.5,4 4.5,13.49 0,16.5 -3.5,21.49 -10,15"
         inkscape:connector-curvature="0"
         id="path252"
         style="fill:#000000;fill-opacity:1;fill-rule:nonzero;stroke:none" /><path
         d="m 3489.94,9010.1 c -1.5,-6.5 -2.5,-14.99 -2.5,-24.99 l 12.49,-5 c 6.5,3.5 13.5,10 20,20 l -20,12.49 c 0,-1.5 -3.5,-2.5 -9.99,-2.5"
         inkscape:connector-curvature="0"
         id="path254"
         style="fill:#000000;fill-opacity:1;fill-rule:nonzero;stroke:none" /></g></g></svg>