<?xml version="1.0" encoding="UTF-8" standalone="no"?>
<!-- Created with Inkscape (http://www.inkscape.org/) -->

<svg
   xmlns:dc="http://purl.org/dc/elements/1.1/"
   xmlns:cc="http://creativecommons.org/ns#"
   xmlns:rdf="http://www.w3.org/1999/02/22-rdf-syntax-ns#"
   xmlns:svg="http://www.w3.org/2000/svg"
   xmlns="http://www.w3.org/2000/svg"
   xmlns:inkscape="http://www.inkscape.org/namespaces/inkscape"
   version="1.1"
   width="181.25"
   height="65"
   id="svg2"
   xml:space="preserve"><metadata
     id="metadata8"><rdf:RDF><cc:Work
         rdf:about=""><dc:format>image/svg+xml</dc:format><dc:type
           rdf:resource="http://purl.org/dc/dcmitype/StillImage" /></cc:Work></rdf:RDF></metadata><defs
     id="defs6" /><g
     transform="matrix(1.25,0,0,-1.25,0,65)"
     id="g10"><g
       transform="scale(0.1,0.1)"
       id="g12"><path
         d="m 229.41,455.027 c 0.496,-42.484 0.496,-68.472 0.496,-78.968 0,-64.977 6,-143.446 18.496,-235.907 l -2.5,0 C 203.418,393.551 168.434,520 139.945,520 121.453,520 74.9688,361.062 0,42.6914 0,31.6953 2,24.6992 5.49609,21.1992 c 0.5,-0.5 5.00001,-2.5 14.49611,-5.9961 39.4844,35.4844 65.9726,92.4609 80.4688,170.9299 6.496,43.484 10.996,75.469 14.492,96.461 5.5,36.988 12.496,65.976 19.992,87.465 l 5,-12.493 c 3.996,-80.468 13.993,-153.941 30.489,-220.914 23.488,-95.9606 54.476,-143.94106 92.961,-143.94106 25.488,0 40.484,14.99218 44.98,44.48046 l 0,64.4766 c -11.492,127.449 -18.492,223.41 -19.992,288.383 8.5,-14.492 18.996,-41.481 31.488,-80.965 14.496,-47.981 25.992,-83.969 33.988,-108.457 30.489,-90.465 60.477,-135.4454 89.465,-135.4454 10.496,0 15.492,0.9961 15.492,2.4961 l -3,2.5 C 421.332,220.621 400.34,308.086 392.844,332.574 c -37.485,118.453 -78.969,177.43 -124.449,177.43 -21.993,0 -34.989,-18.492 -38.985,-54.977"
         inkscape:connector-curvature="0"
         id="path14"
         style="fill:#000000;fill-opacity:1;fill-rule:nonzero;stroke:none" /><path
         d="m 542.281,316.082 c -5.496,28.488 -13.492,52.48 -23.988,71.473 -8.496,-5 -14.996,-9.996 -19.992,-14.996 -1.5,-29.989 -5.996,-73.469 -12.496,-130.946 5,-40.484 14.996,-79.968 30.488,-118.453 C 546.781,46.1914 587.266,7.70312 638.246,7.70312 c 41.981,0 73.469,27.49218 94.961,81.96878 13.496,34.4881 19.992,64.4731 19.992,90.4651 0,16.492 -13.496,58.976 -40.484,126.449 -24.488,60.476 -41.485,99.961 -51.981,118.453 -1.5,0 -3.996,-1 -7.496,-2.5 21.492,-86.465 32.489,-156.437 32.489,-209.918 0,-11.992 -6,-33.984 -17.993,-66.473 -12.996,-34.484 -24.492,-55.9761 -34.488,-63.4722 -41.484,37.9842 -67.973,89.9652 -79.469,155.9372 -2.996,17.492 -6.996,42.981 -11.496,77.469"
         inkscape:connector-curvature="0"
         id="path16"
         style="fill:#000000;fill-opacity:1;fill-rule:nonzero;stroke:none" /><path
         d="m 813.176,352.566 c 0,-3.996 8.496,-11.996 24.988,-23.488 23.492,-15.496 41.484,-28.492 54.981,-38.484 53.476,-38.489 79.964,-71.473 79.964,-97.961 0,-1.5 -1,-11.496 -2.496,-29.988 -4,-18.493 -12.496,-27.493 -24.992,-27.493 -6.996,0 -18.492,3.5 -34.484,10.496 -20.492,8.997 -34.489,19.493 -42.985,31.989 l -4.996,-7.496 c 1.496,-13.496 9.996,-29.989 24.489,-49.481 20.492,-26.9881 43.984,-40.4842 70.472,-40.4842 24.988,0 42.983,16.4922 54.473,49.9802 7,20.492 10.5,41.485 10.5,63.973 0,31.988 -9,63.476 -26.988,94.465 -27.989,48.48 -72.473,75.468 -132.946,81.465 34.985,24.992 60.973,49.98 77.469,74.972 -40.484,-2.5 -71.973,-11.996 -94.465,-29.488 -21.988,-16.496 -32.984,-37.484 -32.984,-62.977"
         inkscape:connector-curvature="0"
         id="path18"
         style="fill:#000000;fill-opacity:1;fill-rule:nonzero;stroke:none" /><path
         d="m 1053.08,460.023 c 0,-10.496 1,-16.492 3,-17.492 3.99,0 7.99,-1 11.99,-2.5 11.5,8.496 19,12.496 22.49,12.496 l 0,22.493 -14.99,2.496 c -5,0 -11,-1 -17.49,-2.496 -1,-1.5 -2.5,-2 -4.5,-1 -0.5,0.5 -0.5,-4.5 -0.5,-13.997"
         inkscape:connector-curvature="0"
         id="path20"
         style="fill:#000000;fill-opacity:1;fill-rule:nonzero;stroke:none" /><path
         d="m 1090.56,375.059 -7.49,0 c 0,-23.493 -1,-57.477 -2.5,-102.461 0,-16.493 6,-58.977 17.49,-127.45 5,-4.496 8.5,-7.496 10.49,-8.996 2.5,-2.496 9,-3.496 19.5,-3.496 9.99,0 16.99,1.996 21.49,5.996 l 6,6.496 c 1.5,9.997 2.5,18.993 2.5,26.493 0,13.992 -10.5,47.48 -31.99,99.957 -21.99,54.98 -33.99,89.464 -35.49,103.461"
         inkscape:connector-curvature="0"
         id="path22"
         style="fill:#000000;fill-opacity:1;fill-rule:nonzero;stroke:none" /><path
         d="m 1258,410.043 c -27.49,0 -51.48,-14.492 -72.47,-42.981 -16.5,-22.492 -24.99,-40.984 -24.99,-55.48 0,-27.488 12.49,-58.977 37.98,-94.461 38.48,-54.476 94.96,-81.969 169.43,-81.969 54.98,0 82.47,14.996 82.47,44.985 0,2.5 -4,9.496 -12.49,21.992 -8.5,11.992 -15,20.488 -20,25.488 -1.5,-2.5 -2,-6.996 -1,-12.996 -1,-4.496 -6.49,-6.996 -16.49,-6.996 -26.99,0 -56.48,13.496 -88.96,39.984 -27.5,22.493 -43.49,41.985 -48.48,57.477 47.48,22.492 90.96,43.984 129.94,64.973 -12.49,5 -31.98,11.996 -58.48,20.992 -38.48,12.496 -63.97,18.992 -76.46,18.992"
         inkscape:connector-curvature="0"
         id="path24"
         style="fill:#000000;fill-opacity:1;fill-rule:nonzero;stroke:none" /></g></g></svg>