<?xml version="1.0" encoding="UTF-8" standalone="no"?>
<!-- Created with Inkscape (http://www.inkscape.org/) -->

<svg
   xmlns:dc="http://purl.org/dc/elements/1.1/"
   xmlns:cc="http://creativecommons.org/ns#"
   xmlns:rdf="http://www.w3.org/1999/02/22-rdf-syntax-ns#"
   xmlns:svg="http://www.w3.org/2000/svg"
   xmlns="http://www.w3.org/2000/svg"
   xmlns:inkscape="http://www.inkscape.org/namespaces/inkscape"
   version="1.1"
   width="182.5"
   height="112.5"
   id="svg2"
   xml:space="preserve"><metadata
     id="metadata8"><rdf:RDF><cc:Work
         rdf:about=""><dc:format>image/svg+xml</dc:format><dc:type
           rdf:resource="http://purl.org/dc/dcmitype/StillImage" /></cc:Work></rdf:RDF></metadata><defs
     id="defs6" /><g
     transform="matrix(1.25,0,0,-1.25,0,112.5)"
     id="g10"><g
       transform="scale(0.1,0.1)"
       id="g12"><path
         d="m 987.605,652.598 -7.496,0 c -3.5,-75.969 -5,-122.45 -5,-138.942 -2.5,-77.468 8.996,-125.953 34.991,-145.941 4.99,4.996 8.49,9.996 9.99,14.992 -3,15.492 -4.5,50.481 -4,104.957 1,-3.996 2.5,-6.996 4.5,-8.996 0.5,-0.5 5,-2.5 14.5,-5.996 32.98,8.996 56.97,-1.5 71.97,-30.988 7.99,-17.993 14.49,-31.489 18.99,-40.485 8.5,-16.492 17.99,-28.488 28.99,-35.984 l 7.5,4.996 c -5,43.484 -11,74.973 -18.5,94.465 -17.49,45.48 -45.48,67.972 -83.97,67.972 -2.49,0 -5.49,0 -7.99,-0.5 18.49,25.489 27.99,42.981 27.99,51.477 0,16.496 -1,20.492 -2.5,11.496 -10,-4.496 -29.49,-21.492 -58.48,-50.98 -1,-0.996 -2,-1.996 -3,-3.496 -2,44.98 -11.49,82.464 -28.485,111.953"
         inkscape:connector-curvature="0"
         id="path14"
         style="fill:#000000;fill-opacity:1;fill-rule:nonzero;stroke:none" /><path
         d="m 718.711,575.129 c -1.496,0 -2.496,0 -3.496,0 -44.985,0 -66.473,-30.488 -64.977,-91.461 -2.496,-15.996 -1,-30.988 4.5,-45.484 11.496,-28.489 37.985,-42.981 80.469,-42.981 2.496,0 13.992,14.492 34.484,42.981 1.5,2 2.5,4 4,5.5 5.997,-54.481 12.993,-91.465 21.493,-110.957 l 7.496,5 c 4.996,9.996 7.496,25.988 7.496,48.48 0,0.5 -1,13.992 -2.5,39.984 -2,21.489 -4.496,41.981 -7.996,60.973 0.5,1.5 0.5,2.5 0.5,3 -1,19.492 -4.996,34.984 -11.996,47.481 -17.493,61.476 -42.481,92.464 -75.469,92.464 -17.992,0 -28.488,-0.5 -31.988,-1.5 -8.497,-2.5 -12.993,-8.996 -12.993,-19.992 0,-10.496 0.5,-15.496 1.496,-14.996 l 1,4 c 18.493,-4 34.989,-11.496 48.481,-22.492 z M 705.219,437.684 c -9.996,0 -15.996,2 -18.492,6 l -4,6.496 c -1.5,9.996 -2.5,19.992 -2.5,29.988 2.5,39.984 11.996,59.977 27.488,59.977 21.492,0 36.988,-4.5 47.484,-13.497 5.496,-12.492 10.496,-26.488 13.992,-42.48 -8.996,-30.988 -30.488,-46.484 -63.972,-46.484"
         inkscape:connector-curvature="0"
         id="path16"
         style="fill:#000000;fill-opacity:1;fill-rule:nonzero;stroke:none" /><path
         d="m 155.438,698.582 c 0,0.5 0,11.992 0.5,34.984 -0.5,26.989 -2.5,51.481 -5.997,73.969 -7,44.985 -19.492,75.973 -36.988,92.465 l -61.9725,0 C 32.9883,875.508 19.4922,821.531 10.4961,737.566 4,616.113 0.5,552.641 0.5,546.141 -1,507.156 2,468.672 8.49609,430.188 20.9922,353.719 46.9805,315.234 85.4648,315.234 c 16.4962,0 30.9882,32.489 42.4842,97.961 5.996,32.489 9.996,65.973 12.496,100.461 0,10.492 -1.5,15.492 -4,15.492 -2.5,0.5 -9.496,0.5 -20.992,1 -4.996,-1.5 -8.496,-4 -9.996,-7.496 -2.996,-14.496 -3.996,-31.488 -2.996,-51.48 1.496,-21.492 2.496,-37.484 2.996,-47.981 1,-35.488 -10.4961,-60.476 -34.9843,-75.468 -26.4922,51.476 -39.9844,118.949 -39.9844,202.418 0,48.48 3,98.461 9.4961,149.937 11.4961,94.465 30.4883,154.442 57.9765,179.93 28.4881,-50.481 42.4841,-127.949 42.4841,-232.406 l 9.996,2.5 c 0,9.996 1.497,25.988 4.997,48.48"
         inkscape:connector-curvature="0"
         id="path18"
         style="fill:#000000;fill-opacity:1;fill-rule:nonzero;stroke:none" /><path
         d="m 389.344,263.254 -4.496,-30.988 20.488,-2.496 15.996,13.992 -6,-36.985 c -0.496,-1 -0.496,-2 -0.996,-3 -0.5,-1.5 -1,-2.496 -1.5,-3.496 -1.5,-1 -3.5,-2 -5.5,-2.5 2.5,-39.984 1,-81.469 -3.996,-124.949 -3.5,-28.9882 1.996,-55.9804 15.992,-81.46872 l 18.992,6.9961 12.996,165.43362 c 55.977,-15.492 94.961,2.5 116.453,52.98 7.497,17.993 3,31.489 -13.996,40.985 -27.988,15.992 -57.976,21.492 -90.461,16.492 -16.996,-1.5 -27.492,2.5 -31.988,12.996 -2.5,0.5 -4,0 -4.5,-1 -1.5,-2.5 -2.496,-6 -2,-9.496 l -35.484,-13.496 z m 52.48,-50.981 0,29.989 98.461,0 0,-29.989 -98.461,0"
         inkscape:connector-curvature="0"
         id="path20"
         style="fill:#000000;fill-opacity:1;fill-rule:nonzero;stroke:none" /><path
         d="m 1308.98,435.188 -48.98,14.992 38.98,66.472 c -12.5,39.485 -37.98,53.481 -75.97,41.985 -23.49,-7.496 -34.99,-22.992 -34.99,-45.481 -0.5,-41.484 17,-74.972 52.48,-100.961 30.49,-22.492 60.48,-25.988 89.97,-10.996 l -13,53.981 -8.49,-19.992 z m -55.48,89.46 c 3.5,-3.496 5.5,-7.996 5.5,-13.492 0,-5.5 -2,-9.996 -5.5,-13.996 -3.5,-3.496 -8,-5.496 -13.5,-5.496 -5.49,0 -9.99,2 -13.49,5.496 -3.5,4 -5.5,8.496 -5.5,13.996 0,5.496 2,9.996 5.5,13.492 3.5,4 8,6 13.49,6 5.5,0 10,-2 13.5,-6"
         inkscape:connector-curvature="0"
         id="path22"
         style="fill:#000000;fill-opacity:1;fill-rule:nonzero;stroke:none" /><path
         d="m 1391.44,408.695 c -3.49,15.496 -3.49,29.989 0.5,43.485 13.5,44.98 35.99,85.965 67.97,122.949 -14.99,-4.496 -29.98,-8.496 -44.98,-12.992 -38.48,-12.996 -59.47,-39.485 -62.47,-78.969 l 22.49,-82.969 16.49,8.496"
         inkscape:connector-curvature="0"
         id="path24"
         style="fill:#000000;fill-opacity:1;fill-rule:nonzero;stroke:none" /><path
         d="m 901.641,530.148 -68.473,5.997 c -2.5,-61.473 8.496,-120.95 31.984,-178.426 l 12.496,4.996 -17.492,142.441 29.989,-13.992 30.488,59.977 -18.992,-20.993"
         inkscape:connector-curvature="0"
         id="path26"
         style="fill:#000000;fill-opacity:1;fill-rule:nonzero;stroke:none" /><path
         d="m 1096.06,253.758 c -21.49,-13.492 -31.99,-33.485 -30.99,-58.977 l 16,-96.9607 22.49,131.4497 14.49,5.496 19,-125.45 c 8.49,7.996 13.99,17.493 15.49,28.489 7.5,53.48 -8.5,93.961 -47.98,120.953 -3,-1.5 -6,-3 -8.5,-5"
         inkscape:connector-curvature="0"
         id="path28"
         style="fill:#000000;fill-opacity:1;fill-rule:nonzero;stroke:none" /><path
         d="m 1015.09,175.289 18,44.984 -1.5,15.993 -70.973,26.988 c -22.492,-27.488 -29.488,-58.977 -21.492,-93.961 10.496,-44.484 38.984,-61.977 86.465,-51.981 l -2.5,28.489 c -15.49,-8.496 -29.988,-8.496 -43.981,-1 -12.496,6.5 -18.992,15.496 -20.492,27.988 -0.5,3.5 -0.5,6.5 0,9.5 l 56.473,-7 z m -30.985,66.473 c 7.497,0 13.497,-2.496 18.495,-7.996 5,-4.996 7.5,-10.996 7.5,-18.493 0,-7.496 -2.5,-13.492 -7.5,-18.992 -4.998,-4.996 -10.998,-7.496 -18.495,-7.496 -7.496,0 -13.492,2.5 -18.492,7.496 -4.996,5.5 -7.496,11.496 -7.496,18.992 0,7.497 2.5,13.497 7.496,18.493 5,5.5 10.996,7.996 18.492,7.996"
         inkscape:connector-curvature="0"
         id="path30"
         style="fill:#000000;fill-opacity:1;fill-rule:nonzero;stroke:none" /><path
         d="m 1143.04,217.273 56.98,-15.992 c -1,-11.996 -1.5,-23.992 -1,-35.488 0.5,-10.996 2,-21.992 5,-32.484 3,-9.997 7,-19.493 11.99,-28.989 5.5,-10.4958 13,-18.9958 21.49,-24.9919 l 1.5,122.4529 41.49,24.489 -43.49,3.5 -18.49,62.472 -10.49,-62.472 -63.98,-1.5 -1,-10.997"
         inkscape:connector-curvature="0"
         id="path32"
         style="fill:#000000;fill-opacity:1;fill-rule:nonzero;stroke:none" /><path
         d="m 859.656,256.258 -30.488,1 -7.496,-50.481 62.473,-67.972 -64.473,-4.5 -3,-22.489 c 38.984,-23.4918 69.473,-16.4957 90.965,20.993 2,9.996 1,19.992 -3.5,29.988 -11.492,27.988 -29.489,50.976 -53.977,68.969 14.492,5 17.492,12.996 9.496,24.492"
         inkscape:connector-curvature="0"
         id="path34"
         style="fill:#000000;fill-opacity:1;fill-rule:nonzero;stroke:none" /><path
         d="m 1398.94,235.266 c -51.48,10.996 -90.46,-5.496 -116.95,-49.481 l 86.46,-84.965 -80.47,-7.9958 7,-19.9922 97.46,2.4961 5.5,19.4922 -89.96,95.9647 108.95,38.485 c -6,2 -11.99,3.996 -17.99,5.996"
         inkscape:connector-curvature="0"
         id="path36"
         style="fill:#000000;fill-opacity:1;fill-rule:nonzero;stroke:none" /><path
         d="m 671.73,770.051 -24.488,16.496 -106.957,-13.996 -25.492,48.98 4.5,-55.976 -40.984,-20.493 4,-27.488 42.98,10.496 14.496,-99.461 -67.973,3.496 25.989,-44.48 45.98,13.496 33.989,-223.41 17.492,2.496 -26.989,231.906 c 25.489,18.496 50.981,37.489 75.969,56.981 33.488,27.488 42.985,60.972 27.488,100.957 z m -31.488,-24.989 c -7.496,-22.992 -17.992,-43.484 -32.484,-61.476 -8.496,-10.996 -18.492,-20.992 -30.488,-29.988 -5,-3.496 -9.997,-6.996 -14.497,-10.996 l -19.992,92.964 97.461,9.496"
         inkscape:connector-curvature="0"
         id="path38"
         style="fill:#000000;fill-opacity:1;fill-rule:nonzero;stroke:none" /><path
         d="m 189.926,454.18 -21.992,-3.5 c 3.496,-7.996 8.496,-15.492 14.492,-21.992 26.492,-31.485 57.476,-37.985 92.465,-19.493 11.996,-14.492 19.492,-31.984 22.988,-51.976 6.5,-36.489 7,-72.473 2,-107.957 -6.496,-45.485 -30.488,-68.973 -71.969,-71.473 l -77.469,52.481 c 19.493,-54.481 57.977,-79.469 114.454,-75.473 11.996,0.5 21.492,5.5 28.988,14.496 23.488,28.488 35.984,61.977 36.984,99.461 1.5,80.465 -9.996,159.434 -34.984,237.902 -6.5,20.492 -17.496,36.989 -33.488,49.981 l -17.993,0 28.489,-68.973 0,-52.476 c -6.496,-3 -13.496,-5.5 -19.993,-7 -27.488,-7.497 -48.48,1 -62.972,25.992"
         inkscape:connector-curvature="0"
         id="path40"
         style="fill:#000000;fill-opacity:1;fill-rule:nonzero;stroke:none" /><path
         d="m 689.723,281.246 -12.993,-22.488 -58.476,-5.5 c -2.5,-6.496 -4.5,-13.492 -6.5,-20.992 -12.992,-45.481 -4.996,-86.965 23.992,-124.45 l 13.992,9.996 c -3.496,15.497 -1.996,31.489 4,46.981 15.492,38.484 27.489,76.969 35.985,116.453"
         inkscape:connector-curvature="0"
         id="path42"
         style="fill:#000000;fill-opacity:1;fill-rule:nonzero;stroke:none" /><path
         d="m 705.219,232.766 c -7,-11.493 -10.496,-24.489 -9.996,-37.985 1,-62.472 30.988,-93.461 89.965,-92.961 l 7.996,8.496 -7.996,25.989 c -23.993,1 -40.485,13.496 -49.981,37.984 l 43.981,41.484 -50.981,27.489 -22.988,-10.496"
         inkscape:connector-curvature="0"
         id="path44"
         style="fill:#000000;fill-opacity:1;fill-rule:nonzero;stroke:none" /></g></g></svg>