<?xml version="1.0" encoding="UTF-8" standalone="no"?>
<!-- Created with Inkscape (http://www.inkscape.org/) -->

<svg
   xmlns:dc="http://purl.org/dc/elements/1.1/"
   xmlns:cc="http://creativecommons.org/ns#"
   xmlns:rdf="http://www.w3.org/1999/02/22-rdf-syntax-ns#"
   xmlns:svg="http://www.w3.org/2000/svg"
   xmlns="http://www.w3.org/2000/svg"
   xmlns:inkscape="http://www.inkscape.org/namespaces/inkscape"
   version="1.1"
   width="145"
   height="73.75"
   id="svg2"
   xml:space="preserve"><metadata
     id="metadata8"><rdf:RDF><cc:Work
         rdf:about=""><dc:format>image/svg+xml</dc:format><dc:type
           rdf:resource="http://purl.org/dc/dcmitype/StillImage" /></cc:Work></rdf:RDF></metadata><defs
     id="defs6" /><g
     transform="matrix(1.25,0,0,-1.25,0,73.75)"
     id="g10"><g
       transform="scale(0.1,0.1)"
       id="g12"><path
         d="m 114.953,143.18 c 2.5,8.496 5,16.992 7.496,25.488 10.996,-0.5 24.492,-1 39.985,-1 19.992,0 43.484,6.5 70.472,19.992 3.5,-9.496 7.496,-19.992 11.996,-30.488 40.485,-86.465 79.469,-129.4454 117.453,-129.4454 10.497,0 17.993,2.4961 22.493,6.9961 2.496,2.5 4.996,6.9961 7.496,12.9961 l 2.5,11.4921 c 0,25.4922 -23.492,85.9691 -70.973,182.4301 15.492,8.496 26.988,13.992 33.484,15.992 -1.496,3.5 -6.496,5.996 -14.992,7.496 -6.996,-3.496 -15.492,-7.496 -24.992,-10.996 -9.992,19.492 -20.988,40.984 -32.484,63.476 -20.492,60.477 -39.485,110.457 -55.977,149.442 -31.488,73.469 -58.976,110.453 -81.469,110.453 -15.496,0 -44.484,-83.465 -86.9644,-250.399 C 19.9922,168.668 0,76.707 0,50.2148 0,39.7188 2,29.7227 5.49609,20.2266 12.4961,1.73438 24.9883,-7.26172 42.4844,-7.26172 c 19.4922,0 43.9804,49.98052 72.4686,150.44172 z m 47.481,204.418 5,0 c 9.496,-20.493 26.988,-61.977 51.48,-124.45 -25.992,-7 -55.48,-14.496 -87.965,-21.992 13.992,53.477 24.489,102.457 31.485,146.442"
         inkscape:connector-curvature="0"
         id="path14"
         style="fill:#000000;fill-opacity:1;fill-rule:nonzero;stroke:none" /><path
         d="m 462.316,400.074 c 1.996,0.5 4.496,1.5 7.996,3 4.997,-84.965 9.497,-152.437 13.493,-201.918 8.5,-107.4568 24.492,-160.9372 48.48,-160.9372 16.496,0 21.492,2.5 14.996,7.5 0.5,1.496 1.5,1.496 3.5,0.996 0.996,-0.5 1.496,4.5 1.496,13.9961 0,28.4883 -9.496,87.4651 -27.988,176.9301 7.996,-8.496 42.484,-33.989 102.961,-76.469 73.969,-51.981 122.449,-77.9689 144.941,-77.9689 16.493,0 27.489,1.5 32.489,4.9961 -2,22.4918 -22.992,50.4808 -63.477,82.9688 -67.473,54.477 -103.457,83.965 -108.957,89.465 13.496,19.988 43.484,59.972 89.965,119.449 39.984,55.98 59.977,98.461 59.977,127.949 0,0.5 0,5.5 0.5,13.996 0,9.996 -2,18.993 -5.5,27.489 C 766.195,577.004 741.203,590 702.219,590 c -38.985,0 -94.961,-23.992 -167.434,-72.473 -68.473,-45.48 -102.457,-75.468 -102.457,-89.961 0,-1.5 9.996,-10.496 29.988,-27.492 z m 60.473,-153.937 c -1.996,8.996 -3.996,18.492 -5.996,28.488 -12.496,57.977 -22.992,103.461 -30.988,136.445 18.492,9.496 46.98,24.492 85.465,45.985 48.484,26.988 92.464,42.98 130.949,47.98 l -2.5,-14.996 C 693.223,480.543 658.738,435.562 596.262,354.094 551.281,295.617 526.789,259.633 522.789,246.137"
         inkscape:connector-curvature="0"
         id="path16"
         style="fill:#000000;fill-opacity:1;fill-rule:nonzero;stroke:none" /><path
         d="m 862.156,420.066 c 24.489,5.5 52.977,12.996 85.965,23.493 5.996,-83.465 38.984,-191.922 98.959,-325.871 l 10,2.5 c -5,19.992 -2.5,47.48 7.49,82.468 -15.49,124.449 -30.98,212.914 -46.98,264.895 3.5,1.496 7.5,2.496 11,3.996 87.46,32.488 130.95,57.476 130.95,75.969 0,16.496 -1.5,21.492 -5,14.996 -2.5,1 -7,3.996 -13.5,8.996 -3,2.5 -9.49,3.5 -18.99,3.5 -34.48,0 -91.46,-18.496 -171.929,-54.981 -78.469,-35.484 -117.953,-59.976 -117.953,-72.468 0,-1.5 9.996,-10.997 29.988,-27.493"
         inkscape:connector-curvature="0"
         id="path18"
         style="fill:#000000;fill-opacity:1;fill-rule:nonzero;stroke:none" /></g></g></svg>